SplineFontDB: 3.0
FontName: LibertinusSans-Italic
FullName: Libertinus Sans Italic
FamilyName: Libertinus Sans
Weight: Regular
UComments: "2003-08-29: Created.+AAoA-2004-07-25: v(1.0) release candidate+AAoA-2005-12-28: v(1.1.0) stable+AAoA-2006-01-01: v(2.0.0) stable+AAoA-2006-09-05: v(2.2.0) stable+AAoA-2006-12-04: v(2.3.0) stable+AAoA-2007-03-11: v(2.4.0) stable+AAoA-2007-12-00: v(2.7.0) stable+AAoA-2008-06-00: v(2.8.14) stable+AAoA"
Version: 1.1.3
ItalicAngle: -12
UnderlinePosition: -98
UnderlineWidth: 40
Ascent: 754
Descent: 246
InvalidEm: 0
LayerCount: 2
Layer: 0 0 "Back" 1
Layer: 1 0 "Fore" 0
XUID: [1021 993 1524925707 2876416]
FSType: 0
OS2Version: 0
OS2_WeightWidthSlopeOnly: 0
OS2_UseTypoMetrics: 1
CreationTime: 1156455862
PfmFamily: 33
TTFWeight: 400
TTFWidth: 5
LineGap: 0
VLineGap: 0
OS2TypoAscent: 894
OS2TypoAOffset: 0
OS2TypoDescent: -246
OS2TypoDOffset: 0
OS2TypoLinegap: 0
OS2WinAscent: 894
OS2WinAOffset: 0
OS2WinDescent: 246
OS2WinDOffset: 0
HheadAscent: 894
HheadAOffset: 0
HheadDescent: -246
HheadDOffset: 0
OS2CapHeight: 658
OS2XHeight: 429
OS2FamilyClass: 2050
OS2Vendor: 'QUE '
Lookup: 258 0 0 "'kern' Smallcap kerning" { "'kern' Small Caps" [150,15,4] } ['kern' ('DFLT' <'dflt' > 'grek' <'dflt' > 'latn' <'AZE ' 'CRT ' 'TRK ' 'dflt' > ) ]
Lookup: 258 0 0 "'kern' Cyrillic kerning" { "'kern' Cyrillic Kerning" [150,0,6] } ['kern' ('DFLT' <'dflt' > 'cyrl' <'dflt' > ) ]
Lookup: 258 0 0 "'kern' Greek kerning" { "'kern' Greek Kerning" [150,0,6] } ['kern' ('DFLT' <'dflt' > 'grek' <'dflt' > ) ]
Lookup: 257 0 0 "'cpsp' Versalabstaende" { "'cpsp' Versalabstaende 1"  } ['cpsp' ('DFLT' <'dflt' > 'cyrl' <'dflt' > 'grek' <'dflt' > 'latn' <'AZE ' 'CRT ' 'TRK ' 'dflt' > ) ]

StartChar: exclam
Encoding: 33 33 0
Width: 228
GlyphClass: 2
Flags: MW
LayerCount: 2
Fore
SplineSet
252.9 658 m 0
 279.9 658 303.9 635 293.3 585 c 0
 279.5 520 254.6 478 226.3 392 c 0
 190.3 284 176.6 224 171.6 210 c 0
 168.3 199 163.4 190 153.4 190 c 0
 142.4 190 141.8 197 142.1 203 c 0
 144.6 224 158.7 314 167.3 392 c 0
 177 480 168.4 515 183.3 585 c 0
 194.8 639 230.9 658 252.9 658 c 0
EndSplineSet
Refer: 256 46 N 1 0 0 1 3 0 2
Colour: ff80cc
EndChar

StartChar: quotedbl
Encoding: 34 34 1
Width: 336
GlyphClass: 2
Flags: MW
LayerCount: 2
Fore
SplineSet
305.8 427 m 1
 305.8 427 313.6 586 315.5 595 c 0
 320.2 617 347.1 645 377.1 645 c 0
 403.1 645 408.5 628 405.1 612 c 0
 401.7 596 333.7 431 333.7 431 c 1
 305.8 427 l 1
EndSplineSet
Refer: 253 39 N 1 0 0 1 10 0 2
Colour: ff00ff
EndChar

StartChar: numbersign
Encoding: 35 35 2
Width: 440
GlyphClass: 2
Flags: MW
LayerCount: 2
Fore
SplineSet
316.1 231 m 1
 356.5 341 l 1
 246.5 341 l 1
 205.1 231 l 1
 316.1 231 l 1
389.5 341 m 1
 348.1 231 l 1
 438.1 231 l 1
 420.9 183 l 1
 331.9 183 l 1
 267.8 13 l 1
 234.8 13 l 1
 296.9 183 l 1
 187.9 183 l 1
 123.8 13 l 1
 90.8 13 l 1
 153.9 183 l 1
 63.9 183 l 1
 81.1 231 l 1
 172.1 231 l 1
 212.5 341 l 1
 122.5 341 l 1
 140.9 390 l 1
 230.9 390 l 1
 294 560 l 1
 328 560 l 1
 263.9 390 l 1
 374.9 390 l 1
 437 560 l 1
 470 560 l 1
 406.9 390 l 1
 497.9 390 l 1
 479.5 341 l 1
 389.5 341 l 1
EndSplineSet
EndChar

StartChar: dollar
Encoding: 36 36 3
Width: 440
GlyphClass: 2
Flags: MW
LayerCount: 2
Fore
SplineSet
204 28 m 1
 252.7 257.4 l 1
 184.8 287.9 117.3 330.6 136.7 422 c 0
 155.1 508.4 245.5 564.9 319.4 571.4 c 1
 331.3 627 l 1
 365.3 627 l 1
 353.5 571.5 l 1
 443.1 567 467.3 533 467.3 533 c 2
 468.7 530 l 1
 455.2 504 443.6 478 434 447 c 1
 424.8 446 l 1
 414.2 491.5 390.5 524.9 345.6 534.3 c 1
 301.5 327.2 l 1
 368 301.1 445.4 260.7 424.4 162 c 0
 408.1 85.3 319.1 13 230.8 -5.5 c 1
 214.8 -81 l 1
 180.8 -81 l 1
 195.9 -9.9 l 1
 193.5 -10 191.2 -10 188.9 -10 c 0
 82.9 -10 40.4 30 40.4 30 c 1
 39 33 l 1
 51.5 59 64.5 87 75.1 118 c 1
 83.3 119 l 1
 96.8 65.3 141.5 28.4 204 28 c 1
270.4 340.7 m 1
 312.1 536.9 l 1
 258 534.3 216.5 496.1 205.6 445 c 0
 193.6 388.7 235.3 358.1 270.4 340.7 c 1
283.8 243.7 m 1
 238.7 31.6 l 1
 286.8 41.8 331.7 74.2 343.8 131 c 0
 358.3 199.2 325.3 224.3 283.8 243.7 c 1
EndSplineSet
EndChar

StartChar: percent
Encoding: 37 37 4
Width: 637
GlyphClass: 2
Flags: MW
LayerCount: 2
Fore
SplineSet
449.6 83 m 0
 438.5 31 461.6 17 480.6 17 c 0
 535.6 17 591 108 602.9 164 c 0
 614 216 584.8 225 570.8 225 c 0
 521.8 225 461.9 141 449.6 83 c 0
400.8 98 m 0
 416.7 173 492.4 256 566.4 256 c 0
 606.4 256 648.6 238 633.1 165 c 0
 618.9 98 551.4 -12 468.4 -12 c 0
 407.4 -12 389.5 45 400.8 98 c 0
474.7 521 m 0
 516.7 521 596.3 533 636.2 575 c 1
 664.8 559 l 1
 133.4 -12 l 1
 102.6 3 l 1
 567.9 503 l 1
 526.7 488 486.9 484 456.9 484 c 0
 433.9 484 398 494 381.3 505 c 1
 381.8 498 380.9 489 379 480 c 0
 365.4 416 297.4 303 213.4 303 c 0
 151.4 303 135.8 361 146.6 412 c 0
 163 489 239.4 571 311.4 571 c 0
 339.4 571 365.6 558 373.1 546 c 1
 421.8 521 456.7 521 474.7 521 c 0
194.6 398 m 0
 183.5 346 207.6 332 225.6 332 c 0
 280.6 332 335.5 421 347.8 479 c 0
 358.4 529 333.8 540 315.8 540 c 0
 266.8 540 206.9 456 194.6 398 c 0
EndSplineSet
EndChar

StartChar: parenleft
Encoding: 40 40 5
Width: 300
GlyphClass: 2
Flags: MW
LayerCount: 2
Fore
SplineSet
97.6 252 m 0
 137.1 438 265.6 605 406.3 707 c 1
 425.5 689 l 1
 385.8 653 236.5 515 180.6 252 c 0
 124.7 -11 214.4 -149 239.3 -187 c 1
 212.6 -204 l 1
 42.9 -24 88 207 97.6 252 c 0
EndSplineSet
EndChar

StartChar: parenright
Encoding: 41 41 6
Width: 300
GlyphClass: 2
Flags: MW
LayerCount: 2
Fore
SplineSet
309.6 252 m 0
 270.1 66 141.6 -101 0.9 -203 c 1
 -18.3 -185 l 1
 21.4 -149 170.7 -11 226.6 252 c 0
 282.5 515 192.8 653 167.9 691 c 1
 194.5 708 l 1
 364.2 528 319.2 297 309.6 252 c 0
EndSplineSet
Colour: ff00ff
EndChar

StartChar: asterisk
Encoding: 42 42 7
Width: 433
GlyphClass: 2
Flags: MW
LayerCount: 2
Fore
SplineSet
318.5 567 m 1
 306.1 570 292.4 571 277.4 571 c 0
 228.4 571 197.8 578 204.2 608 c 0
 207.2 622 219.6 638 243.6 638 c 0
 277.6 638 288.6 605 328.8 587 c 1
 333.1 626 319.8 653 325.3 679 c 0
 329.8 700 345.6 718 363.6 718 c 0
 381.6 718 394.3 707 389.2 683 c 0
 383.5 656 358 616 349.6 586 c 1
 399.9 606 422.6 638 455.6 638 c 0
 482.6 638 485.3 618 483.2 608 c 0
 476.8 578 440.4 571 406.4 571 c 0
 387.4 571 369.1 570 350.5 567 c 1
 376.6 530 423.5 520 415 480 c 0
 411.2 462 393.9 451 379.9 451 c 0
 340.9 451 347.7 516 331 555 c 1
 296.4 510 276.9 451 238.9 451 c 0
 221.9 451 212.6 464 215.8 479 c 0
 224.9 522 277.6 530 318.5 567 c 1
EndSplineSet
EndChar

StartChar: plus
Encoding: 43 43 8
Width: 527
GlyphClass: 2
Flags: MW
LayerCount: 2
Fore
SplineSet
343.6 257 m 1
 515.6 257 l 1
 505.2 208 l 1
 333.2 208 l 1
 296.2 34 l 1
 245.2 34 l 1
 282.2 208 l 1
 110.2 208 l 1
 120.6 257 l 1
 292.6 257 l 1
 329.6 431 l 1
 380.6 431 l 1
 343.6 257 l 1
EndSplineSet
EndChar

StartChar: slash
Encoding: 47 47 9
Width: 323
GlyphClass: 2
Flags: MW
LayerCount: 2
Fore
SplineSet
430.3 646 m 1
 43.5 -59 l 1
 2.5 -59 l 1
 389.3 646 l 1
 430.3 646 l 1
EndSplineSet
EndChar

StartChar: one
Encoding: 49 49 10
Width: 444
GlyphClass: 2
Flags: MW
LayerCount: 2
Fore
SplineSet
308 189 m 2
 293 110 284 60 279 0 c 1
 277 -3 l 1
 277 -3 250 0 231 0 c 0
 214 0 187 -3 187 -3 c 1
 186 0 l 1
 204 57 216 111 231 189 c 2
 279 437 l 2
 286 473 293 513 276 513 c 0
 257 513 208 502 164 497 c 1
 164 526 l 1
 244 550 324 589 390 610 c 1
 394 610 397 610 396 605 c 0
 391 591 378 551 357 443 c 2
 308 189 l 2
EndSplineSet
EndChar

StartChar: two
Encoding: 50 50 11
Width: 444
GlyphClass: 2
Flags: MW
LayerCount: 2
Fore
SplineSet
307.8 548 m 0
 280.9 548 255 544 227.2 521 c 0
 201.3 499 185.9 479 168.6 449 c 1
 156.2 450 l 1
 144.6 519 l 1
 170.5 549 234.8 610 322.2 610 c 0
 419.2 610 470.1 546.3 470.1 473 c 0
 470.1 388 425.9 336 379 278 c 0
 322.3 207.9 254.5 149 196.9 97 c 0
 188.4 89.4 176.2 78 176.2 68.4 c 0
 176.2 67.2 176.3 66.1 176.7 65 c 1
 203.3 67 221.3 67 255 67 c 0
 347.2 67 377 70 431.7 75 c 1
 426.9 62 425 49 422.1 36 c 0
 419.2 23 419.2 8 419.2 -5 c 1
 351 -2 322.2 0 253.1 0 c 0
 183 0 142.1 -3 71.1 -5 c 1
 68.2 1.7 66.1 12.9 66.1 24 c 0
 66.1 32.4 67.3 40.7 70.2 47 c 1
 123.6 93.7 245.5 189 329 301 c 0
 368.2 353.6 381.8 408 381.8 464.5 c 0
 381.8 516 340.7 548 307.8 548 c 0
EndSplineSet
EndChar

StartChar: three
Encoding: 51 51 12
Width: 444
GlyphClass: 2
Flags: MW
LayerCount: 2
Fore
SplineSet
208 29 m 0
 230.5 29 276.5 38.6 311.2 80 c 0
 331.9 104.7 353.8 149.6 353.8 201.9 c 0
 353.8 228.6 346.5 251.8 331 268 c 0
 309 291 275 300 245 300 c 0
 237 300 217 300 205 298 c 1
 213 342 l 1
 226 340 236 339 247 339 c 0
 302.8 339 341.4 367.7 361 409 c 0
 370.8 429.7 380.1 458.8 380.1 489.6 c 0
 380.1 540.2 351.1 571 319 571 c 0
 263 571 227 542 195 486 c 1
 181 487 l 1
 172 551 l 1
 176 554 l 1
 203 576 262 610 334 610 c 0
 416.9 610 464 563.9 464 502.8 c 0
 464 455.3 444.6 418.3 421.6 390 c 0
 394.7 356.9 358.2 333.9 329 327 c 1
 329 322 l 1
 391.5 315.8 435.5 271.6 435.5 207.2 c 0
 435.5 136.6 397.7 84.6 358 51.1 c 0
 308.4 9.3 245.2 -10 199 -10 c 0
 124 -10 88 16 67 38 c 1
 65 41 l 1
 99 116 l 1
 113 117 l 1
 128 59 134 29 208 29 c 0
EndSplineSet
EndChar

StartChar: four
Encoding: 52 52 13
Width: 444
GlyphClass: 2
Flags: MW
LayerCount: 2
Fore
SplineSet
303 148 m 1
 105 148 l 2
 70 148 49 153 52 168 c 0
 54 178 59 189 72 207 c 0
 139 296 321 516 396 600 c 0
 396 601 400 604 400 604 c 1
 400 604 417 600 432 600 c 0
 446 600 461 604 470 604 c 0
 471 604 471 602 471 600 c 0
 457 554 443 485 437 452 c 2
 388 198 l 1
 449 198 l 2
 459 198 462 191 460 182 c 0
 458 171 439 148 426 148 c 2
 426 148 413 148 378 148 c 1
 367 90 362 58 355 0 c 0
 355 -1 353 -3 352 -3 c 0
 343 -3 328 0 313 0 c 0
 298 0 267 -3 267 -3 c 1
 266 0 l 1
 282 51 288 71 303 148 c 1
374 512 m 1
 118 198 l 1
 313 198 l 1
 374 512 l 1
EndSplineSet
EndChar

StartChar: five
Encoding: 53 53 14
Width: 444
GlyphClass: 2
Flags: MW
LayerCount: 2
Fore
SplineSet
191 -10 m 0
 118 -10 77 24 57 46 c 1
 54 49 l 1
 90 129 l 1
 104 130 l 1
 124 70 129 30 201 30 c 0
 266 30 321 87 339 179 c 0
 343 199.5 344.8 218.1 344.8 234.6 c 0
 344.8 305.8 310.3 340 260 340 c 0
 215 340 176 325 135 309 c 1
 129 312 l 1
 217 606 l 1
 249 603 289 600 325 600 c 0
 376 600 428 603 484 610 c 1
 490 607 l 1
 462 539 l 1
 422 534 389 533 360 533 c 0
 315 533 275 537 240 542 c 1
 185 365 l 1
 208 373 254 380 293 380 c 0
 385 380 431.2 316.9 431.2 238.3 c 0
 431.2 224.6 429.8 210.4 427 196 c 0
 404 78 305 -10 191 -10 c 0
EndSplineSet
EndChar

StartChar: six
Encoding: 54 54 15
Width: 444
GlyphClass: 2
Flags: MW
LayerCount: 2
Fore
SplineSet
175 277 m 1
 172 267 169 250 167 240 c 0
 160.2 205.3 157.2 175.9 157.2 151.3 c 0
 157.2 49.6 208 27 249 27 c 0
 295 27 342 63 363 173 c 0
 365.7 186.1 367.9 202.6 367.9 219.7 c 0
 367.9 266.5 351.1 318 280 318 c 0
 259 318 220 317 175 277 c 1
496 583 m 1
 428 576 371 558 313 509 c 0
 258 462 209 391 182 306 c 1
 211 336 270 358 308 358 c 0
 428.5 358 452.2 274.1 452.2 216.2 c 0
 452.2 202 450.8 189.4 449 180 c 0
 435 108 372 -9 232 -9 c 0
 169.1 -9 81.1 21.3 81.1 159.1 c 0
 81.1 183.5 83.8 211.4 90 243 c 0
 109 340 161 435 245 508 c 0
 324 577 399 605 499 611 c 1
 496 583 l 1
EndSplineSet
EndChar

StartChar: seven
Encoding: 55 55 16
Width: 444
GlyphClass: 2
Flags: MW
LayerCount: 2
Fore
SplineSet
432 525 m 1
 370 527 232 526 160 516 c 1
 165 531 171 550 174 565 c 0
 177 580 176 592 177 607 c 1
 217 601 302 600 445 600 c 0
 475 600 493 605 508 610 c 1
 522 600 l 1
 361 327 277 161 189 -9 c 1
 118 -13 l 1
 116 -7 l 1
 209 143 320 332 432 525 c 1
EndSplineSet
EndChar

StartChar: nine
Encoding: 57 57 17
Width: 444
GlyphClass: 2
Flags: MW
LayerCount: 2
Fore
SplineSet
402 323 m 1
 405 333 408 350 410 360 c 0
 416.8 394.7 419.8 424.1 419.8 448.7 c 0
 419.8 550.4 369 573 328 573 c 0
 282 573 235 537 214 427 c 0
 211.3 413.9 209.1 397.4 209.1 380.3 c 0
 209.1 333.5 225.9 282 297 282 c 0
 318 282 357 283 402 323 c 1
81 17 m 1
 149 24 206 42 264 91 c 0
 319 138 368 209 395 294 c 1
 366 264 307 242 269 242 c 0
 148.5 242 124.8 325.9 124.8 383.8 c 0
 124.8 398 126.2 410.6 128 420 c 0
 142 492 205 609 345 609 c 0
 407.9 609 495.9 578.7 495.9 440.9 c 0
 495.9 416.5 493.2 388.6 487 357 c 0
 468 260 416 165 332 92 c 0
 253 23 178 -5 78 -11 c 1
 81 17 l 1
EndSplineSet
Colour: ff00ff
EndChar

StartChar: less
Encoding: 60 60 19
Width: 487
GlyphClass: 2
Flags: MW
LayerCount: 2
Fore
SplineSet
172.8 239 m 1
 465.1 123 l 1
 454.5 73 l 1
 94.7 215 l 1
 104.9 263 l 1
 524.9 404 l 1
 514.2 354 l 1
 172.8 239 l 1
EndSplineSet
EndChar

StartChar: greater
Encoding: 62 62 21
Width: 487
GlyphClass: 2
Flags: MW
LayerCount: 2
Fore
SplineSet
416.2 236 m 1
 123.8 352 l 1
 134.4 402 l 1
 494.3 260 l 1
 484.1 212 l 1
 64.1 71 l 1
 74.7 121 l 1
 416.2 236 l 1
EndSplineSet
Colour: ff00ff
EndChar

StartChar: question
Encoding: 63 63 22
Width: 405
GlyphClass: 2
Flags: MW
LayerCount: 2
Fore
SplineSet
326.318359375 619 m 0
 270.318359375 619 219.79296875 570 185.045898438 525 c 1
 172.240234375 526 l 1
 169.263671875 593 l 1
 173.041992188 597 l 1
 201.526367188 617.5 270.592773438 659 343.092773438 659 c 0
 445.092773438 659 496.430664062 599 478.741210938 508 c 0
 463.385742188 429 395.833007812 385 342.223632812 351 c 0
 315.919921875 334 302.809570312 318 290.504882812 301 c 0
 272.645507812 276 260.98046875 252 256.315429688 228 c 2
 247.762695312 184 l 2
 246.401367188 177 232.818359375 174 224.818359375 174 c 0
 216.818359375 174 204.401367188 177 205.762695312 184 c 2
 214.704101562 230 l 2
 223.0625 273 244.530273438 332 320.999023438 391 c 0
 368.19140625 428 393.828125 457 402.963867188 504 c 0
 415.598632812 569 383.318359375 619 326.318359375 619 c 0
EndSplineSet
Refer: 256 46 N 1 0 0 1 80 0 2
Colour: ff80cc
EndChar

StartChar: at
Encoding: 64 64 23
Width: 895
GlyphClass: 2
Flags: MW
LayerCount: 2
Fore
SplineSet
636.2 316 m 0
 644.3 354 620.6 379 584.6 379 c 0
 567.6 379 522.7 370 486.1 339 c 0
 424.3 288 393.6 224 380.4 162 c 0
 370.2 114 375.9 70 438.9 70 c 0
 473.9 70 535 127 581.5 200 c 0
 601.1 231 629 282 636.2 316 c 0
598.7 74 m 0
 596.6 64 605.2 62 607.2 62 c 0
 709.2 62 783.2 109 818.5 275 c 0
 862.3 481 707.5 581 582.5 581 c 0
 430.5 581 240.6 478 190.2 241 c 0
 158.3 91 188.4 -125 446.4 -125 c 0
 531.4 -125 598.4 -102 661.5 -59 c 1
 670.6 -77 l 1
 600.8 -123 533.4 -158 420.4 -158 c 0
 181.4 -158 61.1 10 106.4 223 c 0
 152.1 438 373.9 611 598.9 611 c 0
 813.9 611 938.6 469 898.9 282 c 0
 874.7 168 774.7 27 556.7 27 c 0
 527.7 27 526.1 52 529.5 68 c 0
 532.7 83 544.5 106 557.8 131 c 1
 556.1 132 l 1
 496.4 58 436.2 29 401.2 29 c 0
 301.2 29 297 113 305.5 153 c 0
 335.9 296 487.1 410 593.1 410 c 0
 626.1 410 656.5 393 661 367 c 1
 671.1 391 l 1
 726.9 404 l 1
 740.8 399 l 1
 626 141 l 2
 614.3 114 600.1 80.5 598.7 74 c 0
EndSplineSet
EndChar

StartChar: A
Encoding: 65 65 24
Width: 633
GlyphClass: 2
Flags: MW
AnchorPoint: "below" 247 -108 basechar 0
AnchorPoint: "cedilla" 59.7 8 basechar 0
AnchorPoint: "above" 491.6 798 basechar 0
AnchorPoint: "top_punkt" 470.8 700 basechar 0
LayerCount: 2
Fore
SplineSet
229.5 228.3 m 1
 175.2 140.8 126.8 58.3 97.4 -3 c 1
 86 0 64 0 53 0 c 0
 42 0 30 0 17.4 -3 c 1
 165.4 218 309.7 436 452.9 658 c 1
 480.9 658 l 1
 526.4 439 585.9 98 614.4 -3 c 1
 598 0 572 0 555 0 c 0
 538 0 522 0 504.4 -3 c 1
 503 19.2 497 97.2 475.8 228.3 c 1
 438.3 229.2 396.9 230 358.9 230 c 0
 324.4 230 267.7 229.2 229.5 228.3 c 1
467.9 275.5 m 1
 455.9 345.2 439.9 427.4 418.9 521.8 c 1
 416.9 521.8 l 1
 368.9 447.2 312.6 360.5 259.3 275.9 c 1
 291 275.5 334.3 274 363.2 274 c 0
 392.9 274 434.9 274.7 467.9 275.5 c 1
EndSplineSet
Position2: "'cpsp' Versalabstaende 1" dx=2 dy=0 dh=5 dv=0
EndChar

StartChar: B
Encoding: 66 66 25
Width: 592
GlyphClass: 2
Flags: MW
AnchorPoint: "below" 245 -108 basechar 0
AnchorPoint: "cedilla" 250 0 basechar 0
AnchorPoint: "top_punkt" 430.8 700 basechar 0
AnchorPoint: "above" 450.6 798 basechar 0
LayerCount: 2
Fore
SplineSet
307.8 559 m 2
 267.9 371 l 1
 339.9 371 l 2
 422.9 371 478 402 490.2 481 c 0
 506.2 584 451.4 604 395.4 604 c 0
 314.4 604 314.9 592.3 307.8 559 c 2
258.5 327 m 1
 207.7 88 l 2
 200.7 55 221.7 41 291.7 41 c 0
 432 41 460 93 470.1 165 c 0
 482.8 256.1 462.5 327 345.5 327 c 2
 258.5 327 l 1
283.1 645 m 0
 327.8 645 362.7 648 397.7 648 c 0
 583.7 648 588.1 561 579.8 493 c 0
 572 429 508 379 448.5 360 c 1
 451 355 l 1
 533 330.1 585 278.9 573.1 184 c 0
 561 87 492.2 -3 301.4 -3 c 0
 212.4 -3 206.6 0 146 0 c 0
 111 0 93.4 -3 93.4 -3 c 1
 93 0 l 1
 112.5 54 129.6 125 145.5 200 c 2
 197.6 445 l 2
 213.5 520 226 588 230.1 645 c 1
 232.7 648 l 1
 232.7 648 249.1 645 283.1 645 c 0
EndSplineSet
Position2: "'cpsp' Versalabstaende 1" dx=2 dy=0 dh=5 dv=0
EndChar

StartChar: C
Encoding: 67 67 26
Width: 650
GlyphClass: 2
Flags: MW
AnchorPoint: "below" 345.6 -110 basechar 0
AnchorPoint: "cedilla" 360.5 -7 basechar 0
AnchorPoint: "top_punkt" 514.8 700 basechar 0
AnchorPoint: "above" 535.6 798 basechar 0
LayerCount: 2
Fore
SplineSet
494.9 658 m 0
 616.9 658 693.3 613 693.3 613 c 1
 694.7 610 l 1
 672.5 560.7 665.5 550 651.1 499 c 1
 638.9 498 l 1
 615.3 580 560.9 611 470.9 611 c 0
 388.9 611 254.1 537 211 334 c 0
 180 188 213.7 41 368.7 41 c 0
 461.7 41 514.2 62 601.8 140 c 1
 623.6 121 l 1
 536.7 32 445.9 -10 348.9 -10 c 0
 133.9 -10 69.8 158 104 319 c 0
 145.9 516 325.9 658 494.9 658 c 0
EndSplineSet
Position2: "'cpsp' Versalabstaende 1" dx=2 dy=0 dh=5 dv=0
EndChar

StartChar: D
Encoding: 68 68 27
Width: 682
GlyphClass: 2
Flags: MW
AnchorPoint: "below" 256.3 -107 basechar 0
AnchorPoint: "cedilla" 279.9 4 basechar 0
AnchorPoint: "top_punkt" 454.8 700 basechar 0
AnchorPoint: "above" 475.6 798 basechar 0
LayerCount: 2
Fore
SplineSet
204.4 82 m 2
 197.6 50 200.9 42 298.9 42 c 0
 439.9 42 553.5 82 596.4 284 c 0
 629.1 438 609.4 604 393.4 604 c 0
 344.4 604 314.3 599 306.9 564 c 2
 204.4 82 l 2
281.1 645 m 0
 343.4 645 378.4 648 440.7 648 c 0
 632.7 648 744 494 704.5 308 c 0
 652.2 62 461.6 -2 320.6 -2 c 0
 217.6 -2 212.9 0 144 0 c 0
 109 0 91.4 -3 91.4 -3 c 1
 91 0 l 1
 110.5 54 127.6 125 143.5 200 c 2
 195.6 445 l 2
 211.5 520 224 588 228.1 645 c 1
 230.7 648 l 1
 230.7 648 247.1 645 281.1 645 c 0
EndSplineSet
Position2: "'cpsp' Versalabstaende 1" dx=2 dy=0 dh=5 dv=0
EndChar

StartChar: E
Encoding: 69 69 28
Width: 522
GlyphClass: 2
Flags: MW
AnchorPoint: "cedilla" 279.9 4 basechar 0
AnchorPoint: "below" 256.3 -107 basechar 0
AnchorPoint: "top_punkt" 428.8 700 basechar 0
AnchorPoint: "above" 454.1 805 basechar 0
LayerCount: 2
Fore
SplineSet
224.5 200 m 2
 220.9 183 199.6 78 201.5 54 c 1
 335.5 54 486 66 486 66 c 1
 487.2 62 l 1
 484.5 54 480.3 39 478.2 29 c 0
 476.1 19 476 14 474 0 c 1
 471.4 -3 l 1
 455.8 -1 433 0 412 0 c 2
 139 0 l 2
 104 0 86.4 -3 86.4 -3 c 1
 86 0 l 1
 105.5 54 122.6 125 138.5 200 c 2
 190.6 445 l 2
 206.5 520 219 588 223.1 645 c 1
 225.7 648 l 1
 225.7 648 242.1 645 276.1 645 c 2
 539.1 645 l 2
 560.1 645 583.3 646 599.7 648 c 1
 601.1 645 l 1
 597.1 631 594.2 622 592.5 614 c 0
 590.6 605 589.7 596 589 588 c 1
 586.1 584 l 1
 586.1 584 450.7 596 316.7 596 c 1
 304.6 572 280.2 462 276.6 445 c 2
 259.2 363 l 1
 377.2 363 424.2 368 484.3 373 c 1
 486.6 370 l 1
 482.7 361 479.6 351 477.7 342 c 0
 475.8 333 474.6 323 474.7 314 c 1
 471.1 311 l 1
 403.6 318 298.2 321 250.2 321 c 1
 224.5 200 l 2
EndSplineSet
Position2: "'cpsp' Versalabstaende 1" dx=2 dy=0 dh=5 dv=0
EndChar

StartChar: F
Encoding: 70 70 29
Width: 477
GlyphClass: 2
Flags: MW
AnchorPoint: "cedilla" 144.8 -1 basechar 0
AnchorPoint: "below" 177.4 -111 basechar 0
AnchorPoint: "top_punkt" 435.8 700 basechar 0
AnchorPoint: "above" 455.6 798 basechar 0
LayerCount: 2
Fore
SplineSet
538.1 645 m 2
 562.1 645 585.3 646 601.7 648 c 1
 603.1 645 l 1
 599.1 631 596.2 622 594.5 614 c 0
 592.6 605 591.7 596 591 588 c 1
 588.1 584 l 1
 588.1 584 452.7 596 318.7 596 c 1
 306.6 572 282.2 462 278.6 445 c 2
 261.2 363 l 1
 379.2 363 426.2 368 486.3 373 c 1
 488.6 370 l 1
 484.7 361 481.6 351 479.7 342 c 0
 477.8 333 476.6 323 476.7 314 c 1
 473.1 311 l 1
 405.6 318 300.2 321 252.2 321 c 1
 226.5 200 l 2
 210.6 125 198.1 57 194 0 c 1
 191.4 -3 l 1
 191.4 -3 175 0 141 0 c 0
 106 0 88.4 -3 88.4 -3 c 1
 88 0 l 1
 107.5 54 124.6 125 140.5 200 c 2
 192.6 445 l 2
 208.5 520 221 588 225.1 645 c 1
 227.7 648 l 1
 227.7 648 244.1 645 278.1 645 c 2
 538.1 645 l 2
EndSplineSet
Position2: "'cpsp' Versalabstaende 1" dx=2 dy=0 dh=5 dv=0
EndChar

StartChar: G
Encoding: 71 71 30
Width: 681
GlyphClass: 2
Flags: MW
AnchorPoint: "cedilla" 371.4 2 basechar 0
AnchorPoint: "below" 347.4 -111 basechar 0
AnchorPoint: "top_punkt" 517.8 750 basechar 0
AnchorPoint: "above" 538.6 798 basechar 0
LayerCount: 2
Fore
SplineSet
550.9 117 m 1
 565.4 192 577.2 250 581.3 307 c 1
 583.9 310 l 1
 583.9 310 600.3 307 634.3 307 c 0
 669.3 307 686.9 310 686.9 310 c 1
 687.3 307 l 1
 668 254 657 212 641.1 137 c 2
 639.8 131 l 2
 637.5 120 633.2 93.7 639.6 83 c 1
 639 80 l 1
 559.5 23.4 480.4 -10 363.9 -10 c 0
 162.9 -10 70.5 144 107.3 317 c 0
 154.1 537 320 658 510.9 658 c 0
 632.9 658 709.3 613 709.3 613 c 1
 710.7 610 l 1
 688.5 560.7 681.5 550 667.1 499 c 1
 656.9 498 l 1
 633.3 580 586.9 611 496.9 611 c 0
 361.9 611 251.7 512 214.5 337 c 0
 186.4 205 218.7 36 396.7 36 c 0
 450.7 36 500.9 42 541.7 74 c 1
 550.9 117 l 1
EndSplineSet
Position2: "'cpsp' Versalabstaende 1" dx=2 dy=0 dh=5 dv=0
EndChar

StartChar: grave
Encoding: 96 96 31
Width: 392
GlyphClass: 2
Flags: MW
LayerCount: 2
Fore
SplineSet
326.6 699 m 1
 369.8 573 l 2
 372.7 563 372.2 556 370.7 549 c 0
 369.6 544 361.4 538 353.4 538 c 0
 347.4 538 341.4 543 328.6 558 c 2
 237.8 667 l 1
 242.1 678 l 1
 251.4 684 278 701 312 701 c 0
 317 701 322.8 700 326.6 699 c 1
EndSplineSet
Colour: ff00ff
EndChar

StartChar: ograve
Encoding: 242 242 32
Width: 490
GlyphClass: 2
Flags: MW
AnchorPoint: "below" 240.1 -107 basechar 0
AnchorPoint: "ogonek" 411.6 44 basechar 0
AnchorPoint: "cedilla" 254.5 -3 basechar 0
LayerCount: 2
Fore
SplineSet
146 346.3 m 0
 191.7 399 260.5 439 340.3 439 c 0
 463.4 439 506 359.6 506 274.2 c 0
 506 184 458.8 86.8 385 33 c 0
 345.5 4.2 297.5 -10 242.9 -10 c 0
 130 -10 74.3 65.6 74.3 155.7 c 0
 74.3 236.8 107 301.4 146 346.3 c 0
326.6 398 m 0
 251 398 193 315 174.5 228 c 0
 170.1 207.4 167.1 183.8 167.1 160.2 c 0
 167.1 95.5 184.4 31 260.6 31 c 0
 288.7 31 327.2 43.5 358.6 83 c 0
 389.1 121.4 416.6 176 416.6 282.5 c 0
 416.6 357.3 388.3 398 326.6 398 c 0
EndSplineSet
Refer: 31 96 N 1 0 0 1 35.9 -28 2
Colour: ff00ff
EndChar

StartChar: divide
Encoding: 247 247 37
Width: 527
GlyphClass: 2
Flags: MW
LayerCount: 2
Fore
SplineSet
296.2 366.9 m 1
 297 370.2 l 1
 309.5 392.4 324.3 405.2 351.8 415.5 c 1
 355.2 415.5 l 1
 377.6 406.7 388.1 393.9 390.8 370.2 c 1
 390.1 366.9 l 1
 375.8 339.9 360.1 327.5 335.2 321.6 c 1
 331.9 321.6 l 1
 307 327.5 297.6 338.8 296.2 366.9 c 1
239.3 98.9 m 1
 240 102.2 l 1
 252.5 124.4 267.4 137.2 294.9 147.5 c 1
 298.2 147.5 l 1
 320.6 138.7 331.2 125.9 333.9 102.2 c 1
 333.1 98.9 l 1
 318.8 71.9 303.2 59.5 278.3 53.6 c 1
 274.9 53.6 l 1
 250 59.5 240.7 70.8 239.3 98.9 c 1
EndSplineSet
Refer: 1205 8722 N 1 0 0 1 0 0 2
Colour: ff00ff
EndChar

StartChar: Edotaccent
Encoding: 278 278 42
Width: 522
GlyphClass: 2
Flags: MW
LayerCount: 2
Fore
SplineSet
386.3 740 m 0
 392 767 421.1 791 448.1 791 c 0
 475.1 791 494 767 488.3 740 c 0
 482.6 713 453.5 689 426.5 689 c 0
 399.5 689 380.6 713 386.3 740 c 0
EndSplineSet
Refer: 28 69 N 1 0 0 1 0 0 2
Position2: "'cpsp' Versalabstaende 1" dx=2 dy=0 dh=5 dv=0
Colour: ff00ff
EndChar

StartChar: Eogonek
Encoding: 280 280 44
Width: 522
GlyphClass: 2
Flags: MW
LayerCount: 2
Fore
SplineSet
296.4 -224 m 0
 243.4 -224 210 -193 221.5 -139 c 0
 231.6 -91.5 283.9 -33.4 351.2 0 c 1
 139 0 l 2
 104 0 86.4 -3 86.4 -3 c 1
 86 0 l 1
 105.5 54 122.6 125 138.5 200 c 2
 190.6 445 l 2
 206.5 520 219 588 223.1 645 c 1
 225.7 648 l 1
 225.7 648 242.1 645 276.1 645 c 2
 539.1 645 l 2
 560.1 645 583.3 646 599.7 648 c 1
 601.1 645 l 1
 597.1 631 594.2 622 592.5 614 c 0
 590.6 605 589.7 596 589 588 c 1
 586.1 584 l 1
 586.1 584 450.7 596 316.7 596 c 1
 304.6 572 280.2 462 276.6 445 c 2
 259.2 363 l 1
 377.2 363 424.2 368 484.3 373 c 1
 486.6 370 l 1
 482.7 361 479.6 351 477.7 342 c 0
 475.8 333 474.6 323 474.7 314 c 1
 471.1 311 l 1
 403.6 318 298.2 321 250.2 321 c 1
 224.5 200 l 2
 220.9 183 199.6 78 201.5 54 c 1
 335.5 54 486 66 486 66 c 1
 487.2 62 l 1
 484.5 54 480.3 39 478.2 29 c 0
 476.1 19 476 14 474 0 c 1
 471.4 -3 l 1
 461.6 -1.7 449 -0.9 435.7 -0.4 c 1
 360 -6.4 294.6 -77.2 284.2 -126 c 0
 277.4 -158 293.7 -185 329.7 -185 c 0
 359.7 -185 382.8 -170 407.3 -149 c 1
 420.6 -157 l 1
 386.6 -204 332.4 -224 296.4 -224 c 0
EndSplineSet
Position2: "'cpsp' Versalabstaende 1" dx=2 dy=0 dh=5 dv=0
Colour: ff80cc
EndChar

StartChar: eogonek
Encoding: 281 281 45
Width: 437
GlyphClass: 2
Flags: MW
LayerCount: 2
Fore
SplineSet
164 211 m 1
 240 218 398 260 398 371 c 0
 398 400 373 411 338 411 c 0
 289 411 198 363 164 211 c 1
468 370 m 0
 468 332 433 219 159 185 c 1
 158 177 158 170 158 165 c 0
 158 74 212 36 257 36 c 0
 305 36 349 64 402 122 c 1
 424 106 l 1
 399 71 372 44 342 24 c 1
 302 -7 232 -69 232 -125 c 0
 232 -148 251 -170 284 -170 c 0
 314 -170 333 -156 358 -134 c 1
 372 -141 l 1
 335 -186 295 -208 254 -208 c 0
 206 -208 171 -186 171 -142 c 0
 171 -93 212 -46 255 -10 c 1
 244 -11 233 -12 221 -12 c 0
 119 -12 75 57 75 142 c 0
 75 269 189 442 360 442 c 0
 441 442 468 405 468 370 c 0
EndSplineSet
Colour: ff00ff
EndChar

StartChar: Ecaron
Encoding: 282 282 46
Width: 522
GlyphClass: 2
Flags: MW
LayerCount: 2
Fore
SplineSet
416.2 697 m 1
 394.1 734 365.3 764 335.3 792 c 1
 355.6 812 l 1
 391 795 420.9 776 448.6 751 c 1
 491.1 777 527.2 796 568.6 812 c 1
 579.3 792 l 1
 535.1 763 496.4 731 459.2 697 c 1
 416.2 697 l 1
EndSplineSet
Refer: 28 69 N 1 0 0 1 0 0 2
Position2: "'cpsp' Versalabstaende 1" dx=2 dy=0 dh=5 dv=0
Colour: ff00ff
EndChar

StartChar: Gcircumflex
Encoding: 284 284 48
Width: 699
GlyphClass: 2
Flags: MW
LayerCount: 2
Fore
SplineSet
556.1 805 m 1
 578.4 769 606.8 738 637.1 711 c 1
 616.7 690 l 1
 581.5 708 551.5 727 523.8 752 c 1
 481.1 725 445.3 707 403.7 690 c 1
 394.1 711 l 1
 437.1 739 474.9 771 513.1 805 c 1
 556.1 805 l 1
570.9 117 m 1
 585.4 192 597.2 250 601.3 307 c 1
 603.9 310 l 1
 603.9 310 620.3 307 654.3 307 c 0
 689.3 307 706.9 310 706.9 310 c 1
 707.3 307 l 1
 688 254 677 212 661.1 137 c 2
 659.8 131 l 2
 657.5 120 653.2 93.7 659.6 83 c 1
 659 80 l 1
 579.5 23.4 490.4 -10 373.9 -10 c 0
 172.9 -10 60.5 134 97.3 307 c 0
 144.1 527 348.9 658 520.9 658 c 0
 642.9 658 729.3 613 729.3 613 c 1
 730.7 610 l 1
 708.5 560.7 701.5 550 687.1 499 c 1
 676.9 498 l 1
 653.3 580 586.9 611 496.9 611 c 0
 361.9 611 241.7 502 204.5 327 c 0
 176.4 195 228.7 36 406.7 36 c 0
 460.7 36 520.9 42 561.7 74 c 1
 570.9 117 l 1
EndSplineSet
Position2: "'cpsp' Versalabstaende 1" dx=2 dy=0 dh=5 dv=0
Colour: ff00ff
EndChar

StartChar: Gbreve
Encoding: 286 286 50
Width: 699
GlyphClass: 2
Flags: MW
LayerCount: 2
Fore
SplineSet
570.9 117 m 1
 585.4 192 597.2 250 601.3 307 c 1
 603.9 310 l 1
 603.9 310 620.3 307 654.3 307 c 0
 689.3 307 706.9 310 706.9 310 c 1
 707.3 307 l 1
 688 254 677 212 661.1 137 c 2
 659.8 131 l 2
 657.5 120 653.2 93.7 659.6 83 c 1
 659 80 l 1
 579.5 23.4 490.4 -10 373.9 -10 c 0
 172.9 -10 60.5 134 97.3 307 c 0
 144.1 527 348.9 658 520.9 658 c 0
 642.9 658 729.3 613 729.3 613 c 1
 730.7 610 l 1
 708.5 560.7 701.5 550 687.1 499 c 1
 676.9 498 l 1
 653.3 580 586.9 611 496.9 611 c 0
 361.9 611 241.7 502 204.5 327 c 0
 176.4 195 228.7 36 406.7 36 c 0
 460.7 36 520.9 42 561.7 74 c 1
 570.9 117 l 1
EndSplineSet
Refer: 1735 860 N 1 0 0 1 564.7 149 2
Position2: "'cpsp' Versalabstaende 1" dx=2 dy=0 dh=5 dv=0
Colour: ff00ff
EndChar

StartChar: Gdotaccent
Encoding: 288 288 52
Width: 699
GlyphClass: 2
Flags: MW
LayerCount: 2
Fore
SplineSet
570.9 117 m 1
 585.4 192 597.2 250 601.3 307 c 1
 603.9 310 l 1
 603.9 310 620.3 307 654.3 307 c 0
 689.3 307 706.9 310 706.9 310 c 1
 707.3 307 l 1
 688 254 677 212 661.1 137 c 2
 659.8 131 l 2
 657.5 120 653.2 93.7 659.6 83 c 1
 659 80 l 1
 579.5 23.4 490.4 -10 373.9 -10 c 0
 172.9 -10 60.5 134 97.3 307 c 0
 144.1 527 348.9 658 520.9 658 c 0
 642.9 658 729.3 613 729.3 613 c 1
 730.7 610 l 1
 708.5 560.7 701.5 550 687.1 499 c 1
 676.9 498 l 1
 653.3 580 586.9 611 496.9 611 c 0
 361.9 611 241.7 502 204.5 327 c 0
 176.4 195 228.7 36 406.7 36 c 0
 460.7 36 520.9 42 561.7 74 c 1
 570.9 117 l 1
EndSplineSet
Refer: 673 775 N 1 0 0 1 586.7 149 2
Position2: "'cpsp' Versalabstaende 1" dx=2 dy=0 dh=5 dv=0
Colour: ff00ff
EndChar

StartChar: Hbar
Encoding: 294 294 58
Width: 700
GlyphClass: 2
Flags: MW
LayerCount: 2
Fore
SplineSet
579.2 321 m 1
 257.2 321 l 1
 231.5 200 l 2
 215.6 125 203.1 57 199 0 c 1
 196.4 -3 l 1
 196.4 -3 180 0 146 0 c 0
 111 0 93.4 -3 93.4 -3 c 1
 93 0 l 1
 112.5 54 129.6 125 145.5 200 c 2
 197.6 445 l 2
 202.5 468 207 490.4 211.1 512 c 1
 149.8 512 l 1
 157.1 546 l 1
 217.3 546 l 1
 223.4 581.7 227.9 614.9 230.1 645 c 1
 232.7 648 l 1
 232.7 648 249.1 645 283.1 645 c 0
 318.1 645 335.7 648 335.7 648 c 1
 336.1 645 l 1
 325.8 616.6 316.1 582.8 306.8 546 c 1
 625.3 546 l 1
 631.4 581.7 635.9 614.9 638.1 645 c 1
 640.7 648 l 1
 640.7 648 657.1 645 691.1 645 c 0
 726.1 645 743.7 648 743.7 648 c 1
 744.1 645 l 1
 733.8 616.6 724.1 582.8 714.8 546 c 1
 772.1 546 l 1
 764.8 512 l 1
 706.5 512 l 1
 701.4 490.2 696.4 467.8 691.6 445 c 2
 639.5 200 l 2
 623.6 125 611.1 57 607 0 c 1
 604.4 -3 l 1
 604.4 -3 588 0 554 0 c 0
 519 0 501.4 -3 501.4 -3 c 1
 501 0 l 1
 520.5 54 537.6 125 553.5 200 c 2
 579.2 321 l 1
588.2 363 m 1
 605.6 445 l 2
 610.5 468 615 490.4 619.1 512 c 1
 298.5 512 l 1
 293.4 490.2 288.4 467.8 283.6 445 c 2
 266.2 363 l 1
 588.2 363 l 1
EndSplineSet
Position2: "'cpsp' Versalabstaende 1" dx=2 dy=0 dh=5 dv=0
Colour: ff80cc
EndChar

StartChar: hbar
Encoding: 295 295 59
Width: 520
GlyphClass: 2
Flags: MW
LayerCount: 2
Fore
SplineSet
396.3 180 m 2
 418.6 285 l 2
 435.8 366 420.2 382 364.2 382 c 0
 335.2 382 286.7 356 228.7 309 c 1
 201.3 180 l 2
 185.1 103.8 176.6 57 173 0 c 1
 170.4 -3 l 1
 170.4 -3 157.3 0 123 0 c 0
 88 0 73.4 -3 73.4 -3 c 1
 73 0 l 1
 92.9 53.5 105.5 105.5 121.3 180 c 2
 185.2 481 l 2
 188.7 497.7 192.2 514.1 195.3 530 c 1
 138.7 530 l 1
 146.9 569 l 1
 202.6 569 l 1
 209.8 609.4 214.6 644.6 215.4 670 c 1
 218.1 673 l 1
 259.2 676 285.2 688 312.4 698 c 1
 318.7 698 320.7 695 319.2 688 c 0
 305.4 647.2 294.9 610.7 284.8 569 c 1
 461.9 569 l 1
 453.7 530 l 1
 275.8 530 l 1
 273.7 520.7 271.6 511.1 269.5 501 c 2
 239.5 360 l 1
 320.7 427 382.3 439 421.3 439 c 0
 493.3 439 520.3 387 498.4 284 c 2
 476.3 180 l 2
 460.1 103.8 451.6 57 448 0 c 1
 445.4 -3 l 1
 445.4 -3 432.3 0 398 0 c 0
 363 0 348.4 -3 348.4 -3 c 1
 348 0 l 1
 367.9 53.5 380.5 105.5 396.3 180 c 2
EndSplineSet
Colour: ff80cc
EndChar

StartChar: Itilde
Encoding: 296 296 60
Width: 293
GlyphClass: 2
Flags: MW
LayerCount: 2
Fore
SplineSet
200.6 445 m 2
 216.5 520 229 588 233.1 645 c 1
 235.7 648 l 1
 235.7 648 252.1 645 286.1 645 c 0
 321.1 645 338.7 648 338.7 648 c 1
 339.1 645 l 1
 319.8 592 302.5 520 286.6 445 c 2
 234.5 200 l 2
 218.6 125 206.1 57 202 0 c 1
 199.4 -3 l 1
 199.4 -3 183 0 149 0 c 0
 114 0 96.4 -3 96.4 -3 c 1
 96 0 l 1
 115.5 54 132.6 125 148.5 200 c 2
 200.6 445 l 2
EndSplineSet
Refer: 1683 816 N 1 0 0 1 527.1 819 2
Position2: "'cpsp' Versalabstaende 1" dx=2 dy=0 dh=5 dv=0
Colour: ff00ff
EndChar

StartChar: itilde
Encoding: 297 297 61
Width: 268
GlyphClass: 2
Flags: MW
LayerCount: 2
Fore
SplineSet
316.3 570 m 0
 336.1 570 350.8 580 372.3 622 c 1
 392.6 616 l 1
 369 556 336.6 526 295.2 526 c 0
 275.4 526 259 538 243.1 552 c 0
 229.2 563 214.5 574 199.2 574 c 0
 175.8 574 160.9 559 144.9 526 c 1
 124.4 531 l 1
 149.5 590 176.6 620 215.3 620 c 0
 242.3 620 259.1 606 274.1 592 c 0
 286 580 299.2 570 316.3 570 c 0
144 235 m 2
 159.9 310 170.3 368 171.4 411 c 1
 174 414 l 1
 214.6 417 241.2 429 268.3 439 c 1
 274.3 439 276.7 436 275.2 429 c 0
 254.2 368 243.3 326 227.4 251 c 2
 212.3 180 l 2
 196.1 104 188.1 57 184 0 c 1
 181.4 -3 l 1
 181.4 -3 168 0 134 0 c 0
 99 0 84.4 -3 84.4 -3 c 1
 84 0 l 1
 103.5 54 116.4 105 132.3 180 c 2
 144 235 l 2
EndSplineSet
Colour: ff00ff
EndChar

StartChar: Imacron
Encoding: 298 298 62
Width: 293
GlyphClass: 2
Flags: MW
LayerCount: 2
Fore
SplineSet
420.8 733 m 2
 176.8 733 l 2
 167.8 733 165.5 741 167 748 c 0
 169.6 760 184.2 777 195.2 777 c 2
 440.2 777 l 2
 450.2 777 452.5 769 451.2 763 c 0
 448.6 751 433.8 733 420.8 733 c 2
200.6 445 m 2
 216.5 520 229 588 233.1 645 c 1
 235.7 648 l 1
 235.7 648 252.1 645 286.1 645 c 0
 321.1 645 338.7 648 338.7 648 c 1
 339.1 645 l 1
 319.8 592 302.5 520 286.6 445 c 2
 234.5 200 l 2
 218.6 125 206.1 57 202 0 c 1
 199.4 -3 l 1
 199.4 -3 183 0 149 0 c 0
 114 0 96.4 -3 96.4 -3 c 1
 96 0 l 1
 115.5 54 132.6 125 148.5 200 c 2
 200.6 445 l 2
EndSplineSet
Position2: "'cpsp' Versalabstaende 1" dx=2 dy=0 dh=5 dv=0
Colour: ff00ff
EndChar

StartChar: imacron
Encoding: 299 299 63
Width: 268
GlyphClass: 2
Flags: MW
LayerCount: 2
Fore
SplineSet
354.3 538 m 2
 134.7 538 l 2
 126.6 538 124.6 546 126.1 553 c 0
 128.7 565 142.2 582 152.1 582 c 2
 372.6 582 l 2
 381.6 582 383.5 574 382.2 568 c 0
 379.7 556 366 538 354.3 538 c 2
144 235 m 2
 159.9 310 170.3 368 171.4 411 c 1
 174 414 l 1
 214.6 417 241.2 429 268.3 439 c 1
 274.3 439 276.7 436 275.2 429 c 0
 254.2 368 243.3 326 227.4 251 c 2
 212.3 180 l 2
 196.1 104 188.1 57 184 0 c 1
 181.4 -3 l 1
 181.4 -3 168 0 134 0 c 0
 99 0 84.4 -3 84.4 -3 c 1
 84 0 l 1
 103.5 54 116.4 105 132.3 180 c 2
 144 235 l 2
EndSplineSet
Colour: ff00ff
EndChar

StartChar: Ibreve
Encoding: 300 300 64
Width: 293
GlyphClass: 2
Flags: MW
LayerCount: 2
Fore
SplineSet
456.1 805 m 1
 435 734 362.1 692 296.1 692 c 0
 223.1 692 174.2 735 184.1 805 c 1
 212.1 805 l 1
 211.8 766 254.1 744 307.1 744 c 0
 356.1 744 412.8 766 428.1 805 c 1
 456.1 805 l 1
200.6 445 m 2
 216.5 520 229 588 233.1 645 c 1
 235.7 648 l 1
 235.7 648 252.1 645 286.1 645 c 0
 321.1 645 338.7 648 338.7 648 c 1
 339.1 645 l 1
 319.8 592 302.5 520 286.6 445 c 2
 234.5 200 l 2
 218.6 125 206.1 57 202 0 c 1
 199.4 -3 l 1
 199.4 -3 183 0 149 0 c 0
 114 0 96.4 -3 96.4 -3 c 1
 96 0 l 1
 115.5 54 132.6 125 148.5 200 c 2
 200.6 445 l 2
EndSplineSet
Position2: "'cpsp' Versalabstaende 1" dx=2 dy=0 dh=5 dv=0
Colour: ff00ff
EndChar

StartChar: ibreve
Encoding: 301 301 65
Width: 268
GlyphClass: 2
Flags: MW
LayerCount: 2
Fore
SplineSet
167.5 650 m 1
 167.3 597 198.9 560 247.5 560 c 0
 294.3 560 341.8 592 361.9 650 c 1
 383.9 638 l 1
 356.6 552 289.7 503 236.6 503 c 0
 173.6 503 137.2 553 140.9 638 c 1
 167.5 650 l 1
EndSplineSet
Refer: 419 305 N 1 0 0 1 0 0 2
Colour: ff00ff
EndChar

StartChar: Iogonek
Encoding: 302 302 66
Width: 293
GlyphClass: 2
Flags: MW
LayerCount: 2
Fore
SplineSet
44.2 -225 m 0
 -8.8 -225 -42.3 -194 -30.8 -140 c 0
 -20.8 -93.2 30.3 -36 96.3 -2.4 c 1
 96 0 l 1
 115.5 54 132.6 125 148.5 200 c 2
 200.6 445 l 2
 216.5 520 229 588 233.1 645 c 1
 235.7 648 l 1
 235.7 648 252.1 645 286.1 645 c 0
 321.1 645 338.7 648 338.7 648 c 1
 339.1 645 l 1
 319.8 592 302.5 520 286.6 445 c 2
 234.5 200 l 2
 218.6 125 206.1 57 202 0 c 1
 199.4 -3 l 1
 199.4 -3 194.6 -2.1 184.8 -1.3 c 1
 108.5 -6.6 42.4 -77.9 32 -127 c 0
 25.2 -159 41.5 -186 77.5 -186 c 0
 107.5 -186 131.6 -171 155.1 -150 c 1
 168.4 -158 l 1
 134.4 -205 80.2 -225 44.2 -225 c 0
EndSplineSet
Position2: "'cpsp' Versalabstaende 1" dx=2 dy=0 dh=5 dv=0
Colour: ff80cc
EndChar

StartChar: iogonek
Encoding: 303 303 67
Width: 268
GlyphClass: 2
Flags: MW
LayerCount: 2
Fore
SplineSet
22.2 -225 m 0
 -31.8 -225 -64.3 -194 -52.8 -140 c 0
 -42.3 -90.5 13.6 -29.4 85.1 3.1 c 1
 104 56 116.7 106.4 132.3 180 c 2
 144 235 l 2
 159.9 310 170.3 368 171.4 411 c 1
 174 414 l 1
 214.6 417 241.2 429 268.3 439 c 1
 274.3 439 276.7 436 275.2 429 c 0
 254.2 368 243.3 326 227.4 251 c 2
 212.3 180 l 2
 196.1 104 188.1 57 184 0 c 1
 181.4 -3 l 1
 181.4 -3 176.7 -2 165.9 -1.1 c 1
 88 -4.1 20.6 -77.1 10 -127 c 0
 3.2 -159 19.5 -186 55.5 -186 c 0
 84.5 -186 108.6 -171 132.1 -150 c 1
 146.4 -158 l 1
 112.4 -205 57.2 -225 22.2 -225 c 0
EndSplineSet
Refer: 673 775 N 1 0 0 1 306.8 -34 2
Colour: ff80cc
EndChar

StartChar: Idotaccent
Encoding: 304 304 68
Width: 293
GlyphClass: 2
Flags: MW
LayerCount: 2
Fore
SplineSet
254.4 750 m 0
 260.1 777 289.3 801 316.3 801 c 0
 343.3 801 362.2 777 356.5 750 c 0
 350.8 723 321.6 699 294.6 699 c 0
 267.6 699 248.7 723 254.4 750 c 0
200.6 445 m 2
 216.5 520 229 588 233.1 645 c 1
 235.7 648 l 1
 235.7 648 252.1 645 286.1 645 c 0
 321.1 645 338.7 648 338.7 648 c 1
 339.1 645 l 1
 319.8 592 302.5 520 286.6 445 c 2
 234.5 200 l 2
 218.6 125 206.1 57 202 0 c 1
 199.4 -3 l 1
 199.4 -3 183 0 149 0 c 0
 114 0 96.4 -3 96.4 -3 c 1
 96 0 l 1
 115.5 54 132.6 125 148.5 200 c 2
 200.6 445 l 2
EndSplineSet
Position2: "'cpsp' Versalabstaende 1" dx=2 dy=0 dh=5 dv=0
Colour: ff00ff
EndChar

StartChar: uni0408
Encoding: 1032 1032 69
Width: 385
GlyphClass: 2
Flags: MW
AnchorPoint: "above" 423.3 806 basechar 0
AnchorPoint: "top_punkt" 404.7 723 basechar 0
LayerCount: 2
Fore
SplineSet
264.8 258 m 2
 304.6 445 l 2
 320.5 520 333 588 337.1 645 c 1
 339.7 648 l 1
 339.7 648 356.1 645 390.1 645 c 0
 425.1 645 442.7 648 442.7 648 c 1
 443.1 645 l 1
 423.8 592 406.5 520 390.6 445 c 2
 355.5 280 l 2
 331.2 165.5 314.7 135 247 66 c 0
 194.5 12 135.9 -10 72.9 -10 c 0
 53.9 -10 36.7 -6 29.8 -1 c 1
 29.4 2 l 1
 44.4 21 62.2 57 74.9 84 c 1
 86.1 85 l 1
 92.8 65 107.6 50 136.6 50 c 0
 215.6 50 246.1 170 264.8 258 c 2
EndSplineSet
EndChar

StartChar: uni040C
Encoding: 1036 1036 70
Width: 632
GlyphClass: 2
Flags: MW
LayerCount: 2
Fore
SplineSet
601.3 820 m 1
 627.1 806.7 644.1 789.3 652.2 768 c 1
 495.9 710 l 2
 473 701 460.4 698 451.4 698 c 0
 442.4 698 437.9 705 439.6 713 c 0
 441.1 720 444.1 725 459 734 c 2
 601.3 820 l 1
EndSplineSet
Refer: 770 1050 N 1 0 0 1 0 0 2
Colour: ff00ff
EndChar

StartChar: uni040E
Encoding: 1038 1038 72
Width: 580
GlyphClass: 2
Flags: MW
LayerCount: 2
Fore
SplineSet
466.7 728 m 0
 499.7 728 526.4 745 530 762 c 0
 531.1 767 531.3 773 531.7 775 c 0
 534.9 790 548.1 805 571.1 805 c 0
 598.1 805 605.1 791 601.1 772 c 0
 590 720 526.2 697 460.2 697 c 0
 394.2 697 340 720 351.1 772 c 0
 355.1 791 368.1 805 395.1 805 c 0
 418.1 805 424.9 790 421.7 775 c 0
 421.3 773 419.1 767 418 762 c 0
 414.4 745 433.7 728 466.7 728 c 0
EndSplineSet
Refer: 83 1059 N 1 0 0 1 0 0 2
Colour: ff00ff
EndChar

StartChar: uni0414
Encoding: 1044 1044 74
Width: 708
GlyphClass: 2
Flags: MW
LayerCount: 2
Fore
SplineSet
434.4 44 m 2
 452.4 44 460.6 50 465.5 59 c 0
 477.6 83 499.9 183 503.5 200 c 2
 555.6 445 l 2
 559.2 462 579.9 564 578 588 c 1
 572.9 597 569.7 601 554.7 601 c 2
 440.7 601 l 2
 413.7 601 401.6 591 394.3 566 c 0
 364.8 465 327.8 361 301.3 293 c 0
 254.4 176 208.4 77 203.9 56 c 0
 201.3 44 214.4 44 228.4 44 c 2
 434.4 44 l 2
178 0 m 2
 98 0 72.2 -65 45.7 -138 c 1
 43 -141 l 1
 11 -141 l 1
 9.7 -138 l 1
 29.3 11 l 2
 31.4 21 38.2 29 63.8 32 c 0
 84.4 34.4 104.8 32 122 47 c 0
 153.5 73 186.8 145 252 301 c 1
 298.2 415 332.1 518 345.5 581 c 0
 350.2 603 351.8 625 353.1 645 c 1
 354.7 648 l 1
 354.7 648 381.1 645 415.1 645 c 2
 641.1 645 l 2
 675.1 645 693.7 648 693.7 648 c 1
 694.1 645 l 1
 674.6 591 657.5 520 641.6 445 c 2
 589.5 200 l 2
 566.1 90 561.4 35 594.8 32 c 0
 619.4 30 622.4 21 620.3 11 c 2
 576.7 -138 l 1
 574 -141 l 1
 542 -141 l 1
 540.7 -138 l 1
 545.2 -65 547 0 467 0 c 2
 178 0 l 2
EndSplineSet
EndChar

StartChar: uni0416
Encoding: 1046 1046 75
Width: 924
GlyphClass: 2
Flags: MW
LayerCount: 2
Fore
SplineSet
284.9 169 m 0
 247.8 117 219.5 73 157.1 -4 c 1
 135.5 -2 136 0 111 0 c 0
 88 0 50.5 -2 37.1 -4 c 1
 35 0 l 1
 133.9 89 142.8 140 244.4 237 c 0
 307.2 297 331 325 402.6 337 c 1
 403.3 340 l 1
 366.6 360 369.2 443 339.7 502 c 0
 315.9 550 285.9 569 263.9 569 c 0
 236.9 569 219.5 562 197.5 548 c 1
 187.1 551 l 1
 178.5 642 l 1
 184.7 648 l 1
 211.2 655 214.9 658 240.9 658 c 0
 314.9 658 357.1 593 384.9 531 c 0
 424.2 443.7 411.4 360.3 494.9 357.1 c 1
 513.6 445 l 2
 529.5 520 542 588 546.1 645 c 1
 548.7 648 l 1
 548.7 648 565.1 645 599.1 645 c 0
 634.1 645 651.7 648 651.7 648 c 1
 652.1 645 l 1
 632.8 592 615.5 520 599.6 445 c 2
 580.9 357.1 l 1
 665.7 360.3 688.5 443.7 764.9 531 c 0
 819.1 593 888.9 658 962.9 658 c 0
 988.9 658 991.2 655 1014.7 648 c 1
 1018.5 642 l 1
 971.1 551 l 1
 959.5 548 l 1
 943.5 562 928.9 569 901.9 569 c 0
 879.9 569 841.9 550 797.7 502 c 0
 743.2 443 710.6 360 665.3 340 c 1
 664.6 337 l 1
 731 325 743.2 297 780.4 237 c 0
 840.8 140 827.9 89 889 0 c 1
 885.1 -4 l 1
 872.5 -2 836 0 813 0 c 0
 788 0 787.5 -2 765.1 -4 c 1
 735.5 73 725.8 117 710.9 169 c 0
 687.9 245.8 671.3 303.1 571.2 311.6 c 1
 547.5 200 l 2
 531.6 125 519.1 57 515 0 c 1
 512.4 -3 l 1
 512.4 -3 496 0 462 0 c 0
 427 0 409.4 -3 409.4 -3 c 1
 409 0 l 1
 428.5 54 445.6 125 461.5 200 c 2
 485.2 311.6 l 1
 381.5 303.1 340.6 245.8 284.9 169 c 0
EndSplineSet
Colour: ff80cc
EndChar

StartChar: uni0417
Encoding: 1047 1047 76
Width: 542
GlyphClass: 2
Flags: MW
LayerCount: 2
Fore
SplineSet
253.3 25 m 0
 323.3 25 419.4 68 442.4 176 c 0
 453.2 227 437.4 336 320.4 336 c 2
 247.4 336 l 2
 236.4 336 230.9 343 233.2 354 c 0
 235.5 365 244.3 373 255.3 373 c 2
 302.3 373 l 2
 421.3 373 470.9 451 482.6 506 c 0
 496.8 573 443.6 624 381.6 624 c 0
 258.6 624 219.9 550 178.7 469 c 1
 149.1 471 l 1
 206.3 646 l 1
 293.3 646 330.9 658 390.9 658 c 0
 483.9 658 584.9 611 564.7 516 c 0
 547.9 437 494.2 387 416.5 360 c 1
 483.2 340 560.5 299 537.8 192 c 0
 505.7 41 360.4 -12 242.4 -12 c 0
 161.4 -12 119 19 93.1 43 c 0
 70.6 64 55.4 91 61.1 118 c 0
 66.6 144 82.1 165 105.1 165 c 0
 133.1 165 140.3 152 144.5 120 c 0
 152.5 59 177.3 25 253.3 25 c 0
EndSplineSet
EndChar

StartChar: uni0418
Encoding: 1048 1048 77
Width: 700
GlyphClass: 2
Flags: MW
LayerCount: 2
Fore
SplineSet
200.6 445 m 2
 216.5 520 229 588 233.1 645 c 1
 235.7 648 l 1
 235.7 648 252.1 645 286.1 645 c 0
 321.1 645 338.7 648 338.7 648 c 1
 339.1 645 l 1
 319.8 592 302.5 520 286.6 445 c 2
 234.5 200 l 2
 230.2 179.9 226.2 160.2 222.5 141.2 c 1
 627.9 555.5 l 1
 633.2 587.6 637.1 617.6 639.1 645 c 1
 641.7 648 l 1
 641.7 648 658.1 645 692.1 645 c 0
 727.1 645 744.7 648 744.7 648 c 1
 745.1 645 l 1
 725.8 592 708.5 520 692.6 445 c 2
 640.5 200 l 2
 624.6 125 612.1 57 608 0 c 1
 605.4 -3 l 1
 605.4 -3 589 0 555 0 c 0
 520 0 502.4 -3 502.4 -3 c 1
 502 0 l 1
 521.5 54 538.6 125 554.5 200 c 2
 606.6 445 l 2
 610.7 464.4 614.6 483.4 618.2 501.8 c 1
 212.9 87.5 l 1
 207.8 56.2 203.9 26.9 202 0 c 1
 199.4 -3 l 1
 199.4 -3 183 0 149 0 c 0
 114 0 96.4 -3 96.4 -3 c 1
 96 0 l 1
 115.5 54 132.6 125 148.5 200 c 2
 200.6 445 l 2
EndSplineSet
EndChar

StartChar: uni0419
Encoding: 1049 1049 78
Width: 700
GlyphClass: 2
Flags: MW
LayerCount: 2
Fore
SplineSet
505.7 728 m 0
 538.7 728 565.4 745 569 762 c 0
 570.1 767 570.3 773 570.7 775 c 0
 573.9 790 587.1 805 610.1 805 c 0
 637.1 805 644.1 791 640.1 772 c 0
 629 720 565.2 697 499.2 697 c 0
 433.2 697 379 720 390.1 772 c 0
 394.1 791 407.1 805 434.1 805 c 0
 457.1 805 463.9 790 460.7 775 c 0
 460.3 773 458.1 767 457 762 c 0
 453.4 745 472.7 728 505.7 728 c 0
EndSplineSet
Refer: 77 1048 N 1 0 0 1 0 0 2
Colour: ff00ff
EndChar

StartChar: uni0421
Encoding: 1057 1057 81
Width: 650
GlyphClass: 2
Flags: MW
LayerCount: 2
Fore
SplineSet
504.9 658 m 0
 626.9 658 713.3 613 713.3 613 c 1
 714.7 610 l 1
 692.5 560.7 685.5 550 671.1 499 c 1
 660.9 498 l 1
 637.3 580 570.9 611 480.9 611 c 0
 398.9 611 254.1 537 211 334 c 0
 180 188 213.7 41 368.7 41 c 0
 461.7 41 534.2 62 621.8 140 c 1
 641.6 125 l 1
 554.7 36 445.9 -10 348.9 -10 c 0
 133.9 -10 69.8 154 104 315 c 0
 145.9 512 335.9 658 504.9 658 c 0
EndSplineSet
Colour: ff00ff
EndChar

StartChar: uni0423
Encoding: 1059 1059 83
Width: 580
GlyphClass: 2
Flags: MW
LayerCount: 2
Fore
SplineSet
376.2 161 m 2
 305.4 54.1 239.3 -22 149.3 -22 c 0
 107.3 -22 66.2 1 73 33 c 0
 79 61 98.9 84 130.9 84 c 0
 144.9 84 165.4 77 172.8 65 c 0
 177.9 56 190.6 45 204.6 45 c 0
 247.3 45 271.2 81.1 308 138.3 c 1
 264.6 339.9 206.4 567.8 183.7 648 c 1
 200.1 645 226.1 645 243.1 645 c 0
 260.1 645 281.1 645 298.7 648 c 1
 300.9 618 324.1 470.1 374.8 242.5 c 1
 466.7 386.9 564.9 546.4 613.7 648 c 1
 625.1 645 652.1 645 663.1 645 c 0
 674.1 645 686.1 645 698.7 648 c 1
 376.2 161 l 2
EndSplineSet
EndChar

StartChar: uni0426
Encoding: 1062 1062 85
Width: 639
GlyphClass: 2
Flags: MW
LayerCount: 2
Fore
SplineSet
586.5 200 m 2
 563.1 90 557.7 35 590.8 32 c 0
 615.2 29.8 618.4 20.7 616.3 11 c 2
 572.7 -138 l 1
 570 -141 l 1
 538 -141 l 1
 536.7 -138 l 1
 541.2 -65.4 542.7 0 463 0 c 2
 132 0 l 2
 98 0 79.4 -3 79.4 -3 c 1
 79 0 l 1
 98.5 54 115.6 125 131.5 200 c 2
 183.6 445 l 2
 199.5 520 211 588 215.1 645 c 1
 217.7 648 l 1
 217.7 648 235.1 645 269.1 645 c 0
 304.1 645 321.7 648 321.7 648 c 1
 322.1 645 l 1
 302.8 592 285.5 520 269.6 445 c 2
 217.5 200 l 2
 213.9 183 193.6 83 195.5 59 c 0
 196.6 50 202.4 44 220.4 44 c 2
 431.4 44 l 2
 449.4 44 457.6 50 462.5 59 c 0
 474.6 83 496.9 183 500.5 200 c 2
 552.6 445 l 2
 568.5 520 581.8 592 585.1 645 c 1
 586.7 648 l 1
 586.7 648 603.1 645 638.1 645 c 0
 672.1 645 690.7 648 690.7 648 c 1
 692.1 645 l 1
 672 588 654.5 520 638.6 445 c 2
 586.5 200 l 2
EndSplineSet
EndChar

StartChar: uni0427
Encoding: 1063 1063 86
Width: 633
GlyphClass: 2
Flags: MW
LayerCount: 2
Fore
SplineSet
274.6 445 m 2
 268.6 417 l 2
 251.2 335 285.5 308 357.5 308 c 0
 386 308 449.3 311.9 521 353 c 1
 540.6 445 l 2
 556.5 520 569 588 573.1 645 c 1
 575.7 648 l 1
 575.7 648 592.1 645 626.1 645 c 0
 661.1 645 678.7 648 678.7 648 c 1
 679.1 645 l 1
 659.8 592 642.5 520 626.6 445 c 2
 574.5 200 l 2
 558.6 125 546.1 57 542 0 c 1
 539.4 -3 l 1
 539.4 -3 523 0 489 0 c 0
 454 0 436.4 -3 436.4 -3 c 1
 436 0 l 1
 455.5 54 472.6 125 488.5 200 c 2
 511.7 308.9 l 1
 429.3 259.5 359.1 244 301.9 244 c 0
 187.9 244 162.7 323 183.7 422 c 2
 188.6 445 l 2
 204.5 520 217 588 221.1 645 c 1
 223.7 648 l 1
 223.7 648 240.1 645 274.1 645 c 0
 309.1 645 326.7 648 326.7 648 c 1
 327.1 645 l 1
 307.8 592 290.5 520 274.6 445 c 2
EndSplineSet
EndChar

StartChar: uni0428
Encoding: 1064 1064 87
Width: 960
GlyphClass: 2
Flags: MW
LayerCount: 2
Fore
SplineSet
901.5 200 m 2
 885.9 125 873.1 57 869 0 c 1
 866.4 -3 l 1
 866.4 -3 850 0 816 0 c 2
 147 0 l 2
 112 0 93.4 -3 93.4 -3 c 1
 93 0 l 1
 112.5 54 129.6 125 145.5 200 c 2
 197.6 445 l 2
 213.5 520 225 588 229.1 645 c 1
 231.7 648 l 1
 231.7 648 249.1 645 283.1 645 c 0
 318.1 645 335.7 648 335.7 648 c 1
 336.1 645 l 1
 316.8 592 299.5 520 283.6 445 c 2
 231.5 200 l 2
 227.9 183 207.6 83 209.5 59 c 0
 210.6 50 216.4 44 234.4 44 c 2
 410.4 44 l 2
 428.4 44 436.6 50 441.5 59 c 0
 453.6 83 475.9 183 479.5 200 c 2
 531.6 445 l 2
 547.5 520 559 588 563.1 645 c 1
 565.7 648 l 1
 565.7 648 583.1 645 617.1 645 c 0
 652.1 645 669.7 648 669.7 648 c 1
 670.1 645 l 1
 650.8 592 633.5 520 617.6 445 c 2
 565.5 200 l 2
 561.9 183 541.6 83 543.5 59 c 0
 544.6 50 550.4 44 568.4 44 c 2
 746.4 44 l 2
 764.4 44 772.6 50 777.5 59 c 0
 789.6 83 811.9 183 815.5 200 c 2
 867.6 445 l 2
 883.5 520 896.8 592 900.1 645 c 1
 901.7 648 l 1
 901.7 648 918.1 645 953.1 645 c 0
 987.1 645 1005.7 648 1005.7 648 c 1
 1007.1 645 l 1
 987 588 969.5 520 953.6 445 c 2
 901.5 200 l 2
EndSplineSet
EndChar

StartChar: uni0429
Encoding: 1065 1065 88
Width: 948
GlyphClass: 2
Flags: MW
LayerCount: 2
Fore
SplineSet
147 0 m 2
 112 0 93.4 -3 93.4 -3 c 1
 93 0 l 1
 112.5 54 129.6 125 145.5 200 c 2
 197.6 445 l 2
 213.5 520 225 588 229.1 645 c 1
 231.7 648 l 1
 231.7 648 249.1 645 283.1 645 c 0
 318.1 645 335.7 648 335.7 648 c 1
 336.1 645 l 1
 316.8 592 299.5 520 283.6 445 c 2
 231.5 200 l 2
 227.9 183 207.6 83 209.5 59 c 0
 210.6 50 216.4 44 234.4 44 c 2
 410.4 44 l 2
 428.4 44 436.6 50 441.5 59 c 0
 453.6 83 475.9 183 479.5 200 c 2
 531.6 445 l 2
 547.5 520 559 588 563.1 645 c 1
 565.7 648 l 1
 565.7 648 583.1 645 617.1 645 c 0
 652.1 645 669.7 648 669.7 648 c 1
 670.1 645 l 1
 650.8 592 633.5 520 617.6 445 c 2
 565.5 200 l 2
 561.9 183 541.6 83 543.5 59 c 0
 544.6 50 550.4 44 568.4 44 c 2
 746.4 44 l 2
 764.4 44 772.6 50 777.5 59 c 0
 789.6 83 811.9 183 815.5 200 c 2
 867.6 445 l 2
 883.5 520 896.8 592 900.1 645 c 1
 901.7 648 l 1
 901.7 648 918.1 645 953.1 645 c 0
 987.1 645 1005.7 648 1005.7 648 c 1
 1007.1 645 l 1
 987 588 969.5 520 953.6 445 c 2
 901.5 200 l 2
 878.1 90 872.7 35 905.8 32 c 0
 930.2 29.8 933.4 20.7 931.3 11 c 2
 887.7 -138 l 1
 885 -141 l 1
 853 -141 l 1
 851.7 -138 l 1
 856.2 -65.4 857.7 0 778 0 c 2
 147 0 l 2
EndSplineSet
EndChar

StartChar: uni042A
Encoding: 1066 1066 89
Width: 717
GlyphClass: 2
Flags: MW
LayerCount: 2
Fore
SplineSet
417.9 329 m 1
 365.9 84 l 2
 358.9 51 357 33 412 33 c 0
 564 33 612.7 121 625.9 183 c 0
 638.7 243 630.9 329 502.9 329 c 2
 417.9 329 l 1
439.1 645 m 2
 477.1 645 494.7 648 494.7 648 c 1
 495.1 645 l 1
 475.8 592 460.6 520 442.6 445 c 1
 427.3 373 l 1
 485.3 373 l 2
 731.3 373 738.8 272 719.9 183 c 0
 684.4 16 523.6 -2 402.6 -2 c 0
 366.6 -2 336 0 307 0 c 0
 273 0 252.4 -3 252.4 -3 c 1
 252 0 l 1
 271.5 54 288.6 125 304.5 200 c 2
 356.6 445 l 2
 360 462 379.4 557 377.5 581 c 1
 243.5 581 172.9 569 172.9 569 c 1
 171.8 573 l 1
 177 588 183.1 617 187.1 645 c 1
 189.7 648 l 1
 205.3 646 228.1 645 249.1 645 c 2
 439.1 645 l 2
EndSplineSet
EndChar

StartChar: uni042B
Encoding: 1067 1067 90
Width: 786
GlyphClass: 2
Flags: MW
LayerCount: 2
Fore
SplineSet
692.8 446 m 2
 708.7 521 721.2 589 725.3 646 c 1
 727.9 649 l 1
 727.9 649 744.3 646 778.3 646 c 0
 813.3 646 830.9 649 830.9 649 c 1
 831.3 646 l 1
 812 593 794.7 521 778.8 446 c 2
 726.7 201 l 2
 710.8 126 698.3 58 694.2 1 c 1
 691.6 -2 l 1
 691.6 -2 675.2 1 641.2 1 c 0
 606.2 1 588.6 -2 588.6 -2 c 1
 588.2 1 l 1
 607.7 55 624.8 126 640.7 201 c 2
 692.8 446 l 2
EndSplineSet
Refer: 91 1068 N 1 0 0 1 0 0 2
Colour: ff00ff
EndChar

StartChar: uni042C
Encoding: 1068 1068 91
Width: 558
GlyphClass: 2
Flags: MW
LayerCount: 2
Fore
SplineSet
148 0 m 0
 114 0 93.4 -3 93.4 -3 c 1
 93 0 l 1
 112.5 54 129.6 125 145.5 200 c 2
 197.6 445 l 2
 213.5 520 225 588 229.1 645 c 1
 231.7 648 l 1
 231.7 648 249.1 645 283.1 645 c 0
 318.1 645 335.7 648 335.7 648 c 1
 336.1 645 l 1
 316.8 592 299.5 520 283.6 445 c 2
 268.3 373 l 1
 326.3 373 l 2
 572.3 373 579.8 272 560.9 183 c 0
 525.4 16 364.6 -2 243.6 -2 c 0
 207.6 -2 177 0 148 0 c 0
258.9 329 m 1
 206.9 84 l 2
 199.9 51 198 33 253 33 c 0
 405 33 453.7 121 466.9 183 c 0
 479.7 243 471.9 329 343.9 329 c 2
 258.9 329 l 1
EndSplineSet
EndChar

StartChar: uni042D
Encoding: 1069 1069 92
Width: 604
GlyphClass: 2
Flags: MW
LayerCount: 2
Fore
SplineSet
537.3 307 m 1
 475.1 273 431 273 418 273 c 0
 356 273 321.1 311 262.1 311 c 0
 224.1 311 204.7 295 196.7 295 c 0
 192.7 295 188.4 298 190.3 307 c 0
 195.6 332 264.5 360 323.5 360 c 0
 389.5 360 411.9 329 469.9 329 c 0
 498.9 329 523.2 335 544.1 344 c 1
 577.9 550 484 621 403 621 c 0
 308 621 212.8 540 168.5 454 c 1
 139.4 458 l 1
 161.7 511 179.6 558 193.3 613 c 1
 251.9 616 313.9 658 418.9 658 c 0
 583.9 658 677.9 550 631.8 333 c 0
 585 113 442.4 -12 272.4 -12 c 0
 186.4 -12 137 19 111.1 43 c 0
 88.6 64 74.2 95 79.9 122 c 0
 85.4 148 101.1 165 119.1 165 c 0
 148.1 165 157.3 152 160.5 120 c 0
 169.2 48 218.5 21 290.5 21 c 0
 417.5 21 507 169 537.3 307 c 1
EndSplineSet
EndChar

StartChar: uni042E
Encoding: 1070 1070 93
Width: 905
GlyphClass: 2
Flags: MW
LayerCount: 2
Fore
SplineSet
693.6 619 m 0
 609.6 619 495.1 537 450.5 327 c 0
 409.7 135 489.7 27 597.7 27 c 0
 700.7 27 797.9 131 835.9 310 c 0
 880.1 518 818.6 619 693.6 619 c 0
200.6 445 m 2
 216.5 520 229 588 233.1 645 c 1
 235.7 648 l 1
 235.7 648 252.1 645 286.1 645 c 0
 321.1 645 338.7 648 338.7 648 c 1
 339.1 645 l 1
 319.8 592 302.5 520 286.6 445 c 2
 265.5 346 l 1
 359.5 346 l 1
 410.5 525 556.9 658 712.9 658 c 0
 880.9 658 978 527 935.9 329 c 0
 893.4 129 749.4 -12 571.4 -12 c 0
 413.4 -12 310 108 349.2 302 c 1
 256.2 302 l 1
 234.5 200 l 2
 218.6 125 206.1 57 202 0 c 1
 199.4 -3 l 1
 199.4 -3 183 0 149 0 c 0
 114 0 96.4 -3 96.4 -3 c 1
 96 0 l 1
 115.5 54 132.6 125 148.5 200 c 2
 200.6 445 l 2
EndSplineSet
EndChar

StartChar: uni042F
Encoding: 1071 1071 94
Width: 561
GlyphClass: 2
Flags: MW
LayerCount: 2
Fore
SplineSet
427.3 613 m 0
 366.3 613 294.7 596 269.6 478 c 0
 243 353 305.1 330 402.1 330 c 2
 450.1 330 l 1
 500.9 569 l 2
 507.1 598 498.3 613 427.3 613 c 0
283 300 m 1
 263.9 305.1 250.3 311.3 238.6 318 c 0
 190.3 345 155.4 397 172.8 479 c 0
 183.4 529 209.2 570 252.4 604 c 0
 310 649 373.6 652 436.6 652 c 0
 461.6 652 530.1 645 560.1 645 c 0
 594.1 645 611.7 648 611.7 648 c 1
 613.1 645 l 1
 593 588 576.5 520 560.6 445 c 2
 508.5 200 l 2
 492.6 125 479.5 54 476 0 c 1
 474.4 -3 l 1
 474.4 -3 458 0 423 0 c 0
 389 0 371.4 -3 371.4 -3 c 1
 370 0 l 1
 390.1 57 406.6 125 422.5 200 c 2
 440.8 286 l 1
 415.9 286 394.2 286.6 375.1 287.6 c 1
 339.6 254.7 302.1 214.9 266.4 176 c 0
 200.1 104 139.6 31 121.4 -3 c 1
 103 0 73 0 54 0 c 0
 34 0 22 0 1.4 -3 c 1
 0 0 l 1
 62.1 56.7 201.3 215.9 283 300 c 1
EndSplineSet
EndChar

StartChar: uni0447
Encoding: 1095 1095 95
Width: 510
GlyphClass: 2
Flags: MW
LayerCount: 2
Fore
SplineSet
129.9 291 m 0
 145.9 366.5 144.9 376 148.2 429 c 1
 149.8 432 l 1
 149.8 432 163.2 429 198.2 429 c 0
 232.2 429 246.8 432 246.8 432 c 1
 248.2 429 l 1
 228.1 372 226.2 368 210.3 293 c 0
 193.7 215 193.5 181 255.5 181 c 0
 303.5 181 342.4 192.5 380.4 223 c 1
 386.1 250 l 2
 401.2 321 411.7 375 414.2 429 c 1
 415.8 432 l 1
 415.8 432 429.2 429 464.2 429 c 0
 498.2 429 512.8 432 512.8 432 c 1
 514.2 429 l 1
 493.1 372 483 325 466.1 250 c 2
 451 179 l 2
 435.1 104 426.1 57 423 0 c 1
 420.4 -3 l 1
 420.4 -3 407 0 373 0 c 0
 338 0 323.4 -3 323.4 -3 c 1
 323 0 l 1
 343.4 53.9 355.2 104.8 370.9 178.5 c 1
 326.8 150.5 292.1 137 233.1 137 c 0
 135.1 137 107.4 185 129.9 291 c 0
EndSplineSet
EndChar

StartChar: uni0448
Encoding: 1096 1096 96
Width: 807
GlyphClass: 2
Flags: MW
LayerCount: 2
Fore
SplineSet
751.5 200 m 2
 735.7 125.5 722.5 54 719 0 c 1
 717.4 -3 l 1
 717.4 -3 700 0 666 0 c 2
 140 0 l 2
 106 0 87.4 -3 87.4 -3 c 1
 87 0 l 1
 106.5 54 123.6 125 139.5 200 c 2
 150.1 250 l 2
 166 325 175.1 372 178.2 429 c 1
 180.8 432 l 1
 180.8 432 194.2 429 228.2 429 c 0
 263.2 429 277.8 432 277.8 432 c 1
 278.2 429 l 1
 257.7 375 245.8 324 230.1 250 c 2
 219.5 200 l 2
 215.9 183 194.6 78 196.5 54 c 1
 201.6 45 204.7 41 219.7 41 c 2
 337.7 41 l 2
 352.7 41 357.6 45 366.5 54 c 1
 378.6 78 401.9 183 405.5 200 c 2
 416.1 250 l 2
 432 325 441.1 372 444.2 429 c 1
 446.8 432 l 1
 446.8 432 460.2 429 494.2 429 c 0
 529.2 429 543.8 432 543.8 432 c 1
 544.2 429 l 1
 523.7 375 511.8 324 496.1 250 c 2
 485.5 200 l 2
 481.9 183 460.6 78 462.5 54 c 1
 467.6 45 470.7 41 485.7 41 c 2
 617.7 41 l 2
 632.7 41 623.6 45 632.5 54 c 1
 644.6 78 667.9 183 671.5 200 c 2
 681.9 249 l 2
 698.1 325 706.6 372 710.2 429 c 1
 712.8 432 l 1
 712.8 432 726.9 429 761.2 429 c 0
 796.2 429 810.8 432 810.8 432 c 1
 811.2 429 l 1
 791.3 375.5 777.9 324.1 761.9 249 c 2
 751.5 200 l 2
EndSplineSet
EndChar

StartChar: uni0449
Encoding: 1097 1097 97
Width: 813
GlyphClass: 2
Flags: MW
LayerCount: 2
Fore
SplineSet
140 0 m 2
 106 0 87.4 -3 87.4 -3 c 1
 87 0 l 1
 106.5 54 123.6 125 139.5 200 c 2
 150.1 250 l 2
 166 325 175.1 372 178.2 429 c 1
 180.8 432 l 1
 180.8 432 194.2 429 228.2 429 c 0
 263.2 429 277.8 432 277.8 432 c 1
 278.2 429 l 1
 257.7 375 245.8 324 230.1 250 c 2
 219.5 200 l 2
 215.9 183 194.6 78 196.5 54 c 1
 201.6 45 204.7 41 219.7 41 c 2
 337.7 41 l 2
 352.7 41 357.6 45 366.5 54 c 1
 378.6 78 401.9 183 405.5 200 c 2
 416.1 250 l 2
 432 325 441.1 372 444.2 429 c 1
 446.8 432 l 1
 446.8 432 460.2 429 494.2 429 c 0
 529.2 429 543.8 432 543.8 432 c 1
 544.2 429 l 1
 523.7 375 511.8 324 496.1 250 c 2
 485.5 200 l 2
 481.9 183 460.6 78 462.5 54 c 1
 467.6 45 470.7 41 485.7 41 c 2
 617.7 41 l 2
 632.7 41 623.6 45 632.5 54 c 1
 644.6 78 667.9 183 671.5 200 c 2
 681.9 249 l 2
 698.1 325 706.6 372 710.2 429 c 1
 712.8 432 l 1
 712.8 432 726.9 429 761.2 429 c 0
 796.2 429 810.8 432 810.8 432 c 1
 811.2 429 l 1
 791.3 375.5 777.9 324.1 761.9 249 c 2
 751.5 200 l 2
 728.1 90 722.7 35 755.8 32 c 0
 780.2 29.8 783.4 20.7 781.3 11 c 2
 740.4 -125 l 1
 737.8 -128 l 1
 705.8 -128 l 1
 704.4 -125 l 1
 708.9 -52.4 707.7 0 628 0 c 2
 140 0 l 2
EndSplineSet
EndChar

StartChar: uni044A
Encoding: 1098 1098 98
Width: 539
GlyphClass: 2
Flags: MW
LayerCount: 2
Fore
SplineSet
454.8 126 m 0
 466.1 179 457.6 219 386.6 219 c 2
 319.6 219 l 1
 289.8 79 l 2
 282.4 44 297.2 34 343.2 34 c 0
 393.2 34 437.4 44 454.8 126 c 0
246.1 250 m 2
 261.2 321 269.5 374 269.5 374 c 1
 144.5 374 111.2 363 111.2 363 c 1
 109.8 366 l 1
 114.8 380 119.7 403 123.2 429 c 1
 125.6 431 l 1
 140.4 430 161.2 429 180.2 429 c 2
 324.2 429 l 2
 358.2 429 372.8 432 372.8 432 c 1
 374.2 429 l 1
 353.1 372 344 334 328.1 259 c 2
 327.4 256 l 1
 384.4 256 l 2
 480.4 256 556.9 230 536.9 136 c 0
 519 52 445.6 -2 334.6 -2 c 0
 294.8 -2 272.8 0 233 0 c 0
 198 0 183.4 -3 183.4 -3 c 1
 183 0 l 1
 203.5 54 215.3 105 231 179 c 2
 246.1 250 l 2
EndSplineSet
EndChar

StartChar: uni044C
Encoding: 1100 1100 100
Width: 447
GlyphClass: 2
Flags: MW
LayerCount: 2
Fore
SplineSet
362.8 126 m 0
 374.1 179 365.6 219 294.6 219 c 2
 227.6 219 l 1
 197.8 79 l 2
 190.4 44 205.2 34 251.2 34 c 0
 301.2 34 345.4 44 362.8 126 c 0
236.1 259 m 2
 235.4 256 l 1
 292.4 256 l 2
 388.4 256 464.9 230 444.9 136 c 0
 427 52 353.6 -2 242.6 -2 c 0
 202.8 -2 180.8 0 141 0 c 0
 106 0 91.4 -3 91.4 -3 c 1
 91 0 l 1
 111.5 54 123.3 105 139 179 c 2
 154.1 250 l 2
 169.2 321 179.7 375 182.2 429 c 1
 183.8 432 l 1
 183.8 432 197.2 429 232.2 429 c 0
 266.2 429 280.8 432 280.8 432 c 1
 282.2 429 l 1
 261.1 372 252 334 236.1 259 c 2
EndSplineSet
EndChar

StartChar: uni044D
Encoding: 1101 1101 101
Width: 434
GlyphClass: 2
Flags: MW
LayerCount: 2
Fore
SplineSet
363.2 236 m 1
 371.7 309 358.7 408 268.7 408 c 0
 188.7 408 155.6 351 128.6 290 c 1
 102.5 294 l 1
 117.9 338 128.1 372 141.8 427 c 1
 211.8 427 214.3 439 285.3 439 c 0
 408.3 439 462.2 335 438.8 225 c 0
 405.4 68 281.9 -10 175.9 -10 c 0
 93.9 -10 44.2 34 55.3 86 c 0
 58.3 100 73.4 115 91.4 115 c 0
 102.4 115 123.6 111 121.6 78 c 0
 120.4 44 146.5 21 189.5 21 c 0
 283.5 21 341.6 130 358.2 208 c 1
 333.6 196 297.3 180 266.3 180 c 0
 222.3 180 199 207 164 207 c 0
 152 207 140.9 202 132.9 202 c 0
 126.9 202 127.9 211 128.7 215 c 0
 131.9 230 180.7 248 223.7 248 c 0
 268.7 248 281.7 229 319.7 229 c 0
 335.7 229 350.1 231 363.2 236 c 1
EndSplineSet
EndChar

StartChar: uni044E
Encoding: 1102 1102 102
Width: 686
GlyphClass: 2
Flags: MW
LayerCount: 2
Fore
SplineSet
534.2 401 m 0
 460.2 401 419.5 313 401 226 c 0
 384.6 149 387.4 30 481.4 30 c 0
 522.4 30 575.2 53 603.3 185 c 0
 634.3 331 612.2 401 534.2 401 c 0
146.1 250 m 2
 161.2 321 171.7 375 174.2 429 c 1
 175.8 432 l 1
 175.8 432 189.2 429 224.2 429 c 0
 258.2 429 272.8 432 272.8 432 c 1
 274.2 429 l 1
 253.1 372 243 325 226.1 250 c 2
 223.4 237 l 1
 319.4 237 l 1
 354.7 356 437.3 439 552.3 439 c 0
 696.3 439 717.2 321 695.1 217 c 0
 673.8 117 594.9 -10 455.9 -10 c 0
 327.9 -10 290.6 97 310.1 198 c 1
 215.1 198 l 1
 211 179 l 2
 195.1 104 186.1 57 183 0 c 1
 180.4 -3 l 1
 180.4 -3 167 0 133 0 c 0
 98 0 83.4 -3 83.4 -3 c 1
 83 0 l 1
 103.5 54 115.3 105 131 179 c 2
 146.1 250 l 2
EndSplineSet
EndChar

StartChar: uni044F
Encoding: 1103 1103 103
Width: 429
GlyphClass: 2
Flags: MW
LayerCount: 2
Fore
SplineSet
316.9 230 m 1
 345.8 366 l 2
 352.6 398 338.4 402 299.4 402 c 0
 225.4 402 201.2 368 191.2 321 c 0
 180.6 271 194.9 230 251.9 230 c 2
 316.9 230 l 1
401.4 251 m 2
 385.8 178 l 2
 370.9 108 360.5 54 358 0 c 1
 356.4 -3 l 1
 356.4 -3 343 0 308 0 c 0
 274 0 259.4 -3 259.4 -3 c 1
 258 0 l 1
 279.1 57 288.2 95 303.9 169 c 2
 309.4 195 l 1
 284.4 195 l 2
 244.4 195 209.9 145 176.9 84 c 0
 154.2 43 118.2 1 83 0 c 2
 9.4 -3 l 1
 7 0 l 1
 11 19 l 2
 12.5 26 18.7 27 22.7 27 c 2
 31 28 l 2
 58.6 31 106.8 98 128.9 136 c 0
 153.6 177 179.1 198 208.4 204 c 1
 153.4 204 88.8 239 103.9 310 c 0
 110.1 339 147.8 432 308.8 432 c 0
 345.8 432 363.2 429 399.2 429 c 0
 434.2 429 448.8 432 448.8 432 c 1
 449.2 429 l 1
 428.7 375 416.9 324 401.4 251 c 2
EndSplineSet
EndChar

StartChar: uni04D1
Encoding: 1233 1233 107
Width: 461
GlyphClass: 2
Flags: MW
LayerCount: 2
Fore
SplineSet
452.6 577 m 0
 440.9 522 375.9 489 311.9 489 c 0
 246.9 489 198.9 522 210.4 576 c 0
 214.2 594 233.4 609 256.4 609 c 0
 278.4 609 287.5 595 284.1 579 c 0
 283.5 576 283 574 281.4 571 c 0
 279.8 568 279 565 278.6 563 c 0
 273.9 541 289.5 520 319.5 520 c 0
 348.5 520 373.8 540 378.5 562 c 0
 379.1 565 379.8 568 379.4 571 c 0
 378.8 573 379.3 575 379.9 578 c 0
 383.5 595 403.4 609 421.4 609 c 0
 445.4 609 456.6 596 452.6 577 c 0
EndSplineSet
Refer: 776 1072 N 1 0 0 1 0 0 2
Colour: ff00ff
EndChar

StartChar: uni04D7
Encoding: 1239 1239 113
Width: 442
GlyphClass: 2
Flags: MW
LayerCount: 2
Fore
SplineSet
467.6 577 m 0
 455.9 522 390.9 489 326.9 489 c 0
 261.9 489 213.9 522 225.4 576 c 0
 229.2 594 248.4 609 271.4 609 c 0
 293.4 609 302.5 595 299.1 579 c 0
 298.5 576 298 574 296.4 571 c 0
 294.8 568 294 565 293.6 563 c 0
 288.9 541 304.5 520 334.5 520 c 0
 363.5 520 388.8 540 393.5 562 c 0
 394.1 565 394.8 568 394.4 571 c 0
 393.8 573 394.3 575 394.9 578 c 0
 398.5 595 418.4 609 436.4 609 c 0
 460.4 609 471.6 596 467.6 577 c 0
EndSplineSet
Refer: 781 1077 N 1 0 0 1 0 0 2
Colour: ff00ff
EndChar

StartChar: uni04E9
Encoding: 1257 1257 123
Width: 510
GlyphClass: 2
Flags: MW
AnchorPoint: "below" 223.3 -107 basechar 0
AnchorPoint: "top_punkt" 361.9 550 basechar 0
AnchorPoint: "above" 373.1 645 basechar 0
LayerCount: 2
Fore
SplineSet
426.6 219 m 1
 404.8 206 353 179 312 179 c 0
 269 179 241 207 206 207 c 0
 198.4 207 182.6 204.2 170.3 202.1 c 1
 162 126.8 182.7 31 275.6 31 c 0
 320.6 31 397.3 63 423.7 187 c 0
 454.9 334 419.6 398 334.6 398 c 0
 249.4 398 194 316.6 175 230.5 c 1
 200.2 240.5 238.6 249 265.9 249 c 0
 310.9 249 328.7 229 366.7 229 c 0
 388.7 229 412.4 237 428.9 244 c 1
 426.6 219 l 1
79.6 205 m 0
 108.7 342 219.3 439 350.3 439 c 0
 507.3 439 541.6 318 519.5 214 c 0
 496.8 107 395.9 -10 252.9 -10 c 0
 114.9 -10 56.2 95 79.6 205 c 0
EndSplineSet
Colour: ff80cc
EndChar

StartChar: uni04EF
Encoding: 1263 1263 126
Width: 486
GlyphClass: 2
Flags: MW
LayerCount: 2
Fore
SplineSet
481.4 538 m 2
 237.4 538 l 2
 228.4 538 226 546 227.5 553 c 0
 230.1 565 244.7 582 255.7 582 c 2
 500.7 582 l 2
 510.7 582 513 574 511.7 568 c 0
 509.2 556 494.4 538 481.4 538 c 2
EndSplineSet
Refer: 305 121 N 1 0 0 1 0 0 2
Colour: ff00ff
EndChar

StartChar: uni04F3
Encoding: 1267 1267 128
Width: 486
GlyphClass: 2
Flags: MW
LayerCount: 2
Fore
SplineSet
574.7 615 m 0
 573.4 609 571 602 563.7 596 c 2
 426.3 486 l 2
 423.9 484 421.9 484 419.9 484 c 0
 414.9 484 406.9 489 408.6 497 c 0
 408.8 498 409.3 500 410.5 501 c 2
 518 640 l 2
 524.9 649 532.6 652 544.6 652 c 0
 565.6 652 578.7 633.6 574.7 615 c 0
444 621 m 0
 442.9 616 440.7 610 435.6 605 c 2
 307.9 484 l 2
 305.5 482 302.2 481 299.2 481 c 0
 293.2 481 286.3 486 288 494 c 0
 288.2 495 288.4 496 289.6 497 c 2
 384.7 643 l 2
 393.5 656 409.6 657 413.6 657 c 0
 434.5 657 448.4 641.5 444 621 c 0
EndSplineSet
Refer: 305 121 N 1 0 0 1 0 0 2
Colour: ff00ff
EndChar

StartChar: uni1E02
Encoding: 7682 7682 131
Width: 582
GlyphClass: 2
Flags: MW
LayerCount: 2
Fore
SplineSet
389.5 741 m 0
 395.2 768 424.3 792 451.3 792 c 0
 478.3 792 497.2 768 491.5 741 c 0
 485.8 714 456.7 690 429.7 690 c 0
 402.7 690 383.8 714 389.5 741 c 0
EndSplineSet
Refer: 689 914 N 1 0 0 1 0 0 2
Colour: ff00ff
EndChar

StartChar: uni1E03
Encoding: 7683 7683 132
Width: 497
GlyphClass: 2
Flags: MW
LayerCount: 2
Fore
SplineSet
172.2 81 m 1
 186.9 56 206.2 34 237.2 34 c 0
 332.2 34 398.4 110 422.6 224 c 0
 443.2 321 402.8 385 341.8 385 c 0
 330.8 385 275.4 383 227.9 343 c 1
 172.2 81 l 1
261.3 500 m 2
 236.6 384 l 1
 278.5 421 325.3 439 373.3 439 c 0
 460.3 439 537.3 364 511.4 242 c 0
 477.6 83 335.9 -10 233.9 -10 c 0
 190.9 -10 163.4 2 139.7 27 c 1
 122.4 14 110.4 2 98.4 -12 c 1
 88.9 -12 73.7 -10.8 68.5 -7 c 1
 77.4 14.8 81.8 32 90.1 71 c 2
 177.5 482 l 2
 193.7 558 206 627.3 207.4 670 c 1
 210.1 673 l 1
 251.2 676 277.2 688 304.4 698 c 1
 310.7 698 312.7 695 311.2 688 c 0
 290.5 626.7 277 574 261.3 500 c 2
EndSplineSet
Refer: 673 775 N 1 0 0 1 438 -33 2
Colour: ff00ff
EndChar

StartChar: uni1E05
Encoding: 7685 7685 134
Width: 497
GlyphClass: 2
Flags: MW
LayerCount: 2
Fore
SplineSet
172.2 81 m 1
 186.9 56 206.2 34 237.2 34 c 0
 332.2 34 398.4 110 422.6 224 c 0
 443.2 321 402.8 385 341.8 385 c 0
 330.8 385 275.4 383 227.9 343 c 1
 172.2 81 l 1
261.3 500 m 2
 236.6 384 l 1
 278.5 421 325.3 439 373.3 439 c 0
 460.3 439 537.3 364 511.4 242 c 0
 477.6 83 335.9 -10 233.9 -10 c 0
 190.9 -10 163.4 2 139.7 27 c 1
 122.4 14 110.4 2 98.4 -12 c 1
 88.9 -12 73.7 -10.8 68.5 -7 c 1
 77.4 14.8 81.8 32 90.1 71 c 2
 177.5 482 l 2
 193.7 558 206 627.3 207.4 670 c 1
 210.1 673 l 1
 251.2 676 277.2 688 304.4 698 c 1
 310.7 698 312.7 695 311.2 688 c 0
 290.5 626.7 277 574 261.3 500 c 2
EndSplineSet
Refer: 673 775 N 1 0 0 1 252.2 -719 2
Colour: ff00ff
EndChar

StartChar: uni1E06
Encoding: 7686 7686 135
Width: 582
GlyphClass: 2
Flags: MW
LayerCount: 2
Fore
SplineSet
370.5 -106 m 2
 125.5 -106 l 2
 117.5 -106 115.2 -98 116.7 -91 c 0
 119.3 -79 132.8 -62 144.8 -62 c 2
 389.8 -62 l 2
 398.8 -62 401.3 -69 399.8 -76 c 0
 397.2 -88 383.5 -106 370.5 -106 c 2
EndSplineSet
Refer: 689 914 N 1 0 0 1 0 0 2
Colour: ff00ff
EndChar

StartChar: uni1E07
Encoding: 7687 7687 136
Width: 497
GlyphClass: 2
Flags: MW
LayerCount: 2
Fore
SplineSet
172.2 81 m 1
 186.9 56 206.2 34 237.2 34 c 0
 332.2 34 398.4 110 422.6 224 c 0
 443.2 321 402.8 385 341.8 385 c 0
 330.8 385 275.4 383 227.9 343 c 1
 172.2 81 l 1
261.3 500 m 2
 236.6 384 l 1
 278.5 421 325.3 439 373.3 439 c 0
 460.3 439 537.3 364 511.4 242 c 0
 477.6 83 335.9 -10 233.9 -10 c 0
 190.9 -10 163.4 2 139.7 27 c 1
 122.4 14 110.4 2 98.4 -12 c 1
 88.9 -12 73.7 -10.8 68.5 -7 c 1
 77.4 14.8 81.8 32 90.1 71 c 2
 177.5 482 l 2
 193.7 558 206 627.3 207.4 670 c 1
 210.1 673 l 1
 251.2 676 277.2 688 304.4 698 c 1
 310.7 698 312.7 695 311.2 688 c 0
 290.5 626.7 277 574 261.3 500 c 2
EndSplineSet
Refer: 2027 717 N 1 0 0 1 45.4 -31 2
Colour: ff00ff
EndChar

StartChar: uni1E08
Encoding: 7688 7688 137
Width: 650
GlyphClass: 2
Flags: MW
LayerCount: 2
Fore
SplineSet
582.1 819 m 1
 607.9 805.7 624.8 788.3 633 767 c 1
 476.7 709 l 2
 453.8 700 441.2 697 432.2 697 c 0
 423.2 697 418.6 704 420.3 712 c 0
 421.8 719 424.9 724 439.8 733 c 2
 582.1 819 l 1
345.7 -100 m 0
 326.7 -100 316.6 -101 299.5 -106 c 1
 294.7 -100 l 1
 351.4 -10 l 2
 350.6 -10 349.7 -10 348.9 -10 c 0
 133.9 -10 69.8 154 104 315 c 0
 145.9 512 335.9 658 504.9 658 c 0
 626.9 658 713.3 613 713.3 613 c 1
 714.7 610 l 1
 692.5 560.7 685.5 550 671.1 499 c 1
 660.9 498 l 1
 637.3 580 570.9 611 480.9 611 c 0
 398.9 611 254.1 537 211 334 c 0
 180 188 213.7 41 368.7 41 c 0
 461.7 41 534.2 62 621.8 140 c 1
 641.6 125 l 1
 565.9 47.5 473.6 2.6 387 -7.7 c 1
 349.9 -71 l 1
 358.3 -69 367.5 -68 376.5 -68 c 0
 416.5 -68 442.5 -92 434.4 -130 c 0
 425.3 -173 372.6 -204 311.6 -204 c 0
 279.6 -204 264 -198 241.3 -187 c 1
 243.9 -175 248.3 -168 256.8 -161 c 1
 281.7 -171 291.8 -175 311.8 -175 c 0
 341.8 -175 365.8 -161 371.3 -135 c 0
 375.8 -114 368.7 -100 345.7 -100 c 0
EndSplineSet
Colour: ff00ff
EndChar

StartChar: uni1E09
Encoding: 7689 7689 138
Width: 437
GlyphClass: 2
Flags: MW
LayerCount: 2
Fore
SplineSet
213 -94 m 0
 194 -94 183.8 -95 166.7 -100 c 1
 162 -94 l 1
 216.1 -8.1 l 1
 110 5.4 55.1 89.9 80.2 208 c 0
 110.4 350 246.3 439 354.3 439 c 0
 404.3 439 453.9 423 481.5 407 c 1
 482.9 404 l 1
 442.4 322 l 1
 429.2 321 l 1
 412.4 366.5 382.2 394 343.7 394 c 0
 277.7 394 193.3 340 169.9 230 c 0
 145 113 203.4 44 280.4 44 c 0
 323.4 44 363.1 62 403.7 107 c 1
 407.7 107 l 1
 424.3 91 l 1
 377.4 23.5 308.8 -9.1 249.4 -10 c 1
 217.2 -65 l 1
 225.6 -63 234.8 -62 243.8 -62 c 0
 283.8 -62 309.7 -86 301.6 -124 c 0
 292.5 -167 239.9 -198 178.9 -198 c 0
 146.9 -198 131.2 -192 108.5 -181 c 1
 111.1 -169 115.6 -162 124.1 -155 c 1
 149 -165 159.1 -169 179.1 -169 c 0
 209.1 -169 233.1 -155 238.6 -129 c 0
 243.1 -108 236 -94 213 -94 c 0
EndSplineSet
Refer: 331 180 N 1 0 0 1 118.2 -32 2
Colour: ff00ff
EndChar

StartChar: uni1E0A
Encoding: 7690 7690 139
Width: 698
GlyphClass: 2
Flags: MW
LayerCount: 2
Fore
SplineSet
204.4 82 m 2
 197.6 50 206.9 42 304.9 42 c 0
 445.9 42 569.5 82 612.4 284 c 0
 645.1 438 615.4 604 399.4 604 c 0
 350.4 604 314.3 599 306.9 564 c 2
 204.4 82 l 2
281.1 645 m 0
 345.1 645 382.7 648 446.7 648 c 0
 638.7 648 760 494 720.5 308 c 0
 668.2 62 467.6 -2 326.6 -2 c 0
 223.6 -2 215 0 144 0 c 0
 109 0 91.4 -3 91.4 -3 c 1
 91 0 l 1
 110.5 54 127.6 125 143.5 200 c 2
 195.6 445 l 2
 211.5 520 224 588 228.1 645 c 1
 230.7 648 l 1
 230.7 648 247.1 645 281.1 645 c 0
EndSplineSet
Refer: 673 775 N 1 0 0 1 506 141 2
Colour: ff00ff
EndChar

StartChar: uni1E0C
Encoding: 7692 7692 141
Width: 698
GlyphClass: 2
Flags: MW
LayerCount: 2
Fore
SplineSet
204.4 82 m 2
 197.6 50 206.9 42 304.9 42 c 0
 445.9 42 569.5 82 612.4 284 c 0
 645.1 438 615.4 604 399.4 604 c 0
 350.4 604 314.3 599 306.9 564 c 2
 204.4 82 l 2
281.1 645 m 0
 345.1 645 382.7 648 446.7 648 c 0
 638.7 648 760 494 720.5 308 c 0
 668.2 62 467.6 -2 326.6 -2 c 0
 223.6 -2 215 0 144 0 c 0
 109 0 91.4 -3 91.4 -3 c 1
 91 0 l 1
 110.5 54 127.6 125 143.5 200 c 2
 195.6 445 l 2
 211.5 520 224 588 228.1 645 c 1
 230.7 648 l 1
 230.7 648 247.1 645 281.1 645 c 0
EndSplineSet
Refer: 673 775 N 1 0 0 1 317.2 -719 2
Colour: ff00ff
EndChar

StartChar: uni1E0E
Encoding: 7694 7694 143
Width: 698
GlyphClass: 2
Flags: MW
LayerCount: 2
Fore
SplineSet
377.7 -105 m 2
 132.7 -105 l 2
 124.7 -105 122.4 -97 123.9 -90 c 0
 126.5 -78 140 -61 152 -61 c 2
 397 -61 l 2
 406 -61 408.6 -68 407.1 -75 c 0
 404.5 -87 390.7 -105 377.7 -105 c 2
204.4 82 m 2
 197.6 50 206.9 42 304.9 42 c 0
 445.9 42 569.5 82 612.4 284 c 0
 645.1 438 615.4 604 399.4 604 c 0
 350.4 604 314.3 599 306.9 564 c 2
 204.4 82 l 2
281.1 645 m 0
 345.1 645 382.7 648 446.7 648 c 0
 638.7 648 760 494 720.5 308 c 0
 668.2 62 467.6 -2 326.6 -2 c 0
 223.6 -2 215 0 144 0 c 0
 109 0 91.4 -3 91.4 -3 c 1
 91 0 l 1
 110.5 54 127.6 125 143.5 200 c 2
 195.6 445 l 2
 211.5 520 224 588 228.1 645 c 1
 230.7 648 l 1
 230.7 648 247.1 645 281.1 645 c 0
EndSplineSet
Colour: ff00ff
EndChar

StartChar: uni1E11
Encoding: 7697 7697 146
Width: 494
GlyphClass: 2
Flags: MW
LayerCount: 2
Fore
SplineSet
365.7 115.3 m 1
 412.2 335 l 1
 396.3 373 376.7 396 329.7 396 c 0
 299.2 396 256.6 386.1 221.4 341 c 0
 194.8 307 162.9 225.4 162.9 152.3 c 0
 162.9 76.6 199.9 44 251 44 c 0
 283 44 319.3 68.8 365.7 115.3 c 1
354.6 64 m 1
 308.7 17.5 261.9 -10 213.9 -10 c 0
 133.6 -10 73.4 55.2 73.4 150.5 c 0
 73.4 250.4 123.5 328 182.9 377.2 c 0
 229.8 416 287.9 439 350.3 439 c 0
 370.3 439 409.4 430 429.6 417 c 1
 443.5 482 l 2
 459.7 558 474 633.3 475.4 676 c 1
 478.1 679 l 1
 519.2 682 540.2 688 567.4 698 c 1
 573.7 698 575.7 695 574.2 688 c 0
 554.6 626 543 574 527.3 500 c 2
 461.8 192 l 2
 444.3 109.4 437.2 57.8 437.2 24.8 c 0
 437.2 15 437.9 6.9 439 0 c 1
 436.4 -3 l 1
 423.8 -1 405.1 0 392.5 0 c 0
 378 0 373.1 -1.3 359.4 -3 c 0
 355.4 -3 352.6 -2 353 0 c 2
 353 0 354.3 38.3 357.6 64 c 1
 354.6 64 l 1
EndSplineSet
Refer: 680 806 N 1 0 0 1 480 0 2
Colour: ff00ff
EndChar

StartChar: uni1E12
Encoding: 7698 7698 147
Width: 698
GlyphClass: 2
Flags: MW
LayerCount: 2
Fore
SplineSet
204.4 82 m 2
 197.6 50 206.9 42 304.9 42 c 0
 445.9 42 569.5 82 612.4 284 c 0
 645.1 438 615.4 604 399.4 604 c 0
 350.4 604 314.3 599 306.9 564 c 2
 204.4 82 l 2
281.1 645 m 0
 345.1 645 382.7 648 446.7 648 c 0
 638.7 648 760 494 720.5 308 c 0
 668.2 62 467.6 -2 326.6 -2 c 0
 223.6 -2 215 0 144 0 c 0
 109 0 91.4 -3 91.4 -3 c 1
 91 0 l 1
 110.5 54 127.6 125 143.5 200 c 2
 195.6 445 l 2
 211.5 520 224 588 228.1 645 c 1
 230.7 648 l 1
 230.7 648 247.1 645 281.1 645 c 0
EndSplineSet
Refer: 656 710 N 1 0 0 1 -65.1 -725 2
Colour: ff00ff
EndChar

StartChar: uni1E14
Encoding: 7700 7700 149
Width: 522
GlyphClass: 2
Flags: MW
LayerCount: 2
Fore
SplineSet
575.8 733 m 2
 331.8 733 l 2
 322.8 733 320.5 741 322 748 c 0
 324.6 760 339.2 777 350.2 777 c 2
 595.2 777 l 2
 605.2 777 607.5 769 606.2 763 c 0
 603.6 751 588.8 733 575.8 733 c 2
197.6 831.1 m 1
 275 757.2 l 2
 282 750.2 283.9 744.9 282.6 738.7 c 0
 281.1 731.7 274.5 725.5 268.3 725.5 c 0
 262.1 725.5 251.9 728.1 237.4 736 c 2
 130.6 791.5 l 1
 148 807.1 169.1 820.9 197.6 831.1 c 1
EndSplineSet
Refer: 28 69 N 1 0 0 1 0 0 2
Colour: ff00ff
EndChar

StartChar: uni1E15
Encoding: 7701 7701 150
Width: 442
GlyphClass: 2
Flags: MW
LayerCount: 2
Fore
SplineSet
374.8 765.2 m 1
 406.7 651.8 l 2
 408.8 642.8 408.3 636.5 407 630.2 c 0
 406 625.7 399.2 620.3 392.8 620.3 c 0
 388 620.3 383.4 624.8 373.5 638.3 c 2
 303.1 736.4 l 1
 306.8 746.3 l 1
 314.3 751.7 336 767 363.2 767 c 0
 367.2 767 371.8 766.1 374.8 765.2 c 1
461.4 538 m 2
 217.4 538 l 2
 208.4 538 206 546 207.5 553 c 0
 210.1 565 224.7 582 235.7 582 c 2
 480.7 582 l 2
 490.7 582 493 574 491.7 568 c 0
 489.2 556 474.4 538 461.4 538 c 2
EndSplineSet
Refer: 781 1077 N 1 0 0 1 0 0 2
Colour: ff00ff
EndChar

StartChar: uni1E16
Encoding: 7702 7702 151
Width: 522
GlyphClass: 2
Flags: MW
LayerCount: 2
Fore
SplineSet
518.8 733 m 2
 274.8 733 l 2
 265.8 733 263.5 741 265 748 c 0
 267.6 760 282.2 777 293.2 777 c 2
 538.2 777 l 2
 548.2 777 550.5 769 549.2 763 c 0
 546.6 751 531.8 733 518.8 733 c 2
711.9 831.8 m 1
 731.5 820.1 744.1 804.9 749.9 786.1 c 1
 628.2 735 l 2
 610.3 727.1 600.5 724.5 593.6 724.5 c 0
 586.7 724.5 583.4 730.7 584.9 737.7 c 0
 586.2 743.9 588.7 748.3 600.4 756.2 c 2
 711.9 831.8 l 1
EndSplineSet
Refer: 28 69 N 1 0 0 1 0 0 2
Colour: ff00ff
EndChar

StartChar: uni1E17
Encoding: 7703 7703 152
Width: 442
GlyphClass: 2
Flags: MW
LayerCount: 2
Fore
SplineSet
425.8 759.2 m 1
 428.4 760.1 433.4 761 437.4 761 c 0
 442.5 761 462.8 760.1 477 740.3 c 1
 477.3 730.4 l 1
 364.4 632.3 l 2
 349.5 618.8 342.4 615.2 336.8 615.2 c 0
 331.2 615.2 326.8 620.6 328.1 626.9 c 0
 330.2 637 333.6 640.6 342.6 652.1 c 2
 425.8 759.2 l 1
461.4 538 m 2
 217.4 538 l 2
 208.4 538 206 546 207.5 553 c 0
 210.1 565 224.7 582 235.7 582 c 2
 480.7 582 l 2
 490.7 582 493 574 491.7 568 c 0
 489.2 556 474.4 538 461.4 538 c 2
EndSplineSet
Refer: 781 1077 N 1 0 0 1 0 0 2
Colour: ff00ff
EndChar

StartChar: uni1E1C
Encoding: 7708 7708 157
Width: 522
GlyphClass: 2
Flags: MW
LayerCount: 2
Fore
SplineSet
607.1 805 m 1
 586 734 513.1 692 447.1 692 c 0
 374.1 692 325.2 735 335.1 805 c 1
 363.1 805 l 1
 362.8 766 405.1 744 458.1 744 c 0
 507.1 744 563.8 766 579.1 805 c 1
 607.1 805 l 1
EndSplineSet
Refer: 615 552 N 1 0 0 1 0 0 2
Colour: ff00ff
EndChar

StartChar: uni1E1D
Encoding: 7709 7709 158
Width: 442
GlyphClass: 2
Flags: MW
LayerCount: 2
Fore
SplineSet
249.8 648 m 1
 249.5 595 284.6 558 338.6 558 c 0
 390.6 558 443.4 590 465.7 648 c 1
 490.2 636 l 1
 459.9 550 385.5 501 326.5 501 c 0
 256.5 501 216.1 551 220.2 636 c 1
 249.8 648 l 1
EndSplineSet
Refer: 616 553 N 1 0 0 1 0 0 2
Colour: ff00ff
EndChar

StartChar: uni1E1E
Encoding: 7710 7710 159
Width: 477
GlyphClass: 2
Flags: MW
LayerCount: 2
Fore
SplineSet
393.8 752 m 0
 399.5 779 428.7 803 455.7 803 c 0
 482.7 803 501.5 779 495.8 752 c 0
 490.1 725 461 701 434 701 c 0
 407 701 388.1 725 393.8 752 c 0
EndSplineSet
Refer: 29 70 N 1 0 0 1 0 0 2
Colour: ff00ff
EndChar

StartChar: uni1E1F
Encoding: 7711 7711 160
Width: 308
GlyphClass: 2
Flags: MW
LayerCount: 2
Fore
SplineSet
369.6 784 m 0
 375.3 811 404.5 835 431.5 835 c 0
 458.5 835 477.3 811 471.6 784 c 0
 465.9 757 436.8 733 409.8 733 c 0
 382.8 733 363.9 757 369.6 784 c 0
280.2 622 m 0
 326.6 671 387.4 698 450.4 698 c 0
 469.4 698 486.6 694 493.5 689 c 1
 493.8 686 l 1
 478.8 667 461.1 631 448.4 604 c 1
 437.2 603 l 1
 430.5 623 415.6 638 386.6 638 c 0
 329.3 638 293.4 590.2 281.7 535 c 0
 277.9 517 274.2 476 266.3 439 c 2
 264.2 429 l 1
 372.2 429 l 2
 377.2 429 379.8 427 378.9 423 c 2
 373.6 398 l 2
 371.7 389 356.8 385 347.8 385 c 2
 254.8 385 l 1
 215.5 200 l 2
 199.5 124.8 186.6 57 183 0 c 1
 180.4 -3 l 1
 180.4 -3 167.3 0 133 0 c 0
 98 0 83.4 -3 83.4 -3 c 1
 83 0 l 1
 102.9 53.5 119.7 125.5 135.5 200 c 2
 174.8 385 l 1
 108.8 385 l 2
 104.8 385 104 386 105.1 391 c 2
 108.9 409 l 2
 110.6 417 118.2 429 136.2 429 c 2
 184.2 429 l 1
 192.7 469 l 2
 209.3 547 233.8 573 280.2 622 c 0
EndSplineSet
Colour: ff00ff
EndChar

StartChar: uni1E20
Encoding: 7712 7712 161
Width: 699
GlyphClass: 2
Flags: MW
LayerCount: 2
Fore
SplineSet
638.8 733 m 2
 394.8 733 l 2
 385.8 733 383.5 741 385 748 c 0
 387.6 760 402.2 777 413.2 777 c 2
 658.2 777 l 2
 668.2 777 670.5 769 669.2 763 c 0
 666.6 751 651.8 733 638.8 733 c 2
570.9 117 m 1
 585.4 192 597.2 250 601.3 307 c 1
 603.9 310 l 1
 603.9 310 620.3 307 654.3 307 c 0
 689.3 307 706.9 310 706.9 310 c 1
 707.3 307 l 1
 688 254 677 212 661.1 137 c 2
 659.8 131 l 2
 657.5 120 653.2 93.7 659.6 83 c 1
 659 80 l 1
 579.5 23.4 490.4 -10 373.9 -10 c 0
 172.9 -10 60.5 134 97.3 307 c 0
 144.1 527 348.9 658 520.9 658 c 0
 642.9 658 729.3 613 729.3 613 c 1
 730.7 610 l 1
 708.5 560.7 701.5 550 687.1 499 c 1
 676.9 498 l 1
 653.3 580 586.9 611 496.9 611 c 0
 361.9 611 241.7 502 204.5 327 c 0
 176.4 195 228.7 36 406.7 36 c 0
 460.7 36 520.9 42 561.7 74 c 1
 570.9 117 l 1
EndSplineSet
Colour: ff00ff
EndChar

StartChar: uni1E21
Encoding: 7713 7713 162
Width: 479
GlyphClass: 2
Flags: MW
LayerCount: 2
Fore
SplineSet
472.4 538 m 2
 228.4 538 l 2
 219.4 538 217 546 218.5 553 c 0
 221.1 565 235.7 582 246.7 582 c 2
 491.7 582 l 2
 501.7 582 504 574 502.7 568 c 0
 500.2 556 485.4 538 472.4 538 c 2
144.2 -13.7 m 1
 101.2 -42.9 82.9 -70.9 75.9 -104 c 0
 61.4 -172 136.6 -195 170.6 -195 c 0
 256.6 -195 359.7 -152 372.7 -91 c 0
 378.2 -65 374.7 -50.8 341.8 -29 c 0
 317.7 -13 280.4 -12 232.4 -12 c 0
 218.6 -12 192.3 -15 162.8 -15 c 0
 156.9 -15 150.4 -14.5 144.2 -13.7 c 1
445.4 289 m 0
 424.6 191 334.9 136 250.9 136 c 0
 213.9 136 190.4 143 170.4 157 c 1
 155.8 140 145.3 119 141 99 c 0
 131.9 56 160 47 188 47 c 0
 193 47 203.2 48 217.4 49 c 0
 241 52 264.5 54 281.5 54 c 0
 316.5 54 384.8 53 415.5 21 c 0
 438.4 -2.9 445.3 -36 438.5 -68 c 0
 415.5 -176 262.4 -238 133.4 -238 c 0
 60.4 -238 -12.9 -211 5.6 -124 c 0
 14.7 -81 51.6 -35 109.4 -3 c 1
 87.2 10 72 38 79.7 74 c 0
 86.9 108 111.1 151 143.2 175 c 1
 121.9 202 108.5 233 120 287 c 0
 139.6 379 231.3 439 316.3 439 c 0
 337.8 439 357.1 436 373.8 430.4 c 1
 449.2 434.3 486.7 444.9 535.4 449 c 1
 537.8 446 l 1
 533.9 437 531.2 429 529.3 420 c 0
 527.4 411 526.6 403 526.7 394 c 1
 523.1 391 l 1
 482.8 395.2 450.6 399 421 401.4 c 1
 446.1 375 455.4 336.1 445.4 289 c 0
367.3 279 m 0
 383.2 354 358 395 298 395 c 0
 246 395 210.8 347 201.2 302 c 0
 187.6 238 199.3 180 265.3 180 c 0
 300.3 180 352.2 208 367.3 279 c 0
EndSplineSet
Colour: ff00ff
EndChar

StartChar: uni1E23
Encoding: 7715 7715 164
Width: 520
GlyphClass: 2
Flags: MW
LayerCount: 2
Fore
SplineSet
396.3 180 m 2
 418.6 285 l 2
 435.8 366 420.2 382 364.2 382 c 0
 335.2 382 286.7 356 228.7 309 c 1
 201.3 180 l 2
 185.1 103.8 176.6 57 173 0 c 1
 170.4 -3 l 1
 170.4 -3 157.3 0 123 0 c 0
 88 0 73.4 -3 73.4 -3 c 1
 73 0 l 1
 92.9 53.5 105.5 105.5 121.3 180 c 2
 185.2 481 l 2
 201.4 557 214 627.3 215.4 670 c 1
 218.1 673 l 1
 259.2 676 285.2 688 312.4 698 c 1
 318.7 698 320.7 695 319.2 688 c 0
 298.5 626.7 285.2 575 269.5 501 c 2
 239.5 360 l 1
 320.7 427 382.3 439 421.3 439 c 0
 493.3 439 520.3 387 498.4 284 c 2
 476.3 180 l 2
 460.1 103.8 451.6 57 448 0 c 1
 445.4 -3 l 1
 445.4 -3 432.3 0 398 0 c 0
 363 0 348.4 -3 348.4 -3 c 1
 348 0 l 1
 367.9 53.5 380.5 105.5 396.3 180 c 2
EndSplineSet
Refer: 673 775 N 1 0 0 1 461 -33 2
Colour: ff00ff
EndChar

StartChar: uni1E25
Encoding: 7717 7717 166
Width: 520
GlyphClass: 2
Flags: MW
LayerCount: 2
Fore
SplineSet
184.3 -116 m 0
 190 -89 219.2 -65 246.2 -65 c 0
 273.2 -65 292 -89 286.3 -116 c 0
 280.6 -143 251.5 -167 224.5 -167 c 0
 197.5 -167 178.6 -143 184.3 -116 c 0
396.3 180 m 2
 418.6 285 l 2
 435.8 366 420.2 382 364.2 382 c 0
 335.2 382 286.7 356 228.7 309 c 1
 201.3 180 l 2
 185.1 103.8 176.6 57 173 0 c 1
 170.4 -3 l 1
 170.4 -3 157.3 0 123 0 c 0
 88 0 73.4 -3 73.4 -3 c 1
 73 0 l 1
 92.9 53.5 105.5 105.5 121.3 180 c 2
 185.2 481 l 2
 201.4 557 214 627.3 215.4 670 c 1
 218.1 673 l 1
 259.2 676 285.2 688 312.4 698 c 1
 318.7 698 320.7 695 319.2 688 c 0
 298.5 626.7 285.2 575 269.5 501 c 2
 239.5 360 l 1
 320.7 427 382.3 439 421.3 439 c 0
 493.3 439 520.3 387 498.4 284 c 2
 476.3 180 l 2
 460.1 103.8 451.6 57 448 0 c 1
 445.4 -3 l 1
 445.4 -3 432.3 0 398 0 c 0
 363 0 348.4 -3 348.4 -3 c 1
 348 0 l 1
 367.9 53.5 380.5 105.5 396.3 180 c 2
EndSplineSet
Colour: ff00ff
EndChar

StartChar: uni1E27
Encoding: 7719 7719 168
Width: 520
GlyphClass: 2
Flags: MW
LayerCount: 2
Fore
SplineSet
466.6 572 m 0
 471.9 597 496.4 618 521.4 618 c 0
 546.4 618 562.9 597 557.6 572 c 0
 552.3 547 527 527 502 527 c 0
 477 527 461.3 547 466.6 572 c 0
329.6 572 m 0
 334.9 597 359.4 618 384.4 618 c 0
 409.4 618 424.9 597 419.6 572 c 0
 414.3 547 390 527 365 527 c 0
 340 527 324.3 547 329.6 572 c 0
396.3 180 m 2
 418.6 285 l 2
 435.8 366 420.2 382 364.2 382 c 0
 335.2 382 286.7 356 228.7 309 c 1
 201.3 180 l 2
 185.1 103.8 176.6 57 173 0 c 1
 170.4 -3 l 1
 170.4 -3 157.3 0 123 0 c 0
 88 0 73.4 -3 73.4 -3 c 1
 73 0 l 1
 92.9 53.5 105.5 105.5 121.3 180 c 2
 185.2 481 l 2
 201.4 557 214 627.3 215.4 670 c 1
 218.1 673 l 1
 259.2 676 285.2 688 312.4 698 c 1
 318.7 698 320.7 695 319.2 688 c 0
 298.5 626.7 285.2 575 269.5 501 c 2
 239.5 360 l 1
 320.7 427 382.3 439 421.3 439 c 0
 493.3 439 520.3 387 498.4 284 c 2
 476.3 180 l 2
 460.1 103.8 451.6 57 448 0 c 1
 445.4 -3 l 1
 445.4 -3 432.3 0 398 0 c 0
 363 0 348.4 -3 348.4 -3 c 1
 348 0 l 1
 367.9 53.5 380.5 105.5 396.3 180 c 2
EndSplineSet
Colour: ff80cc
EndChar

StartChar: uni1E28
Encoding: 7720 7720 169
Width: 700
GlyphClass: 2
Flags: MW
LayerCount: 2
Fore
SplineSet
605.6 445 m 2
 621.5 520 634 588 638.1 645 c 1
 640.7 648 l 1
 640.7 648 657.1 645 691.1 645 c 0
 726.1 645 743.7 648 743.7 648 c 1
 744.1 645 l 1
 724.8 592 707.5 520 691.6 445 c 2
 639.5 200 l 2
 623.6 125 611.1 57 607 0 c 1
 604.4 -3 l 1
 604.4 -3 588 0 554 0 c 0
 519 0 501.4 -3 501.4 -3 c 1
 501 0 l 1
 520.5 54 537.6 125 553.5 200 c 2
 579.2 321 l 1
 257.2 321 l 1
 231.5 200 l 2
 215.6 125 203.1 57 199 0 c 1
 196.4 -3 l 1
 196.4 -3 192.5 -2.3 184.6 -1.6 c 1
 148.6 -63 l 1
 157 -61 166.2 -60 175.2 -60 c 0
 215.2 -60 241.2 -84 233.1 -122 c 0
 224 -165 171.3 -196 110.3 -196 c 0
 78.3 -196 62.7 -190 40 -179 c 1
 42.6 -167 47 -160 55.5 -153 c 1
 80.4 -163 90.5 -167 110.5 -167 c 0
 140.5 -167 164.5 -153 170 -127 c 0
 174.5 -106 167.4 -92 144.4 -92 c 0
 125.4 -92 115.3 -93 98.2 -98 c 1
 93.4 -92 l 1
 151.3 -0 l 1
 149.6 0 147.8 0 146 0 c 0
 111 0 93.4 -3 93.4 -3 c 1
 93 0 l 1
 112.5 54 129.6 125 145.5 200 c 2
 197.6 445 l 2
 213.5 520 226 588 230.1 645 c 1
 232.7 648 l 1
 232.7 648 249.1 645 283.1 645 c 0
 318.1 645 335.7 648 335.7 648 c 1
 336.1 645 l 1
 316.8 592 299.5 520 283.6 445 c 2
 266.2 363 l 1
 588.2 363 l 1
 605.6 445 l 2
EndSplineSet
Colour: ff00ff
EndChar

StartChar: uni1E29
Encoding: 7721 7721 170
Width: 520
GlyphClass: 2
Flags: MW
LayerCount: 2
Fore
SplineSet
115.9 -90 m 0
 96.9 -90 86.7 -91 69.6 -96 c 1
 64.9 -90 l 1
 121.5 -0 l 1
 87.6 -0.1 73.4 -3 73.4 -3 c 2
 73 0 l 1
 92.9 53.5 105.5 105.5 121.3 180 c 2
 185.2 481 l 2
 201.4 557 214 627.3 215.4 670 c 1
 218.1 673 l 1
 259.2 676 285.2 688 312.4 698 c 1
 318.7 698 320.7 695 319.2 688 c 0
 298.5 626.7 285.2 575 269.5 501 c 2
 239.5 360 l 1
 320.7 427 382.3 439 421.3 439 c 0
 493.3 439 520.3 387 498.4 284 c 2
 476.3 180 l 2
 460.1 103.8 451.6 57 448 0 c 1
 445.4 -3 l 1
 445.4 -3 432.3 0 398 0 c 0
 363 0 348.4 -3 348.4 -3 c 1
 348 0 l 1
 367.9 53.5 380.5 105.5 396.3 180 c 2
 418.6 285 l 2
 435.8 366 420.2 382 364.2 382 c 0
 335.2 382 286.7 356 228.7 309 c 1
 201.3 180 l 2
 185.1 103.8 176.6 57 173 0 c 1
 170.4 -3 l 1
 170.4 -3 165.8 -2 155.1 -1.1 c 1
 120 -61 l 1
 128.4 -59 137.7 -58 146.7 -58 c 0
 186.7 -58 212.6 -82 204.5 -120 c 0
 195.4 -163 142.8 -194 81.8 -194 c 0
 49.8 -194 34.1 -188 11.4 -177 c 1
 13.9 -165 18.4 -158 26.9 -151 c 1
 51.8 -161 61.9 -165 81.9 -165 c 0
 111.9 -165 135.9 -151 141.4 -125 c 0
 145.9 -104 138.9 -90 115.9 -90 c 0
EndSplineSet
Colour: ff00ff
EndChar

StartChar: uni1E2A
Encoding: 7722 7722 171
Width: 700
GlyphClass: 2
Flags: MW
LayerCount: 2
Fore
SplineSet
225 -52 m 1
 224.7 -105 259.8 -142 313.8 -142 c 0
 365.8 -142 418.6 -110 440.9 -52 c 1
 465.4 -64 l 1
 435.1 -150 360.7 -199 301.7 -199 c 0
 231.7 -199 191.3 -149 195.4 -64 c 1
 225 -52 l 1
EndSplineSet
Refer: 694 919 N 1 0 0 1 0 0 2
Colour: ff00ff
EndChar

StartChar: uni1E2B
Encoding: 7723 7723 172
Width: 520
GlyphClass: 2
Flags: MW
LayerCount: 2
Fore
SplineSet
157.9 -62 m 1
 157.6 -115 192.7 -152 246.7 -152 c 0
 298.7 -152 351.5 -120 373.8 -62 c 1
 398.3 -74 l 1
 368 -160 293.6 -209 234.6 -209 c 0
 164.6 -209 124.2 -159 128.3 -74 c 1
 157.9 -62 l 1
396.3 180 m 2
 418.6 285 l 2
 435.8 366 420.2 382 364.2 382 c 0
 335.2 382 286.7 356 228.7 309 c 1
 201.3 180 l 2
 185.1 103.8 176.6 57 173 0 c 1
 170.4 -3 l 1
 170.4 -3 157.3 0 123 0 c 0
 88 0 73.4 -3 73.4 -3 c 1
 73 0 l 1
 92.9 53.5 105.5 105.5 121.3 180 c 2
 185.2 481 l 2
 201.4 557 214 627.3 215.4 670 c 1
 218.1 673 l 1
 259.2 676 285.2 688 312.4 698 c 1
 318.7 698 320.7 695 319.2 688 c 0
 298.5 626.7 285.2 575 269.5 501 c 2
 239.5 360 l 1
 320.7 427 382.3 439 421.3 439 c 0
 493.3 439 520.3 387 498.4 284 c 2
 476.3 180 l 2
 460.1 103.8 451.6 57 448 0 c 1
 445.4 -3 l 1
 445.4 -3 432.3 0 398 0 c 0
 363 0 348.4 -3 348.4 -3 c 1
 348 0 l 1
 367.9 53.5 380.5 105.5 396.3 180 c 2
EndSplineSet
Colour: ff00ff
EndChar

StartChar: uni1E2C
Encoding: 7724 7724 173
Width: 293
GlyphClass: 2
Flags: MW
LayerCount: 2
Fore
SplineSet
200.6 445 m 2
 216.5 520 229 588 233.1 645 c 1
 235.7 648 l 1
 235.7 648 252.1 645 286.1 645 c 0
 321.1 645 338.7 648 338.7 648 c 1
 339.1 645 l 1
 319.8 592 302.5 520 286.6 445 c 2
 234.5 200 l 2
 218.6 125 206.1 57 202 0 c 1
 199.4 -3 l 1
 199.4 -3 183 0 149 0 c 0
 114 0 96.4 -3 96.4 -3 c 1
 96 0 l 1
 115.5 54 132.6 125 148.5 200 c 2
 200.6 445 l 2
EndSplineSet
Refer: 1685 834 N 1 0 0 1 256 -668 2
Colour: ff00ff
EndChar

StartChar: uni1E2D
Encoding: 7725 7725 174
Width: 268
GlyphClass: 2
Flags: MW
LayerCount: 2
Fore
SplineSet
144 235 m 2
 159.9 310 170.3 368 171.4 411 c 1
 174 414 l 1
 214.6 417 241.2 429 268.3 439 c 1
 274.3 439 276.7 436 275.2 429 c 0
 254.2 368 243.3 326 227.4 251 c 2
 212.3 180 l 2
 196.1 104 188.1 57 184 0 c 1
 181.4 -3 l 1
 181.4 -3 168 0 134 0 c 0
 99 0 84.4 -3 84.4 -3 c 1
 84 0 l 1
 103.5 54 116.4 105 132.3 180 c 2
 144 235 l 2
EndSplineSet
Refer: 1685 834 N 1 0 0 1 253 -668 2
Refer: 673 775 N 1 0 0 1 306.8 -34 2
Colour: ff00ff
EndChar

StartChar: uni1E2E
Encoding: 7726 7726 175
Width: 293
GlyphClass: 2
Flags: MW
LayerCount: 2
Fore
SplineSet
414.3 889.8 m 1
 433.9 878.1 446.5 862.9 452.3 844.1 c 1
 330.5 793 l 2
 312.6 785.1 302.9 782.5 296 782.5 c 0
 289.1 782.5 285.7 788.7 287.2 795.7 c 0
 288.5 801.9 291 806.3 302.7 814.2 c 2
 414.3 889.8 l 1
EndSplineSet
Refer: 358 207 N 1 0 0 1 0 0 2
Colour: ff00ff
EndChar

StartChar: uni1E2F
Encoding: 7727 7727 176
Width: 268
GlyphClass: 2
Flags: MW
LayerCount: 2
Fore
SplineSet
345.3 740 m 1
 347.8 740.9 352.5 741.8 356.4 741.8 c 0
 361.3 741.8 380.9 741 394.5 721.6 c 1
 394.7 711.9 l 1
 285.8 616 l 2
 271.4 602.8 264.5 599.2 259.1 599.2 c 0
 253.7 599.2 249.5 604.5 250.8 610.7 c 0
 252.9 620.6 256.1 624 264.8 635.3 c 2
 345.3 740 l 1
144 235 m 2
 159.9 310 170.3 368 171.4 411 c 1
 174 414 l 1
 214.6 417 241.2 429 268.3 439 c 1
 274.3 439 276.7 436 275.2 429 c 0
 254.2 368 243.3 326 227.4 251 c 2
 212.3 180 l 2
 196.1 104 188.1 57 184 0 c 1
 181.4 -3 l 1
 181.4 -3 168 0 134 0 c 0
 99 0 84.4 -3 84.4 -3 c 1
 84 0 l 1
 103.5 54 116.4 105 132.3 180 c 2
 144 235 l 2
EndSplineSet
Refer: 319 168 N 1 0 0 1 -43.4 -2 2
Colour: ff00ff
EndChar

StartChar: uni1E30
Encoding: 7728 7728 177
Width: 637
GlyphClass: 2
Flags: MW
LayerCount: 2
Fore
SplineSet
583.1 819 m 1
 608.9 805.7 625.8 788.3 634 767 c 1
 477.7 709 l 2
 454.8 700 442.2 697 433.2 697 c 0
 424.2 697 419.6 704 421.3 712 c 0
 422.8 719 425.9 724 440.8 733 c 2
 583.1 819 l 1
EndSplineSet
Refer: 697 922 N 1 0 0 1 0 0 2
Colour: ff00ff
EndChar

StartChar: uni1E31
Encoding: 7729 7729 178
Width: 476
GlyphClass: 2
Flags: MW
LayerCount: 2
Fore
SplineSet
127.5 200 m 2
 187.5 482 l 2
 203.7 558 216 627.3 217.4 670 c 1
 220.1 673 l 1
 261.2 676 287.2 688 314.4 698 c 1
 320.7 698 322.7 695 321.2 688 c 0
 300.5 626.7 287.2 575 271.3 500 c 2
 215.6 237.9 l 1
 223.8 239.8 232.3 244.5 243.6 252 c 0
 289.7 282.5 379.8 366.5 436.2 429 c 1
 463.2 429 518.2 429 537.8 432 c 1
 539.2 429 l 1
 462.5 373.9 359.7 278.9 311.6 238 c 1
 382.5 122.8 411.3 78.6 469 0 c 1
 466.4 -3 l 1
 457.8 -1.2 423.7 0 407 0 c 0
 390 0 356.1 -1.2 340.4 -3 c 1
 290.5 95.8 279.6 135 229.1 203 c 0
 224.1 208.5 216.5 210.7 210 211.5 c 1
 209.2 207.7 208.3 203.8 207.5 200 c 0
 191.5 124.8 178.6 57 175 0 c 1
 172.4 -3 l 1
 172.4 -3 159.3 0 125 0 c 0
 90 0 75.4 -3 75.4 -3 c 1
 75 0 l 1
 94.9 53.5 111.7 125.5 127.5 200 c 2
EndSplineSet
Refer: 331 180 N 1 0 0 1 165.2 -32 2
Colour: ff00ff
EndChar

StartChar: uni1E33
Encoding: 7731 7731 180
Width: 476
GlyphClass: 2
Flags: MW
LayerCount: 2
Fore
SplineSet
127.5 200 m 2
 187.5 482 l 2
 203.7 558 216 627.3 217.4 670 c 1
 220.1 673 l 1
 261.2 676 287.2 688 314.4 698 c 1
 320.7 698 322.7 695 321.2 688 c 0
 300.5 626.7 287.2 575 271.3 500 c 2
 215.6 237.9 l 1
 223.8 239.8 232.3 244.5 243.6 252 c 0
 289.7 282.5 379.8 366.5 436.2 429 c 1
 463.2 429 518.2 429 537.8 432 c 1
 539.2 429 l 1
 462.5 373.9 359.7 278.9 311.6 238 c 1
 382.5 122.8 411.3 78.6 469 0 c 1
 466.4 -3 l 1
 457.8 -1.2 423.7 0 407 0 c 0
 390 0 356.1 -1.2 340.4 -3 c 1
 290.5 95.8 279.6 135 229.1 203 c 0
 224.1 208.5 216.5 210.7 210 211.5 c 1
 209.2 207.7 208.3 203.8 207.5 200 c 0
 191.5 124.8 178.6 57 175 0 c 1
 172.4 -3 l 1
 172.4 -3 159.3 0 125 0 c 0
 90 0 75.4 -3 75.4 -3 c 1
 75 0 l 1
 94.9 53.5 111.7 125.5 127.5 200 c 2
EndSplineSet
Refer: 673 775 N 1 0 0 1 279.2 -719 2
Colour: ff00ff
EndChar

StartChar: uni1E34
Encoding: 7732 7732 181
Width: 637
GlyphClass: 2
Flags: MW
LayerCount: 2
Fore
SplineSet
433.5 -106 m 2
 188.5 -106 l 2
 180.5 -106 178.2 -98 179.7 -91 c 0
 182.3 -79 195.8 -62 207.8 -62 c 2
 452.8 -62 l 2
 461.8 -62 464.3 -69 462.8 -76 c 0
 460.2 -88 446.5 -106 433.5 -106 c 2
EndSplineSet
Refer: 697 922 N 1 0 0 1 0 0 2
Colour: ff00ff
EndChar

StartChar: uni1E35
Encoding: 7733 7733 182
Width: 476
GlyphClass: 2
Flags: MW
LayerCount: 2
Fore
SplineSet
357.3 -107 m 2
 112.3 -107 l 2
 104.3 -107 101.9 -99 103.4 -92 c 0
 106 -80 119.6 -63 131.6 -63 c 2
 376.6 -63 l 2
 385.6 -63 388.1 -70 386.6 -77 c 0
 384 -89 370.3 -107 357.3 -107 c 2
127.5 200 m 2
 187.5 482 l 2
 203.7 558 216 627.3 217.4 670 c 1
 220.1 673 l 1
 261.2 676 287.2 688 314.4 698 c 1
 320.7 698 322.7 695 321.2 688 c 0
 300.5 626.7 287.2 575 271.3 500 c 2
 215.6 237.9 l 1
 223.8 239.8 232.3 244.5 243.6 252 c 0
 289.7 282.5 379.8 366.5 436.2 429 c 1
 463.2 429 518.2 429 537.8 432 c 1
 539.2 429 l 1
 462.5 373.9 359.7 278.9 311.6 238 c 1
 382.5 122.8 411.3 78.6 469 0 c 1
 466.4 -3 l 1
 457.8 -1.2 423.7 0 407 0 c 0
 390 0 356.1 -1.2 340.4 -3 c 1
 290.5 95.8 279.6 135 229.1 203 c 0
 224.1 208.5 216.5 210.7 210 211.5 c 1
 209.2 207.7 208.3 203.8 207.5 200 c 0
 191.5 124.8 178.6 57 175 0 c 1
 172.4 -3 l 1
 172.4 -3 159.3 0 125 0 c 0
 90 0 75.4 -3 75.4 -3 c 1
 75 0 l 1
 94.9 53.5 111.7 125.5 127.5 200 c 2
EndSplineSet
Colour: ff00ff
EndChar

StartChar: uni1E36
Encoding: 7734 7734 183
Width: 526
GlyphClass: 2
Flags: MW
LayerCount: 2
Fore
SplineSet
231.5 200 m 2
 227.9 183 206.6 78 208.5 54 c 1
 342.5 54 493 66 493 66 c 1
 494.2 62 l 1
 491.5 54 487.3 39 485.2 29 c 0
 483.1 19 483 14 481 0 c 1
 478.4 -3 l 1
 462.8 -1 440 0 419 0 c 2
 146 0 l 2
 112 0 93.4 -3 93.4 -3 c 1
 93 0 l 1
 112.5 54 129.6 125 145.5 200 c 2
 197.6 445 l 2
 213.5 520 225 588 229.1 645 c 1
 231.7 648 l 1
 231.7 648 249.1 645 283.1 645 c 0
 318.1 645 335.7 648 335.7 648 c 1
 336.1 645 l 1
 316.8 592 299.5 520 283.6 445 c 2
 231.5 200 l 2
EndSplineSet
Refer: 673 775 N 1 0 0 1 304.2 -719 2
Colour: ff00ff
EndChar

StartChar: uni1E38
Encoding: 7736 7736 185
Width: 526
GlyphClass: 2
Flags: MW
LayerCount: 2
Fore
SplineSet
422.8 733 m 2
 178.8 733 l 2
 169.8 733 167.5 741 169 748 c 0
 171.6 760 186.2 777 197.2 777 c 2
 442.2 777 l 2
 452.2 777 454.5 769 453.2 763 c 0
 450.6 751 435.8 733 422.8 733 c 2
EndSplineSet
Refer: 183 7734 N 1 0 0 1 0 0 2
Colour: ff00ff
EndChar

StartChar: uni1E39
Encoding: 7737 7737 186
Width: 260
GlyphClass: 2
Flags: MW
LayerCount: 2
Fore
SplineSet
401.7 756 m 2
 157.7 756 l 2
 148.7 756 146.4 764 147.9 771 c 0
 150.5 783 165 800 176 800 c 2
 421 800 l 2
 431 800 433.4 792 432.1 786 c 0
 429.6 774 414.7 756 401.7 756 c 2
EndSplineSet
Refer: 184 7735 N 1 0 0 1 0 0 2
Colour: ff00ff
EndChar

StartChar: uni1E3A
Encoding: 7738 7738 187
Width: 526
GlyphClass: 2
Flags: MW
LayerCount: 2
Fore
SplineSet
364.2 -112 m 2
 119.2 -112 l 2
 111.2 -112 108.9 -104 110.4 -97 c 0
 113 -85 126.5 -68 138.5 -68 c 2
 383.5 -68 l 2
 392.5 -68 395.1 -75 393.6 -82 c 0
 391 -94 377.2 -112 364.2 -112 c 2
231.5 200 m 2
 227.9 183 206.6 78 208.5 54 c 1
 342.5 54 493 66 493 66 c 1
 494.2 62 l 1
 491.5 54 487.3 39 485.2 29 c 0
 483.1 19 483 14 481 0 c 1
 478.4 -3 l 1
 462.8 -1 440 0 419 0 c 2
 146 0 l 2
 112 0 93.4 -3 93.4 -3 c 1
 93 0 l 1
 112.5 54 129.6 125 145.5 200 c 2
 197.6 445 l 2
 213.5 520 225 588 229.1 645 c 1
 231.7 648 l 1
 231.7 648 249.1 645 283.1 645 c 0
 318.1 645 335.7 648 335.7 648 c 1
 336.1 645 l 1
 316.8 592 299.5 520 283.6 445 c 2
 231.5 200 l 2
EndSplineSet
Colour: ff00ff
EndChar

StartChar: uni1E3B
Encoding: 7739 7739 188
Width: 260
GlyphClass: 2
Flags: MW
LayerCount: 2
Fore
SplineSet
223.2 -112 m 2
 -21.8 -112 l 2
 -29.8 -112 -32.1 -104 -30.6 -97 c 0
 -28 -85 -14.5 -68 -2.5 -68 c 2
 242.5 -68 l 2
 251.5 -68 254.1 -75 252.6 -82 c 0
 250 -94 236.2 -112 223.2 -112 c 2
EndSplineSet
Refer: 1163 8572 N 1 0 0 1 0 0 2
Colour: ff00ff
EndChar

StartChar: uni1E3C
Encoding: 7740 7740 189
Width: 526
GlyphClass: 2
Flags: MW
LayerCount: 2
Fore
SplineSet
231.5 200 m 2
 227.9 183 206.6 78 208.5 54 c 1
 342.5 54 493 66 493 66 c 1
 494.2 62 l 1
 491.5 54 487.3 39 485.2 29 c 0
 483.1 19 483 14 481 0 c 1
 478.4 -3 l 1
 462.8 -1 440 0 419 0 c 2
 146 0 l 2
 112 0 93.4 -3 93.4 -3 c 1
 93 0 l 1
 112.5 54 129.6 125 145.5 200 c 2
 197.6 445 l 2
 213.5 520 225 588 229.1 645 c 1
 231.7 648 l 1
 231.7 648 249.1 645 283.1 645 c 0
 318.1 645 335.7 648 335.7 648 c 1
 336.1 645 l 1
 316.8 592 299.5 520 283.6 445 c 2
 231.5 200 l 2
EndSplineSet
Refer: 656 710 N 1 0 0 1 -50.1 -725 2
Colour: ff00ff
EndChar

StartChar: uni1E3E
Encoding: 7742 7742 191
Width: 839
GlyphClass: 2
Flags: MW
LayerCount: 2
Fore
SplineSet
638.1 819 m 1
 663.9 805.7 680.8 788.3 689 767 c 1
 532.7 709 l 2
 509.8 700 497.2 697 488.2 697 c 0
 479.2 697 474.6 704 476.3 712 c 0
 477.8 719 480.9 724 495.8 733 c 2
 638.1 819 l 1
EndSplineSet
Refer: 699 924 N 1 0 0 1 0 0 2
Colour: ff00ff
EndChar

StartChar: uni1E41
Encoding: 7745 7745 194
Width: 765
GlyphClass: 2
Flags: MW
LayerCount: 2
Fore
SplineSet
438.8 573 m 0
 444.5 600 473.6 624 500.6 624 c 0
 527.6 624 546.5 600 540.8 573 c 0
 535.1 546 506 522 479 522 c 0
 452 522 433.1 546 438.8 573 c 0
EndSplineSet
Refer: 1166 8575 N 1 0 0 1 0 0 2
Colour: ff00ff
EndChar

StartChar: uni1E45
Encoding: 7749 7749 198
Width: 523
GlyphClass: 2
Flags: MW
LayerCount: 2
Fore
SplineSet
476.3 180 m 2
 460.1 104 451.1 57 448 0 c 1
 445.4 -3 l 1
 445.4 -3 432 0 398 0 c 0
 363 0 348.4 -3 348.4 -3 c 1
 348 0 l 1
 368.5 54 380.4 105 396.3 180 c 2
 417.1 278 l 2
 432 348 429 381 376 381 c 0
 332 381 293.1 367 229.3 307 c 1
 202.3 180 l 2
 186.1 104 177.6 57 174 0 c 1
 171.4 -3 l 1
 171.4 -3 158.3 0 124 0 c 0
 89 0 74.4 -3 74.4 -3 c 1
 74 0 l 1
 93.9 53.5 106.4 105 122.3 180 c 2
 134 235 l 2
 149.9 309.7 160 368.3 161.4 411 c 1
 164 414 l 1
 205.1 417 228.1 429 255.3 439 c 1
 261.6 439 263.7 436 262.2 429 c 1
 250.8 398.7 237.7 357 237.7 357 c 1
 239.9 357 l 1
 319.8 432 367.3 439 418.3 439 c 0
 508.3 439 516.6 370 497.7 281 c 2
 476.3 180 l 2
EndSplineSet
Refer: 673 775 N 1 0 0 1 455 -33 2
Colour: ff00ff
EndChar

StartChar: uni1E47
Encoding: 7751 7751 200
Width: 504
GlyphClass: 2
Flags: MW
LayerCount: 2
Fore
SplineSet
476.3 180 m 2
 460.1 104 451.1 57 448 0 c 1
 445.4 -3 l 1
 445.4 -3 432 0 398 0 c 0
 363 0 348.4 -3 348.4 -3 c 1
 348 0 l 1
 368.5 54 380.4 105 396.3 180 c 2
 417.1 278 l 2
 432 348 429 381 376 381 c 0
 332 381 293.1 367 229.3 307 c 1
 202.3 180 l 2
 186.1 104 177.6 57 174 0 c 1
 171.4 -3 l 1
 171.4 -3 158.3 0 124 0 c 0
 89 0 74.4 -3 74.4 -3 c 1
 74 0 l 1
 93.9 53.5 106.4 105 122.3 180 c 2
 134 235 l 2
 149.9 309.7 160 368.3 161.4 411 c 1
 164 414 l 1
 205.1 417 228.1 429 255.3 439 c 1
 261.6 439 263.7 436 262.2 429 c 1
 250.8 398.7 237.7 357 237.7 357 c 1
 239.9 357 l 1
 319.8 432 367.3 439 418.3 439 c 0
 508.3 439 516.6 370 497.7 281 c 2
 476.3 180 l 2
EndSplineSet
Refer: 673 775 N 1 0 0 1 288.2 -719 2
Colour: ff00ff
EndChar

StartChar: uni1E48
Encoding: 7752 7752 201
Width: 695
GlyphClass: 2
Flags: MW
LayerCount: 2
Fore
SplineSet
449.2 -112 m 2
 204.2 -112 l 2
 196.2 -112 193.9 -104 195.4 -97 c 0
 198 -85 211.5 -68 223.5 -68 c 2
 468.5 -68 l 2
 477.5 -68 480.1 -75 478.6 -82 c 0
 476 -94 462.2 -112 449.2 -112 c 2
EndSplineSet
Refer: 700 925 N 1 0 0 1 0 0 2
Colour: ff00ff
EndChar

StartChar: uni1E49
Encoding: 7753 7753 202
Width: 523
GlyphClass: 2
Flags: MW
LayerCount: 2
Fore
SplineSet
351.2 -112 m 2
 106.2 -112 l 2
 98.2 -112 95.9 -104 97.4 -97 c 0
 100 -85 113.5 -68 125.5 -68 c 2
 370.5 -68 l 2
 379.5 -68 382.1 -75 380.6 -82 c 0
 378 -94 364.2 -112 351.2 -112 c 2
476.3 180 m 2
 460.1 104 451.1 57 448 0 c 1
 445.4 -3 l 1
 445.4 -3 432 0 398 0 c 0
 363 0 348.4 -3 348.4 -3 c 1
 348 0 l 1
 368.5 54 380.4 105 396.3 180 c 2
 417.1 278 l 2
 432 348 429 381 376 381 c 0
 332 381 293.1 367 229.3 307 c 1
 202.3 180 l 2
 186.1 104 177.6 57 174 0 c 1
 171.4 -3 l 1
 171.4 -3 158.3 0 124 0 c 0
 89 0 74.4 -3 74.4 -3 c 1
 74 0 l 1
 93.9 53.5 106.4 105 122.3 180 c 2
 134 235 l 2
 149.9 309.7 160 368.3 161.4 411 c 1
 164 414 l 1
 205.1 417 228.1 429 255.3 439 c 1
 261.6 439 263.7 436 262.2 429 c 1
 250.8 398.7 237.7 357 237.7 357 c 1
 239.9 357 l 1
 319.8 432 367.3 439 418.3 439 c 0
 508.3 439 516.6 370 497.7 281 c 2
 476.3 180 l 2
EndSplineSet
Colour: ff00ff
EndChar

StartChar: uni1E4B
Encoding: 7755 7755 204
Width: 523
GlyphClass: 2
Flags: MW
LayerCount: 2
Fore
SplineSet
476.3 180 m 2
 460.1 104 451.1 57 448 0 c 1
 445.4 -3 l 1
 445.4 -3 432 0 398 0 c 0
 363 0 348.4 -3 348.4 -3 c 1
 348 0 l 1
 368.5 54 380.4 105 396.3 180 c 2
 417.1 278 l 2
 432 348 429 381 376 381 c 0
 332 381 293.1 367 229.3 307 c 1
 202.3 180 l 2
 186.1 104 177.6 57 174 0 c 1
 171.4 -3 l 1
 171.4 -3 158.3 0 124 0 c 0
 89 0 74.4 -3 74.4 -3 c 1
 74 0 l 1
 93.9 53.5 106.4 105 122.3 180 c 2
 134 235 l 2
 149.9 309.7 160 368.3 161.4 411 c 1
 164 414 l 1
 205.1 417 228.1 429 255.3 439 c 1
 261.6 439 263.7 436 262.2 429 c 1
 250.8 398.7 237.7 357 237.7 357 c 1
 239.9 357 l 1
 319.8 432 367.3 439 418.3 439 c 0
 508.3 439 516.6 370 497.7 281 c 2
 476.3 180 l 2
EndSplineSet
Refer: 656 710 N 1 0 0 1 -67.1 -725 2
Colour: ff00ff
EndChar

StartChar: uni1E4C
Encoding: 7756 7756 205
Width: 721
GlyphClass: 2
Flags: MW
LayerCount: 2
Fore
SplineSet
564 744.8 m 0
 582.7 744.8 596.9 755.8 618.6 802 c 1
 637.6 795.4 l 1
 613.4 729.4 581.7 696.4 542.6 696.4 c 0
 523.9 696.4 508.9 709.6 494.3 725 c 0
 481.6 737.1 468 749.2 453.5 749.2 c 0
 431.4 749.2 416.9 732.7 400.7 696.4 c 1
 381.4 701.9 l 1
 407.1 766.8 433.8 799.8 470.3 799.8 c 0
 495.8 799.8 511.2 784.4 524.9 769 c 0
 535.7 755.8 547.8 744.8 564 744.8 c 0
784.2 804.8 m 1
 803.8 793.1 816.4 777.9 822.2 759.1 c 1
 700.5 708 l 2
 682.6 700.1 672.8 697.5 665.9 697.5 c 0
 659 697.5 655.6 703.7 657.1 710.7 c 0
 658.4 716.9 660.9 721.3 672.6 729.2 c 2
 784.2 804.8 l 1
EndSplineSet
Refer: 702 927 N 1 0 0 1 0 0 2
Colour: ff00ff
EndChar

StartChar: uni1E4D
Encoding: 7757 7757 206
Width: 510
GlyphClass: 2
Flags: MW
LayerCount: 2
Fore
SplineSet
510.4 750 m 1
 512.9 750.9 517.6 751.8 521.5 751.8 c 0
 526.4 751.8 546 751 559.6 731.6 c 1
 559.8 721.9 l 1
 450.9 626 l 2
 436.5 612.8 429.6 609.2 424.2 609.2 c 0
 418.8 609.2 414.6 614.5 415.9 620.7 c 0
 418 630.6 421.2 634 429.9 645.3 c 2
 510.4 750 l 1
EndSplineSet
Refer: 1685 834 N 1 0 0 1 496 0 2
Refer: 733 959 N 1 0 0 1 0 0 2
Colour: ff00ff
EndChar

StartChar: uni1E4E
Encoding: 7758 7758 207
Width: 721
GlyphClass: 2
Flags: MW
LayerCount: 2
Fore
SplineSet
266.8 752 m 0
 272.1 777 297.6 798 321.6 798 c 0
 346.6 798 363.1 777 357.8 752 c 0
 352.7 728 327.3 707 302.3 707 c 0
 278.3 707 261.7 728 266.8 752 c 0
675.8 752 m 0
 681.1 777 706.6 798 731.6 798 c 0
 756.6 798 772.1 777 766.8 752 c 0
 761.7 728 737.3 707 712.3 707 c 0
 687.3 707 670.7 728 675.8 752 c 0
564 744.8 m 0
 582.7 744.8 596.9 755.8 618.6 802 c 1
 637.6 795.4 l 1
 613.4 729.4 581.7 696.4 542.6 696.4 c 0
 523.9 696.4 508.9 709.6 494.3 725 c 0
 481.6 737.1 468 749.2 453.5 749.2 c 0
 431.4 749.2 416.9 732.7 400.7 696.4 c 1
 381.4 701.9 l 1
 407.1 766.8 433.8 799.8 470.3 799.8 c 0
 495.8 799.8 511.2 784.4 524.9 769 c 0
 535.7 755.8 547.8 744.8 564 744.8 c 0
EndSplineSet
Refer: 702 927 N 1 0 0 1 0 0 2
Colour: ff80cc
EndChar

StartChar: uni1E4F
Encoding: 7759 7759 208
Width: 510
GlyphClass: 2
Flags: MW
LayerCount: 2
Fore
SplineSet
269 682 m 0
 274.3 707 299.7 728 324.7 728 c 0
 349.7 728 366.3 707 361 682 c 0
 355.7 657 330.2 636 305.2 636 c 0
 280.2 636 263.7 657 269 682 c 0
429 682 m 0
 434.3 707 459.7 728 484.7 728 c 0
 509.7 728 526.3 707 521 682 c 0
 515.7 657 490.2 636 465.2 636 c 0
 440.2 636 423.7 657 429 682 c 0
EndSplineSet
Refer: 1685 834 N 1 0 0 1 496 0 2
Refer: 733 959 N 1 0 0 1 0 0 2
Colour: ff00ff
EndChar

StartChar: uni1E50
Encoding: 7760 7760 209
Width: 721
GlyphClass: 2
Flags: MW
LayerCount: 2
Fore
SplineSet
611.7 733 m 2
 404.3 733 l 2
 396.7 733 394.9 741 396.4 748 c 0
 398.9 760 411.9 777 421.3 777 c 2
 629.5 777 l 2
 638 777 639.7 769 638.4 763 c 0
 635.8 751 622.8 733 611.7 733 c 2
272 805.1 m 1
 349.5 731.2 l 2
 356.5 724.2 358.4 718.9 357.1 712.7 c 0
 355.6 705.7 349 699.5 342.8 699.5 c 0
 336.6 699.5 326.4 702.1 311.9 710 c 2
 205.1 765.5 l 1
 222.5 781.1 243.5 794.9 272 805.1 c 1
EndSplineSet
Refer: 702 927 N 1 0 0 1 0 0 2
Colour: ff00ff
EndChar

StartChar: uni1E51
Encoding: 7761 7761 210
Width: 510
GlyphClass: 2
Flags: MW
LayerCount: 2
Fore
SplineSet
385 758 m 1
 415.3 647.2 l 2
 417.3 638.4 416.8 632.2 415.5 626 c 0
 414.6 621.6 408.1 616.4 401.9 616.4 c 0
 397.3 616.4 392.8 620.8 383.3 634 c 2
 315.9 729.9 l 1
 319.5 739.6 l 1
 326.8 744.9 347.6 759.8 373.8 759.8 c 0
 377.7 759.8 382.1 758.9 385 758 c 1
484.4 538 m 2
 240.4 538 l 2
 231.4 538 229 546 230.5 553 c 0
 233.1 565 247.7 582 258.7 582 c 2
 503.7 582 l 2
 513.7 582 516 574 514.7 568 c 0
 512.2 556 497.4 538 484.4 538 c 2
EndSplineSet
Refer: 733 959 N 1 0 0 1 0 0 2
Colour: ff00ff
EndChar

StartChar: uni1E52
Encoding: 7762 7762 211
Width: 721
GlyphClass: 2
Flags: MW
LayerCount: 2
Fore
SplineSet
589.7 733 m 2
 382.3 733 l 2
 374.7 733 372.9 741 374.4 748 c 0
 376.9 760 389.9 777 399.3 777 c 2
 607.5 777 l 2
 616 777 617.7 769 616.4 763 c 0
 613.8 751 600.8 733 589.7 733 c 2
779.2 804.8 m 1
 798.8 793.1 811.4 777.9 817.2 759.1 c 1
 695.5 708 l 2
 677.6 700.1 667.8 697.5 660.9 697.5 c 0
 654 697.5 650.6 703.7 652.1 710.7 c 0
 653.4 716.9 655.9 721.3 667.6 729.2 c 2
 779.2 804.8 l 1
EndSplineSet
Refer: 702 927 N 1 0 0 1 0 0 2
Colour: ff00ff
EndChar

StartChar: uni1E53
Encoding: 7763 7763 212
Width: 510
GlyphClass: 2
Flags: MW
LayerCount: 2
Fore
SplineSet
446 767 m 1
 448.5 767.9 453.3 768.8 457.2 768.8 c 0
 462.1 768.8 481.6 768 495.2 748.6 c 1
 495.5 738.9 l 1
 386.5 643 l 2
 372.1 629.8 365.3 626.2 359.9 626.2 c 0
 354.5 626.2 350.2 631.5 351.5 637.7 c 0
 353.6 647.6 356.9 651 365.6 662.3 c 2
 446 767 l 1
484.4 538 m 2
 240.4 538 l 2
 231.4 538 229 546 230.5 553 c 0
 233.1 565 247.7 582 258.7 582 c 2
 503.7 582 l 2
 513.7 582 516 574 514.7 568 c 0
 512.2 556 497.4 538 484.4 538 c 2
EndSplineSet
Refer: 733 959 N 1 0 0 1 0 0 2
Colour: ff00ff
EndChar

StartChar: uni1E54
Encoding: 7764 7764 213
Width: 522
GlyphClass: 2
Flags: MW
LayerCount: 2
Fore
SplineSet
518.1 819 m 1
 543.9 805.7 560.8 788.3 569 767 c 1
 412.7 709 l 2
 389.8 700 377.2 697 368.2 697 c 0
 359.2 697 354.6 704 356.3 712 c 0
 357.8 719 360.9 724 375.8 733 c 2
 518.1 819 l 1
EndSplineSet
Refer: 704 929 N 1 0 0 1 0 0 2
Colour: ff00ff
EndChar

StartChar: uni1E55
Encoding: 7765 7765 214
Width: 506
GlyphClass: 2
Flags: MW
LayerCount: 2
Fore
SplineSet
219 301 m 1
 171.4 77 l 1
 197.7 36 229.2 34 245.2 34 c 0
 352.2 34 396.8 126 414.2 208 c 0
 438.2 321 401.4 383 340.4 383 c 0
 306.4 383 252.3 354 219 301 c 1
68.2 -32 m 2
 125 235 l 2
 140.9 309.7 151 368.3 152.4 411 c 1
 155 414 l 1
 196.1 417 220.1 429 247.3 439 c 1
 253.6 439 255.7 436 254.2 429 c 1
 242.8 398.7 230.3 360 230.3 360 c 1
 232.5 360 l 1
 293.4 430 347.3 439 379.3 439 c 0
 476.3 439 538.5 341 516 235 c 0
 486.1 94.1 371.1 -10 241.9 -10 c 0
 205.9 -10 180.6 -2 157.6 12 c 1
 148.2 -32 l 2
 132.2 -107.2 119.3 -175 115.7 -232 c 1
 113 -235 l 1
 113 -235 100 -232 65.7 -232 c 0
 30.7 -232 16 -235 16 -235 c 1
 15.7 -232 l 1
 35.6 -178.5 52.4 -106.5 68.2 -32 c 2
EndSplineSet
Refer: 331 180 N 1 0 0 1 131.2 -32 2
Colour: ff00ff
EndChar

StartChar: uni1E56
Encoding: 7766 7766 215
Width: 522
GlyphClass: 2
Flags: MW
LayerCount: 2
Fore
SplineSet
391.4 750 m 0
 397.1 777 426.3 801 453.3 801 c 0
 480.3 801 499.1 777 493.4 750 c 0
 487.7 723 458.6 699 431.6 699 c 0
 404.6 699 385.7 723 391.4 750 c 0
EndSplineSet
Refer: 704 929 N 1 0 0 1 0 0 2
Colour: ff00ff
EndChar

StartChar: uni1E57
Encoding: 7767 7767 216
Width: 506
GlyphClass: 2
Flags: MW
LayerCount: 2
Fore
SplineSet
219 301 m 1
 171.4 77 l 1
 197.7 36 229.2 34 245.2 34 c 0
 352.2 34 396.8 126 414.2 208 c 0
 438.2 321 401.4 383 340.4 383 c 0
 306.4 383 252.3 354 219 301 c 1
68.2 -32 m 2
 125 235 l 2
 140.9 309.7 151 368.3 152.4 411 c 1
 155 414 l 1
 196.1 417 220.1 429 247.3 439 c 1
 253.6 439 255.7 436 254.2 429 c 1
 242.8 398.7 230.3 360 230.3 360 c 1
 232.5 360 l 1
 293.4 430 347.3 439 379.3 439 c 0
 476.3 439 538.5 341 516 235 c 0
 486.1 94.1 371.1 -10 241.9 -10 c 0
 205.9 -10 180.6 -2 157.6 12 c 1
 148.2 -32 l 2
 132.2 -107.2 119.3 -175 115.7 -232 c 1
 113 -235 l 1
 113 -235 100 -232 65.7 -232 c 0
 30.7 -232 16 -235 16 -235 c 1
 15.7 -232 l 1
 35.6 -178.5 52.4 -106.5 68.2 -32 c 2
EndSplineSet
Refer: 673 775 N 1 0 0 1 433 -33 2
Colour: ff00ff
EndChar

StartChar: uni1E58
Encoding: 7768 7768 217
Width: 579
GlyphClass: 2
Flags: MW
LayerCount: 2
Fore
SplineSet
383.4 750 m 0
 389.1 777 418.3 801 445.3 801 c 0
 472.3 801 491.1 777 485.4 750 c 0
 479.7 723 450.6 699 423.6 699 c 0
 396.6 699 377.7 723 383.4 750 c 0
402.3 613 m 0
 331.3 613 316.1 598 309.9 569 c 2
 259.1 330 l 1
 307.1 330 l 2
 404.1 330 476 353 502.6 478 c 0
 527.7 596 463.3 613 402.3 613 c 0
249.8 286 m 1
 231.5 200 l 2
 215.6 125 203.1 57 199 0 c 1
 196.4 -3 l 1
 196.4 -3 180 0 146 0 c 0
 111 0 93.4 -3 93.4 -3 c 1
 93 0 l 1
 112.5 54 129.6 125 145.5 200 c 2
 197.6 445 l 2
 213.5 520 226 588 230.1 645 c 1
 232.7 648 l 1
 232.7 648 249.1 645 283.1 645 c 0
 313.1 645 384.6 652 409.6 652 c 0
 472.6 652 535 649 573.4 604 c 0
 602.2 570 610.4 529 599.8 479 c 0
 582.4 397 525.3 345 465.6 318 c 0
 451.1 311.3 434.8 305.1 413.5 300 c 1
 459.4 215.9 531 56.7 569 0 c 1
 566.4 -3 l 1
 547 0 535 0 515 0 c 0
 496 0 466 0 446.4 -3 c 1
 442.6 31 412.1 104 377.4 176 c 0
 358.2 214.9 337.7 254.6 315.5 287.5 c 1
 296.1 286.5 274.4 286 249.8 286 c 1
EndSplineSet
Colour: ff00ff
EndChar

StartChar: uni1E5A
Encoding: 7770 7770 219
Width: 579
GlyphClass: 2
Flags: MW
LayerCount: 2
Fore
SplineSet
402.3 613 m 0
 331.3 613 316.1 598 309.9 569 c 2
 259.1 330 l 1
 307.1 330 l 2
 404.1 330 476 353 502.6 478 c 0
 527.7 596 463.3 613 402.3 613 c 0
249.8 286 m 1
 231.5 200 l 2
 215.6 125 203.1 57 199 0 c 1
 196.4 -3 l 1
 196.4 -3 180 0 146 0 c 0
 111 0 93.4 -3 93.4 -3 c 1
 93 0 l 1
 112.5 54 129.6 125 145.5 200 c 2
 197.6 445 l 2
 213.5 520 226 588 230.1 645 c 1
 232.7 648 l 1
 232.7 648 249.1 645 283.1 645 c 0
 313.1 645 384.6 652 409.6 652 c 0
 472.6 652 535 649 573.4 604 c 0
 602.2 570 610.4 529 599.8 479 c 0
 582.4 397 525.3 345 465.6 318 c 0
 451.1 311.3 434.8 305.1 413.5 300 c 1
 459.4 215.9 531 56.7 569 0 c 1
 566.4 -3 l 1
 547 0 535 0 515 0 c 0
 496 0 466 0 446.4 -3 c 1
 442.6 31 412.1 104 377.4 176 c 0
 358.2 214.9 337.7 254.6 315.5 287.5 c 1
 296.1 286.5 274.4 286 249.8 286 c 1
EndSplineSet
Refer: 673 775 N 1 0 0 1 320.2 -719 2
Colour: ff00ff
EndChar

StartChar: uni1E5C
Encoding: 7772 7772 221
Width: 579
GlyphClass: 2
Flags: MW
LayerCount: 2
Fore
SplineSet
542.8 733 m 2
 298.8 733 l 2
 289.8 733 287.5 741 289 748 c 0
 291.6 760 306.2 777 317.2 777 c 2
 562.2 777 l 2
 572.2 777 574.5 769 573.2 763 c 0
 570.6 751 555.8 733 542.8 733 c 2
EndSplineSet
Refer: 219 7770 N 1 0 0 1 0 0 2
Colour: ff00ff
EndChar

StartChar: uni1E5D
Encoding: 7773 7773 222
Width: 347
GlyphClass: 2
Flags: MW
LayerCount: 2
Fore
SplineSet
422 541 m 2
 178 541 l 2
 169 541 166.7 549 168.2 556 c 0
 170.7 568 185.3 585 196.3 585 c 2
 441.3 585 l 2
 451.3 585 453.7 577 452.4 571 c 0
 449.8 559 435 541 422 541 c 2
EndSplineSet
Refer: 220 7771 N 1 0 0 1 0 0 3
Colour: ff00ff
EndChar

StartChar: uni1E5E
Encoding: 7774 7774 223
Width: 579
GlyphClass: 2
Flags: MW
LayerCount: 2
Fore
SplineSet
410.3 -107 m 2
 165.3 -107 l 2
 157.3 -107 154.9 -99 156.4 -92 c 0
 159 -80 172.6 -63 184.6 -63 c 2
 429.6 -63 l 2
 438.6 -63 441.1 -70 439.6 -77 c 0
 437 -89 423.3 -107 410.3 -107 c 2
402.3 613 m 0
 331.3 613 316.1 598 309.9 569 c 2
 259.1 330 l 1
 307.1 330 l 2
 404.1 330 476 353 502.6 478 c 0
 527.7 596 463.3 613 402.3 613 c 0
249.8 286 m 1
 231.5 200 l 2
 215.6 125 203.1 57 199 0 c 1
 196.4 -3 l 1
 196.4 -3 180 0 146 0 c 0
 111 0 93.4 -3 93.4 -3 c 1
 93 0 l 1
 112.5 54 129.6 125 145.5 200 c 2
 197.6 445 l 2
 213.5 520 226 588 230.1 645 c 1
 232.7 648 l 1
 232.7 648 249.1 645 283.1 645 c 0
 313.1 645 384.6 652 409.6 652 c 0
 472.6 652 535 649 573.4 604 c 0
 602.2 570 610.4 529 599.8 479 c 0
 582.4 397 525.3 345 465.6 318 c 0
 451.1 311.3 434.8 305.1 413.5 300 c 1
 459.4 215.9 531 56.7 569 0 c 1
 566.4 -3 l 1
 547 0 535 0 515 0 c 0
 496 0 466 0 446.4 -3 c 1
 442.6 31 412.1 104 377.4 176 c 0
 358.2 214.9 337.7 254.6 315.5 287.5 c 1
 296.1 286.5 274.4 286 249.8 286 c 1
EndSplineSet
Colour: ff00ff
EndChar

StartChar: uni1E5F
Encoding: 7775 7775 224
Width: 347
GlyphClass: 2
Flags: MW
LayerCount: 2
Fore
SplineSet
251.7 -105 m 2
 6.7 -105 l 2
 -1.3 -105 -3.6 -97 -2.1 -90 c 0
 0.5 -78 14 -61 26 -61 c 2
 271 -61 l 2
 280 -61 282.6 -68 281.1 -75 c 0
 278.5 -87 264.7 -105 251.7 -105 c 2
EndSplineSet
Refer: 298 114 N 1 0 0 1 0 1.5 3
Colour: ff00ff
EndChar

StartChar: uni1E60
Encoding: 7776 7776 225
Width: 480
GlyphClass: 2
Flags: MW
LayerCount: 2
Fore
SplineSet
329.4 750 m 0
 335.1 777 364.3 801 391.3 801 c 0
 418.3 801 437.1 777 431.4 750 c 0
 425.7 723 396.6 699 369.6 699 c 0
 342.6 699 323.7 723 329.4 750 c 0
EndSplineSet
Refer: 763 1029 N 1 0 0 1 0 0 2
Colour: ff00ff
EndChar

StartChar: uni1E64
Encoding: 7780 7780 229
Width: 480
GlyphClass: 2
Flags: MW
LayerCount: 2
Fore
SplineSet
507.1 819 m 1
 532.9 805.7 549.8 788.3 558 767 c 1
 401.7 709 l 2
 378.8 700 366.2 697 357.2 697 c 0
 348.2 697 343.6 704 345.3 712 c 0
 346.8 719 349.9 724 364.8 733 c 2
 507.1 819 l 1
EndSplineSet
Refer: 673 775 N 1 0 0 1 335.5 167 2
Refer: 763 1029 N 1 0 0 1 0 0 2
Colour: ff00ff
EndChar

StartChar: uni1E65
Encoding: 7781 7781 230
Width: 366
GlyphClass: 2
Flags: MW
LayerCount: 2
Fore
SplineSet
185.4 630 m 0
 190.6 654.3 216.8 675.9 241.1 675.9 c 0
 265.4 675.9 282.4 654.3 277.2 630 c 0
 272 605.7 245.9 584.1 221.6 584.1 c 0
 197.3 584.1 180.2 605.7 185.4 630 c 0
EndSplineSet
Refer: 801 1109 N 1 0 0 1 0 0 2
Refer: 331 180 N 1 0 0 1 58.2 -32 2
Colour: ff00ff
EndChar

StartChar: uni1E66
Encoding: 7782 7782 231
Width: 480
GlyphClass: 2
Flags: MW
LayerCount: 2
Fore
SplineSet
366.6 845 m 0
 372.3 872 401.4 896 428.4 896 c 0
 455.4 896 474.3 872 468.6 845 c 0
 462.9 818 433.8 794 406.8 794 c 0
 379.8 794 360.9 818 366.6 845 c 0
363.2 697 m 1
 341.1 734 312.3 764 282.3 792 c 1
 302.6 812 l 1
 338 795 367.9 776 395.6 751 c 1
 438.1 777 474.2 796 515.6 812 c 1
 526.3 792 l 1
 482.1 763 443.4 731 406.2 697 c 1
 363.2 697 l 1
EndSplineSet
Refer: 763 1029 N 1 0 0 1 0 0 2
Colour: ff00ff
EndChar

StartChar: uni1E67
Encoding: 7783 7783 232
Width: 366
GlyphClass: 2
Flags: MW
LayerCount: 2
Fore
SplineSet
295.1 685 m 0
 300.3 709.3 326.5 730.9 350.8 730.9 c 0
 375.1 730.9 392.1 709.3 386.9 685 c 0
 381.7 660.7 355.5 639.1 331.2 639.1 c 0
 306.9 639.1 289.9 660.7 295.1 685 c 0
EndSplineSet
Refer: 467 353 N 1 0 0 1 0 0 2
Colour: ff00ff
EndChar

StartChar: uni1E68
Encoding: 7784 7784 233
Width: 480
GlyphClass: 2
Flags: MW
LayerCount: 2
Fore
SplineSet
336.2 749 m 0
 341.9 776 371 800 398 800 c 0
 425 800 443.9 776 438.2 749 c 0
 432.5 722 403.4 698 376.4 698 c 0
 349.4 698 330.5 722 336.2 749 c 0
EndSplineSet
Refer: 227 7778 N 1 0 0 1 0 0 2
Colour: ff00ff
EndChar

StartChar: uni1E6A
Encoding: 7786 7786 235
Width: 540
GlyphClass: 2
Flags: MW
LayerCount: 2
Fore
SplineSet
385 748 m 0
 390.7 775 419.8 799 446.8 799 c 0
 473.8 799 492.7 775 487 748 c 0
 481.3 721 452.2 697 425.2 697 c 0
 398.2 697 379.3 721 385 748 c 0
EndSplineSet
Refer: 269 84 N 1 0 0 1 0 0 2
Colour: ff00ff
EndChar

StartChar: uni1E6B
Encoding: 7787 7787 236
Width: 302
GlyphClass: 2
Flags: MW
LayerCount: 2
Fore
SplineSet
178.2 429 m 1
 190.5 487 195 508 196.9 550 c 1
 199.5 553 l 1
 240.6 556 258.7 568 285.9 578 c 1
 292.2 578 294.3 575.3 292.7 568 c 0
 275.9 510 274.1 503.8 258.2 429 c 1
 365.2 429 l 2
 370.2 429 372.8 427 371.9 423 c 2
 366.6 398 l 2
 364.7 389 349.8 385 339.8 385 c 2
 248.8 385 l 1
 218.4 242 l 2
 205.6 182 194.2 142 187.8 112 c 0
 179.1 71 180.6 50 207.6 50 c 0
 233.6 50 250.1 52.4 280 67.7 c 1
 286.5 40 l 1
 240.2 4 201.9 -10 159.9 -10 c 0
 113.9 -10 88.7 22 98.7 69 c 0
 105.1 99 123.3 171 136.1 231 c 2
 168.8 385 l 1
 105.8 385 l 2
 102.8 385 102.1 386 102.7 389 c 2
 110.3 425 l 2
 110.9 428 112.2 429 114.2 429 c 2
 178.2 429 l 1
EndSplineSet
Refer: 673 775 N 1 0 0 1 337.4 77 2
Colour: ff00ff
EndChar

StartChar: uni1E6D
Encoding: 7789 7789 238
Width: 302
GlyphClass: 2
Flags: MW
LayerCount: 2
Fore
SplineSet
178.2 429 m 1
 190.5 487 195 508 196.9 550 c 1
 199.5 553 l 1
 240.6 556 258.7 568 285.9 578 c 1
 292.2 578 294.3 575.3 292.7 568 c 0
 275.9 510 274.1 503.8 258.2 429 c 1
 365.2 429 l 2
 370.2 429 372.8 427 371.9 423 c 2
 366.6 398 l 2
 364.7 389 349.8 385 339.8 385 c 2
 248.8 385 l 1
 218.4 242 l 2
 205.6 182 194.2 142 187.8 112 c 0
 179.1 71 180.6 50 207.6 50 c 0
 233.6 50 250.1 52.4 280 67.7 c 1
 286.5 40 l 1
 240.2 4 201.9 -10 159.9 -10 c 0
 113.9 -10 88.7 22 98.7 69 c 0
 105.1 99 123.3 171 136.1 231 c 2
 168.8 385 l 1
 105.8 385 l 2
 102.8 385 102.1 386 102.7 389 c 2
 110.3 425 l 2
 110.9 428 112.2 429 114.2 429 c 2
 178.2 429 l 1
EndSplineSet
Refer: 673 775 N 1 0 0 1 209.2 -719 2
Colour: ff00ff
EndChar

StartChar: uni1E6E
Encoding: 7790 7790 239
Width: 540
GlyphClass: 2
Flags: MW
LayerCount: 2
Fore
SplineSet
366.2 -112 m 2
 121.2 -112 l 2
 113.2 -112 110.9 -104 112.4 -97 c 0
 115 -85 128.5 -68 140.5 -68 c 2
 385.5 -68 l 2
 394.5 -68 397.1 -75 395.6 -82 c 0
 393 -94 379.2 -112 366.2 -112 c 2
EndSplineSet
Refer: 269 84 N 1 0 0 1 0 0 2
Colour: ff00ff
EndChar

StartChar: uni1E6F
Encoding: 7791 7791 240
Width: 302
GlyphClass: 2
Flags: MW
LayerCount: 2
Fore
SplineSet
257.2 -112 m 2
 12.2 -112 l 2
 4.2 -112 1.9 -104 3.4 -97 c 0
 6 -85 19.5 -68 31.5 -68 c 2
 276.5 -68 l 2
 285.5 -68 288.1 -75 286.6 -82 c 0
 284 -94 270.2 -112 257.2 -112 c 2
178.2 429 m 1
 190.5 487 195 508 196.9 550 c 1
 199.5 553 l 1
 240.6 556 258.7 568 285.9 578 c 1
 292.2 578 294.3 575.3 292.7 568 c 0
 275.9 510 274.1 503.8 258.2 429 c 1
 365.2 429 l 2
 370.2 429 372.8 427 371.9 423 c 2
 366.6 398 l 2
 364.7 389 349.8 385 339.8 385 c 2
 248.8 385 l 1
 218.4 242 l 2
 205.6 182 194.2 142 187.8 112 c 0
 179.1 71 180.6 50 207.6 50 c 0
 233.6 50 250.1 52.4 280 67.7 c 1
 286.5 40 l 1
 240.2 4 201.9 -10 159.9 -10 c 0
 113.9 -10 88.7 22 98.7 69 c 0
 105.1 99 123.3 171 136.1 231 c 2
 168.8 385 l 1
 105.8 385 l 2
 102.8 385 102.1 386 102.7 389 c 2
 110.3 425 l 2
 110.9 428 112.2 429 114.2 429 c 2
 178.2 429 l 1
EndSplineSet
Colour: ff00ff
EndChar

StartChar: uni1E71
Encoding: 7793 7793 242
Width: 302
GlyphClass: 2
Flags: MW
LayerCount: 2
Fore
SplineSet
178.2 429 m 1
 190.5 487 195 508 196.9 550 c 1
 199.5 553 l 1
 240.6 556 258.7 568 285.9 578 c 1
 292.2 578 294.3 575.3 292.7 568 c 0
 275.9 510 274.1 503.8 258.2 429 c 1
 365.2 429 l 2
 370.2 429 372.8 427 371.9 423 c 2
 366.6 398 l 2
 364.7 389 349.8 385 339.8 385 c 2
 248.8 385 l 1
 218.4 242 l 2
 205.6 182 194.2 142 187.8 112 c 0
 179.1 71 180.6 50 207.6 50 c 0
 233.6 50 250.1 52.4 280 67.7 c 1
 286.5 40 l 1
 240.2 4 201.9 -10 159.9 -10 c 0
 113.9 -10 88.7 22 98.7 69 c 0
 105.1 99 123.3 171 136.1 231 c 2
 168.8 385 l 1
 105.8 385 l 2
 102.8 385 102.1 386 102.7 389 c 2
 110.3 425 l 2
 110.9 428 112.2 429 114.2 429 c 2
 178.2 429 l 1
EndSplineSet
Refer: 656 710 N 1 0 0 1 -159.1 -725 2
Colour: ff00ff
EndChar

StartChar: uni1E72
Encoding: 7794 7794 243
Width: 661
GlyphClass: 2
Flags: MW
LayerCount: 2
Fore
SplineSet
615.6 445 m 2
 631.5 520 644 588 648.1 645 c 1
 650.7 648 l 1
 650.7 648 660.8 645 685.1 645 c 0
 707.4 645 720.7 648 720.7 648 c 1
 721.1 645 l 1
 701.8 592 684.5 520 668.6 445 c 2
 636.7 295 l 2
 598.9 117 523.9 -10 318.9 -10 c 0
 228.9 -10 92.8 32 136.2 236 c 2
 180.6 445 l 2
 196.5 520 209 588 213.1 645 c 1
 215.7 648 l 1
 215.7 648 232.1 645 266.1 645 c 0
 301.1 645 318.7 648 318.7 648 c 1
 319.1 645 l 1
 299.8 592 282.5 520 266.6 445 c 2
 229.2 269 l 2
 217.7 215 182.7 41 350.7 41 c 0
 519.7 41 556.1 165 579.9 277 c 2
 615.6 445 l 2
EndSplineSet
Refer: 319 168 N 1 0 0 1 5.2 -686 2
Colour: ff00ff
EndChar

StartChar: uni1E73
Encoding: 7795 7795 244
Width: 521
GlyphClass: 2
Flags: MW
LayerCount: 2
Fore
SplineSet
363.6 64 m 1
 294.8 4 250.9 -10 209.9 -10 c 0
 110.9 -10 96.1 57 110.8 126 c 2
 136.9 249 l 2
 153.1 325 162.1 372 165.2 429 c 1
 167.8 432 l 1
 167.8 432 181.2 429 215.2 429 c 0
 250.2 429 264.8 432 264.8 432 c 1
 265.2 429 l 1
 244.9 376 232.8 324 216.9 249 c 2
 195.9 150 l 2
 177 61 217.6 45 247.6 45 c 0
 292.4 45 342.7 88.2 375.3 119 c 1
 402.9 249 l 2
 419.1 325 428.1 372 431.2 429 c 1
 433.8 432 l 1
 433.8 432 447.2 429 481.2 429 c 0
 516.2 429 530.8 432 530.8 432 c 1
 531.2 429 l 1
 510.9 376 498.8 324 482.9 249 c 2
 470.8 192 l 2
 454.9 117 448.1 43 447 0 c 1
 444.4 -3 l 1
 431.8 -1 413.1 0 400.5 0 c 0
 386 0 379.1 -1.3 365.4 -3 c 0
 359.4 -3 356.6 -2 357 0 c 2
 365.6 64 l 1
 363.6 64 l 1
EndSplineSet
Refer: 319 168 N 1 0 0 1 -74.8 -686 2
Colour: ff00ff
EndChar

StartChar: uni1E74
Encoding: 7796 7796 245
Width: 661
GlyphClass: 2
Flags: MW
LayerCount: 2
Fore
SplineSet
615.6 445 m 2
 631.5 520 644 588 648.1 645 c 1
 650.7 648 l 1
 650.7 648 660.8 645 685.1 645 c 0
 707.4 645 720.7 648 720.7 648 c 1
 721.1 645 l 1
 701.8 592 684.5 520 668.6 445 c 2
 636.7 295 l 2
 598.9 117 523.9 -10 318.9 -10 c 0
 228.9 -10 92.8 32 136.2 236 c 2
 180.6 445 l 2
 196.5 520 209 588 213.1 645 c 1
 215.7 648 l 1
 215.7 648 232.1 645 266.1 645 c 0
 301.1 645 318.7 648 318.7 648 c 1
 319.1 645 l 1
 299.8 592 282.5 520 266.6 445 c 2
 229.2 269 l 2
 217.7 215 182.7 41 350.7 41 c 0
 519.7 41 556.1 165 579.9 277 c 2
 615.6 445 l 2
EndSplineSet
Refer: 1685 834 N 1 0 0 1 442 -668 2
Colour: ff00ff
EndChar

StartChar: uni1E75
Encoding: 7797 7797 246
Width: 521
GlyphClass: 2
Flags: MW
LayerCount: 2
Fore
SplineSet
363.6 64 m 1
 294.8 4 250.9 -10 209.9 -10 c 0
 110.9 -10 96.1 57 110.8 126 c 2
 136.9 249 l 2
 153.1 325 162.1 372 165.2 429 c 1
 167.8 432 l 1
 167.8 432 181.2 429 215.2 429 c 0
 250.2 429 264.8 432 264.8 432 c 1
 265.2 429 l 1
 244.9 376 232.8 324 216.9 249 c 2
 195.9 150 l 2
 177 61 217.6 45 247.6 45 c 0
 292.4 45 342.7 88.2 375.3 119 c 1
 402.9 249 l 2
 419.1 325 428.1 372 431.2 429 c 1
 433.8 432 l 1
 433.8 432 447.2 429 481.2 429 c 0
 516.2 429 530.8 432 530.8 432 c 1
 531.2 429 l 1
 510.9 376 498.8 324 482.9 249 c 2
 470.8 192 l 2
 454.9 117 448.1 43 447 0 c 1
 444.4 -3 l 1
 431.8 -1 413.1 0 400.5 0 c 0
 386 0 379.1 -1.3 365.4 -3 c 0
 359.4 -3 356.6 -2 357 0 c 2
 365.6 64 l 1
 363.6 64 l 1
EndSplineSet
Refer: 1685 834 N 1 0 0 1 361 -668 2
Colour: ff00ff
EndChar

StartChar: uni1E76
Encoding: 7798 7798 247
Width: 661
GlyphClass: 2
Flags: MW
LayerCount: 2
Fore
SplineSet
615.6 445 m 2
 631.5 520 644 588 648.1 645 c 1
 650.7 648 l 1
 650.7 648 660.8 645 685.1 645 c 0
 707.4 645 720.7 648 720.7 648 c 1
 721.1 645 l 1
 701.8 592 684.5 520 668.6 445 c 2
 636.7 295 l 2
 598.9 117 523.9 -10 318.9 -10 c 0
 228.9 -10 92.8 32 136.2 236 c 2
 180.6 445 l 2
 196.5 520 209 588 213.1 645 c 1
 215.7 648 l 1
 215.7 648 232.1 645 266.1 645 c 0
 301.1 645 318.7 648 318.7 648 c 1
 319.1 645 l 1
 299.8 592 282.5 520 266.6 445 c 2
 229.2 269 l 2
 217.7 215 182.7 41 350.7 41 c 0
 519.7 41 556.1 165 579.9 277 c 2
 615.6 445 l 2
EndSplineSet
Refer: 656 710 N 1 0 0 1 1.7 -726 2
Colour: ff00ff
EndChar

StartChar: uni1E77
Encoding: 7799 7799 248
Width: 521
GlyphClass: 2
Flags: MW
LayerCount: 2
Fore
SplineSet
363.6 64 m 1
 294.8 4 250.9 -10 209.9 -10 c 0
 110.9 -10 96.1 57 110.8 126 c 2
 136.9 249 l 2
 153.1 325 162.1 372 165.2 429 c 1
 167.8 432 l 1
 167.8 432 181.2 429 215.2 429 c 0
 250.2 429 264.8 432 264.8 432 c 1
 265.2 429 l 1
 244.9 376 232.8 324 216.9 249 c 2
 195.9 150 l 2
 177 61 217.6 45 247.6 45 c 0
 292.4 45 342.7 88.2 375.3 119 c 1
 402.9 249 l 2
 419.1 325 428.1 372 431.2 429 c 1
 433.8 432 l 1
 433.8 432 447.2 429 481.2 429 c 0
 516.2 429 530.8 432 530.8 432 c 1
 531.2 429 l 1
 510.9 376 498.8 324 482.9 249 c 2
 470.8 192 l 2
 454.9 117 448.1 43 447 0 c 1
 444.4 -3 l 1
 431.8 -1 413.1 0 400.5 0 c 0
 386 0 379.1 -1.3 365.4 -3 c 0
 359.4 -3 356.6 -2 357 0 c 2
 365.6 64 l 1
 363.6 64 l 1
EndSplineSet
Refer: 656 710 N 1 0 0 1 -81.1 -725 2
Colour: ff00ff
EndChar

StartChar: uni1E78
Encoding: 7800 7800 249
Width: 661
GlyphClass: 2
Flags: MW
LayerCount: 2
Fore
SplineSet
563.3 741.8 m 0
 582 741.8 596.2 752.8 617.9 799 c 1
 636.9 792.4 l 1
 612.7 726.4 581 693.4 541.9 693.4 c 0
 523.2 693.4 508.2 706.6 493.6 722 c 0
 480.9 734.1 467.4 746.2 452.9 746.2 c 0
 430.8 746.2 416.2 729.7 400 693.4 c 1
 380.8 698.9 l 1
 406.5 763.8 433.1 796.8 469.6 796.8 c 0
 495.1 796.8 510.5 781.4 524.2 766 c 0
 535 752.8 547.2 741.8 563.3 741.8 c 0
615.6 445 m 2
 631.5 520 644 588 648.1 645 c 1
 650.7 648 l 1
 650.7 648 660.8 645 685.1 645 c 0
 707.4 645 720.7 648 720.7 648 c 1
 721.1 645 l 1
 701.8 592 684.5 520 668.6 445 c 2
 636.7 295 l 2
 598.9 117 523.9 -10 318.9 -10 c 0
 228.9 -10 92.8 32 136.2 236 c 2
 180.6 445 l 2
 196.5 520 209 588 213.1 645 c 1
 215.7 648 l 1
 215.7 648 232.1 645 266.1 645 c 0
 301.1 645 318.7 648 318.7 648 c 1
 319.1 645 l 1
 299.8 592 282.5 520 266.6 445 c 2
 229.2 269 l 2
 217.7 215 182.7 41 350.7 41 c 0
 519.7 41 556.1 165 579.9 277 c 2
 615.6 445 l 2
770.9 831.8 m 1
 790.5 820.1 803.1 804.9 808.9 786.1 c 1
 687.2 735 l 2
 669.3 727.1 659.5 724.5 652.6 724.5 c 0
 645.7 724.5 642.4 730.7 643.9 737.7 c 0
 645.2 743.9 647.7 748.3 659.4 756.2 c 2
 770.9 831.8 l 1
EndSplineSet
Colour: ff00ff
EndChar

StartChar: uni1E79
Encoding: 7801 7801 250
Width: 521
GlyphClass: 2
Flags: MW
LayerCount: 2
Fore
SplineSet
486.3 778 m 1
 488.8 778.9 493.6 779.8 497.5 779.8 c 0
 502.4 779.8 521.9 779 535.5 759.6 c 1
 535.8 749.9 l 1
 426.9 654 l 2
 412.5 640.8 405.6 637.2 400.2 637.2 c 0
 394.8 637.2 390.6 642.5 391.9 648.7 c 0
 394 658.6 397.2 662 405.9 673.3 c 2
 486.3 778 l 1
EndSplineSet
Refer: 475 361 N 1 0 0 1 0 0 2
Colour: ff00ff
EndChar

StartChar: ampersand
Encoding: 38 38 252
Width: 705
GlyphClass: 2
Flags: MW
LayerCount: 2
Fore
SplineSet
321.8 338 m 1
 206.7 281 171.3 227 156.2 156 c 0
 135.4 58 189.7 27 252.7 27 c 0
 323.7 27 357.1 66 420.3 133 c 1
 379.2 208 328.3 317 321.8 338 c 1
375.4 411 m 1
 448.3 453 497.9 503 505.6 539 c 0
 515.2 584 496.4 609 455.4 609 c 0
 429.4 609 374.3 585 360.3 519 c 0
 355.4 496 357.2 457 375.4 411 c 1
472.8 192 m 1
 566.1 297 605.8 366 627.8 432 c 1
 637.2 429 656.2 429 666.2 429 c 0
 676.2 429 699.2 429 709.8 432 c 1
 656.6 365 522 187 492.5 153 c 1
 516.7 107 l 1
 538.3 63 564.4 44 580.4 44 c 0
 613.4 44 639.5 59 667.8 98 c 1
 682.1 90 l 1
 644.2 20 597.9 -10 562.9 -10 c 0
 531.9 -10 495.3 -8 462.1 57 c 1
 441 94 l 1
 381.6 31 322.9 -10 237.9 -10 c 0
 130.9 -10 52.1 38 79.3 166 c 0
 94.6 238 160 301 307.7 375 c 1
 282.2 434 279.8 479 287.9 517 c 0
 300.4 576 368.7 648 468.7 648 c 0
 538.7 648 586 602 572.6 539 c 0
 560.9 484 482.1 419 388.9 371 c 1
 391.2 363 l 1
 402.6 332 440 254 472.8 192 c 1
EndSplineSet
EndChar

StartChar: quotesingle
Encoding: 39 39 253
Width: 190
GlyphClass: 2
Flags: MW
LayerCount: 2
Fore
SplineSet
169.5 426 m 1
 169.5 426 177.4 585 179.3 594 c 0
 184 616 210.9 644 240.9 644 c 0
 266.9 644 272.3 627 268.9 611 c 0
 265.5 595 197.4 430 197.4 430 c 1
 169.5 426 l 1
EndSplineSet
EndChar

StartChar: comma
Encoding: 44 44 254
Width: 220
GlyphClass: 2
Flags: MW
LayerCount: 2
Fore
SplineSet
121.899414062 101.900390625 m 0
 156.147460938 102 183.2 61.8 169.4 -3 c 0
 154.5 -73 84 -122 21.7 -133 c 1
 16.2 -127.1 16.5 -117.9 22 -108 c 1
 76.8 -95 120.3 -50 124.8 -29 c 0
 130 -4.5 114.900390625 -3 101.489257812 -3.099609375 c 0
 72.5087890625 -3.099609375 53.560546875 20.419921875 59.1943359375 49.400390625 c 0
 64.8271484375 78.3798828125 92.9189453125 101.900390625 121.899414062 101.900390625 c 0
EndSplineSet
EndChar

StartChar: hyphen
Encoding: 45 45 255
Width: 333
GlyphClass: 2
Flags: MW
LayerCount: 2
Fore
SplineSet
323 223 m 2
 97 223 l 2
 89 223 85 229 85 236 c 0
 85 254 108 283 119 283 c 2
 348 283 l 2
 356 283 358 278 358 271 c 0
 358 257 337 223 323 223 c 2
EndSplineSet
EndChar

StartChar: period
Encoding: 46 46 256
Width: 220
GlyphClass: 2
Flags: MW
LayerCount: 2
Fore
SplineSet
63.5908203125 45.5 m 0
 69.6259765625 76.5498046875 99.724609375 101.75 130.774414062 101.75 c 0
 161.82421875 101.75 182.125976562 76.5498046875 176.090820312 45.5 c 0
 170.055664062 14.4501953125 139.95703125 -10.75 108.907226562 -10.75 c 0
 77.857421875 -10.75 57.5556640625 14.4501953125 63.5908203125 45.5 c 0
EndSplineSet
EndChar

StartChar: zero
Encoding: 48 48 257
Width: 444
GlyphClass: 2
Flags: MW
LayerCount: 2
Fore
SplineSet
334 571 m 0
 290 571 223 534 175 287 c 0
 167.7 249.7 159.5 197 159.5 149 c 0
 159.5 84.9 174.1 29 225 29 c 0
 242 29 291 39 328 122 c 0
 351 173 364 225 382 317 c 0
 392.7 372 397.3 417.5 397.3 453.9 c 0
 397.3 506.2 387.7 539.7 373 555 c 0
 364 565 350 571 334 571 c 0
216 -10 m 0
 124.1 -10 82.3 71.7 82.3 183.5 c 0
 82.3 216.5 85.9 252.1 93 289 c 0
 131 486 245 610 341 610 c 0
 376 610 405 600 426 575 c 0
 446.9 550.4 473.8 501.5 473.8 413.6 c 0
 473.8 383.5 470.7 348.8 463 309 c 0
 418 75 290 -10 216 -10 c 0
EndSplineSet
EndChar

StartChar: I
Encoding: 73 73 258
Width: 293
GlyphClass: 2
Flags: MW
AnchorPoint: "cedilla" 145.2 1 basechar 0
AnchorPoint: "below" 121.8 -109 basechar 0
AnchorPoint: "top_punkt" 294.8 700 basechar 0
AnchorPoint: "above" 315.6 798 basechar 0
LayerCount: 2
Fore
SplineSet
200.6 445 m 2
 216.5 520 229 588 233.1 645 c 1
 235.7 648 l 1
 235.7 648 252.1 645 286.1 645 c 0
 321.1 645 338.8 648 338.8 648 c 1
 339.1 645 l 1
 319.8 592 302.5 520 286.6 445 c 2
 234.5 200 l 2
 218.6 125 206.1 57 202 0 c 1
 199.4 -3 l 1
 199.4 -3 183 0 149 0 c 0
 114 0 96.4 -3 96.4 -3 c 1
 96 0 l 1
 115.5 54 132.6 125 148.5 200 c 2
 200.6 445 l 2
EndSplineSet
Position2: "'cpsp' Versalabstaende 1" dx=2 dy=0 dh=5 dv=0
EndChar

StartChar: J
Encoding: 74 74 259
Width: 311
GlyphClass: 2
Flags: MW
AnchorPoint: "top_punkt" 334.7 723 basechar 0
AnchorPoint: "above" 353.3 806 basechar 0
LayerCount: 2
Fore
SplineSet
158.5 95 m 2
 226.8 445 l 2
 241.4 520 252.7 588 255.8 645 c 1
 258.4 648 l 1
 258.4 648 274.8 645 308.8 645 c 0
 343.8 645 361.4 648 361.4 648 c 1
 361.8 645 l 1
 343.5 592 327.4 520 312.8 445 c 2
 248.8 117 l 2
 226.5 2.5 210.8 -27 144.3 -96 c 0
 91.8 -150 34.4 -172 -28.6 -172 c 0
 -47.6 -172 -64.8 -168 -71.8 -163 c 1
 -72.2 -160 l 1
 -57.5 -141 -40.5 -105 -28.2 -78 c 1
 -17 -77 l 1
 -9.9 -97 5.1 -112 34.1 -112 c 0
 113.1 -112 141.3 7 158.5 95 c 2
EndSplineSet
Position2: "'cpsp' Versalabstaende 1" dx=2 dy=0 dh=5 dv=0
EndChar

StartChar: K
Encoding: 75 75 260
Width: 607
GlyphClass: 2
Flags: MW
AnchorPoint: "cedilla" 147.8 -1 basechar 0
AnchorPoint: "below" 318.8 -109 basechar 0
AnchorPoint: "top_punkt" 487.8 719 basechar 0
AnchorPoint: "above" 505.6 798 basechar 0
LayerCount: 2
Fore
SplineSet
200.6 445 m 2
 216.5 520 229 588 233.1 645 c 1
 235.7 648 l 1
 235.7 648 252.1 645 286.1 645 c 0
 321.1 645 338.7 648 338.7 648 c 1
 339.1 645 l 1
 319.8 592 302.5 520 286.6 445 c 2
 265.1 344.1 l 2
 265.7 344.1 266.4 344 267.1 344 c 0
 271.1 344 283.5 346 293 353 c 2
 333 383.3 l 1
 429.9 458.5 515.7 558.6 612.7 648 c 1
 625.1 645 648.1 645 661.1 645 c 0
 676.1 645 696.1 645 712.7 648 c 1
 608.3 571 459 433 374.2 354 c 1
 373.8 352 l 1
 594.4 -3 l 1
 576 0 552 0 533 0 c 0
 516 0 488 0 470.4 -3 c 1
 404 108 315.7 281 283.4 322 c 0
 278.5 327 265.9 329 262.9 329 c 0
 262.6 329 262.2 329 261.9 329 c 2
 234.5 200 l 2
 218.6 125 206.1 57 202 0 c 1
 199.4 -3 l 1
 199.4 -3 183 0 149 0 c 0
 114 0 96.4 -3 96.4 -3 c 1
 96 0 l 1
 115.5 54 132.6 125 148.5 200 c 2
 200.6 445 l 2
EndSplineSet
Position2: "'cpsp' Versalabstaende 1" dx=2 dy=0 dh=5 dv=0
Colour: ff80cc
EndChar

StartChar: L
Encoding: 76 76 261
Width: 506
GlyphClass: 2
Flags: MW
AnchorPoint: "cedilla" 260.2 1 basechar 0
AnchorPoint: "below" 236.6 -110 basechar 0
AnchorPoint: "above" 319.9 804 basechar 0
AnchorPoint: "top_punkt" 301.3 721 basechar 0
LayerCount: 2
Fore
SplineSet
231.5 200 m 2
 227.9 183 206.6 78 208.5 54 c 1
 342.5 54 473 76 473 76 c 1
 474.2 72 l 1
 471.5 64 467.3 49 465.2 39 c 0
 463.1 29 463 14 461 0 c 1
 458.4 -3 l 1
 442.8 -1 420 0 399 0 c 2
 146 0 l 2
 112 0 93.4 -3 93.4 -3 c 1
 93 0 l 1
 112.5 54 129.6 125 145.5 200 c 2
 197.6 445 l 2
 213.5 520 225 588 229.1 645 c 1
 231.7 648 l 1
 231.7 648 249.1 645 283.1 645 c 0
 318.1 645 335.7 648 335.7 648 c 1
 336.1 645 l 1
 316.8 592 299.5 520 283.6 445 c 2
 231.5 200 l 2
EndSplineSet
Position2: "'cpsp' Versalabstaende 1" dx=2 dy=0 dh=5 dv=0
EndChar

StartChar: M
Encoding: 77 77 262
Width: 833
GlyphClass: 2
Flags: MW
AnchorPoint: "cedilla" 107.4 2 basechar 0
AnchorPoint: "below" 369.6 -110 basechar 0
AnchorPoint: "above" 587.9 804 basechar 0
AnchorPoint: "top_punkt" 569.3 721 basechar 0
LayerCount: 2
Fore
SplineSet
283.7 662 m 1
 309.7 662 l 1
 356.9 487.4 388.2 320.8 446 146.5 c 1
 813.7 662 l 1
 835.7 662 l 1
 812 419 787.5 214 772.4 -3 c 1
 758 0 738 0 723 0 c 0
 708 0 689 0 673.4 -3 c 1
 695 162.8 714.6 310.2 729 467.9 c 1
 612.2 313.1 515.5 166.7 407 0 c 1
 388 0 l 1
 348.4 152.9 313 306.4 265.9 466.1 c 1
 214.8 309.9 144.5 101.1 121.4 -3 c 1
 111 0 100 0 89 0 c 0
 77 0 62 0 50.4 -3 c 1
 128 207 220 461 283.7 662 c 1
EndSplineSet
Position2: "'cpsp' Versalabstaende 1" dx=2 dy=0 dh=5 dv=0
EndChar

StartChar: N
Encoding: 78 78 263
Width: 650
GlyphClass: 2
Flags: MW
AnchorPoint: "cedilla" 123.4 -3 basechar 0
AnchorPoint: "below" 324.8 -109 basechar 0
AnchorPoint: "above" 516.9 804 basechar 0
AnchorPoint: "top_punkt" 498.3 721 basechar 0
LayerCount: 2
Fore
SplineSet
195.6 445 m 2
 211.9 521.2 223 587 228.1 645 c 1
 230.7 648 l 1
 230.7 648 247.5 645 261.1 645 c 0
 265.6 645 285.5 647 285.5 647 c 1
 504.1 203 l 2
 532.2 145.9 543.9 146 550.8 178 c 2
 597.6 395 l 2
 622.4 510.1 643 590.5 664.1 645 c 1
 666.7 648 l 1
 666.7 648 676.8 645 701.1 645 c 0
 723.4 645 736.7 648 736.7 648 c 1
 737.1 645 l 1
 710.5 593 675.4 510.5 650.6 395 c 2
 570.5 21 l 2
 566.4 2 556.9 -10 542.9 -10 c 0
 526.9 -10 512.8 -1 505 14 c 2
 279.7 455 l 2
 254.7 504 260.4 499.9 247.3 439 c 2
 202.5 230 l 2
 181.9 133.7 163 54 144 0 c 1
 141.4 -3 l 1
 141.4 -3 131.3 0 107 0 c 0
 84.7 0 71.4 -3 71.4 -3 c 1
 71 0 l 1
 98 51.5 126.1 121 149.5 230 c 2
 195.6 445 l 2
EndSplineSet
Position2: "'cpsp' Versalabstaende 1" dx=2 dy=0 dh=5 dv=0
EndChar

StartChar: O
Encoding: 79 79 264
Width: 691
GlyphClass: 2
Flags: MW
AnchorPoint: "cedilla" 361 0 basechar 0
AnchorPoint: "below" 337 -113 basechar 0
AnchorPoint: "above" 536.9 804 basechar 0
AnchorPoint: "top_punkt" 518.3 721 basechar 0
LayerCount: 2
Fore
SplineSet
460.5 614 m 0
 412.8 614 362.7 595 319 550 c 0
 266.4 496 203.5 365 203.5 230.7 c 0
 203.5 101.4 273.2 34 371.2 34 c 0
 435.2 34 491.2 64.6 534.7 123 c 0
 582.2 186.7 626.9 318.1 626.9 434.5 c 0
 626.9 556.6 569.5 614 460.5 614 c 0
579.1 78.3 m 0
 515.4 21.9 434 -10 341.9 -10 c 0
 195.6 -10 98.6 78.9 98.6 226.7 c 0
 98.6 378.5 173.4 499.4 262.1 573.8 c 0
 325 626.6 401.5 658 482.9 658 c 0
 635 658 728.6 564.4 728.6 416 c 0
 728.6 268.8 651.1 142 579.1 78.3 c 0
EndSplineSet
Position2: "'cpsp' Versalabstaende 1" dx=2 dy=0 dh=5 dv=0
EndChar

StartChar: P
Encoding: 80 80 265
Width: 522
GlyphClass: 2
Flags: MW
AnchorPoint: "cedilla" 149.4 -3 basechar 0
AnchorPoint: "below" 216.6 -110 basechar 0
AnchorPoint: "above" 447.7 803 basechar 0
AnchorPoint: "top_punkt" 429 720 basechar 0
LayerCount: 2
Fore
SplineSet
311 574 m 2
 255.4 316 l 1
 266.9 309 297.2 306 322.2 306 c 0
 419.2 306 483 350 500.5 458 c 0
 521.2 586.2 469.4 618 400.4 618 c 0
 328.4 618 317.3 603 311 574 c 2
197.6 445 m 2
 213.5 520 226 588 230.1 645 c 1
 232.7 648 l 1
 232.7 648 249.1 645 283.1 645 c 0
 313.1 645 388.6 652 414.6 652 c 0
 599.6 652 610.5 535.6 601.3 476 c 0
 588 390 501 269 319 269 c 0
 284 269 267.6 272 247.1 279 c 1
 231.5 200 l 2
 216.6 124.8 203.1 57 199 0 c 1
 196.4 -3 l 1
 196.4 -3 180 0 146 0 c 0
 111 0 93.4 -3 93.4 -3 c 1
 93 0 l 1
 112.5 54 129.6 125 145.5 200 c 2
 197.6 445 l 2
EndSplineSet
Position2: "'cpsp' Versalabstaende 1" dx=2 dy=0 dh=5 dv=0
EndChar

StartChar: Q
Encoding: 81 81 266
Width: 701
GlyphClass: 2
Flags: MW
AnchorPoint: "above" 518.7 803 basechar 0
AnchorPoint: "top_punkt" 499 720 basechar 0
LayerCount: 2
Fore
SplineSet
460.5 614 m 0
 412.8 614 362.7 595 319 550 c 0
 266.4 496 203.5 365 203.5 230.7 c 0
 203.5 101.4 273.2 34 371.2 34 c 0
 435.2 34 491.2 64.6 534.7 123 c 0
 582.2 186.7 626.9 318.1 626.9 434.5 c 0
 626.9 556.6 569.5 614 460.5 614 c 0
541.3 49.1 m 1
 592.1 17.3 661.9 -39.7 763.6 -77 c 1
 762.4 -83 l 1
 722.4 -102 678.4 -125 656.2 -140 c 1
 559.2 -77.3 570.9 -59.9 457 8 c 1
 421.1 -3.8 382.6 -10 341.9 -10 c 0
 195.6 -10 98.6 78.9 98.6 226.7 c 0
 98.6 378.5 173.4 499.4 262.1 573.8 c 0
 325 626.6 401.5 658 482.9 658 c 0
 635 658 728.6 564.4 728.6 416 c 0
 728.6 268.8 651.1 142 579.1 78.3 c 0
 567.1 67.7 554.5 57.9 541.3 49.1 c 1
EndSplineSet
Position2: "'cpsp' Versalabstaende 1" dx=2 dy=0 dh=5 dv=0
Colour: ff80cc
EndChar

StartChar: R
Encoding: 82 82 267
Width: 579
GlyphClass: 2
Flags: MW
AnchorPoint: "cedilla" 147.8 -1 basechar 0
AnchorPoint: "below" 234.4 -111 basechar 0
AnchorPoint: "above" 440.7 808 basechar 0
AnchorPoint: "top_punkt" 422.1 725 basechar 0
LayerCount: 2
Fore
SplineSet
397.3 613 m 0
 326.3 613 316.1 598 309.9 569 c 2
 262.1 344.5 l 1
 305.1 344.5 l 2
 378.5 344.5 425.3 350.7 458 385 c 0
 484.8 413.1 501.2 432 501.2 510.2 c 0
 501.2 585.8 449 613 397.3 613 c 0
252.7 300.5 m 1
 231.5 200 l 2
 215.7 125 203.1 57 199 0 c 1
 196.4 -3 l 1
 196.4 -3 180 0 146 0 c 0
 111 0 93.4 -3 93.4 -3 c 1
 93 0 l 1
 112.5 54 129.6 125 145.5 200 c 2
 197.6 445 l 2
 213.5 520 226 588 230.1 645 c 1
 232.7 648 l 1
 232.7 648 249.1 645 283.1 645 c 0
 313.1 645 379.6 652 404.6 652 c 0
 503.3 652 596.1 615.8 596.1 508.5 c 0
 596.1 452.3 570.8 416.6 544 385 c 0
 501.7 335.2 429.3 313.2 376.8 304.9 c 1
 399.1 274.7 415.3 249.1 446.1 199.5 c 0
 491.4 126.5 560.1 33.3 594 0 c 1
 591.4 -3 l 1
 572 0 560 0 540 0 c 0
 521 0 490 0 470.4 -3 c 1
 453.4 27 408.7 101.5 367.4 168.5 c 0
 333.2 224 300.3 276.1 278.9 300.5 c 1
 252.7 300.5 l 1
EndSplineSet
Position2: "'cpsp' Versalabstaende 1" dx=2 dy=0 dh=5 dv=0
EndChar

StartChar: S
Encoding: 83 83 268
Width: 485
GlyphClass: 2
Flags: MW
AnchorPoint: "cedilla" 217.4 2 basechar 0
AnchorPoint: "below" 213.4 -111 basechar 0
AnchorPoint: "above" 425.7 803 basechar 0
AnchorPoint: "top_punkt" 407 720 basechar 0
LayerCount: 2
Fore
SplineSet
236 33 m 0
 285.4 33 368.9 70 386.1 151 c 0
 404.8 239 363.3 265 307.4 289 c 0
 223.8 324 129.9 373.1 154.1 485 c 0
 180 605 296.9 658 383.9 658 c 0
 505.9 658 532.3 613 532.3 613 c 1
 533.7 610 l 1
 518.3 580 505 550 493.3 514 c 1
 483 513 l 1
 468.2 575 438.4 618 366.4 618 c 0
 315 618 249.8 573 236.8 512 c 0
 219.2 429 302.8 394 341.6 379 c 0
 419.2 349 506 302 481.5 186 c 0
 456 65 332.9 -10 217.9 -10 c 0
 95.9 -10 46.4 35 46.4 35 c 1
 45.1 38 l 1
 59.5 68 74.2 100 85.9 136 c 1
 96.1 137 l 1
 110.9 75 164 33 236 33 c 0
EndSplineSet
Position2: "'cpsp' Versalabstaende 1" dx=2 dy=0 dh=5 dv=0
EndChar

StartChar: T
Encoding: 84 84 269
Width: 540
GlyphClass: 2
Flags: MW
AnchorPoint: "cedilla" 266.2 1 basechar 0
AnchorPoint: "below" 250.3 -107 basechar 0
AnchorPoint: "above" 440.7 803 basechar 0
AnchorPoint: "top_punkt" 421 720 basechar 0
LayerCount: 2
Fore
SplineSet
321.6 445 m 2
 325.2 462 345.5 562 343.6 586 c 1
 209.6 586 139 574 139 574 c 1
 137.9 578 l 1
 143.1 593 148.1 617 152.1 645 c 1
 154.7 648 l 1
 170.3 646 193.1 645 214.1 645 c 2
 600.1 645 l 2
 621.1 645 644.3 646 660.7 648 c 1
 662.1 645 l 1
 654.1 617 649.1 593 647.9 578 c 1
 645 574 l 1
 645 574 579.6 586 445.6 586 c 1
 433.5 562 411.2 462 407.6 445 c 2
 355.5 200 l 2
 339.6 125 327.1 57 323 0 c 1
 320.4 -3 l 1
 320.4 -3 304 0 270 0 c 0
 235 0 217.4 -3 217.4 -3 c 1
 217 0 l 1
 236.5 54 253.6 125 269.5 200 c 2
 321.6 445 l 2
EndSplineSet
Position2: "'cpsp' Versalabstaende 1" dx=2 dy=0 dh=5 dv=0
EndChar

StartChar: U
Encoding: 85 85 270
Width: 651
GlyphClass: 2
Flags: MW
AnchorPoint: "cedilla" 328.9 4 basechar 0
AnchorPoint: "below" 304.8 -109 basechar 0
AnchorPoint: "above" 517.1 805 basechar 0
AnchorPoint: "top_punkt" 498.5 722 basechar 0
LayerCount: 2
Fore
SplineSet
605.6 445 m 2
 621.5 520 634 588 638.1 645 c 1
 640.7 648 l 1
 640.7 648 650.8 645 675.1 645 c 0
 697.4 645 710.7 648 710.7 648 c 1
 711.1 645 l 1
 691.8 592 674.5 520 658.6 445 c 2
 626.7 295 l 2
 588.9 117 513.9 -10 308.9 -10 c 0
 218.9 -10 92.8 32 136.2 236 c 2
 180.6 445 l 2
 196.5 520 209 588 213.1 645 c 1
 215.7 648 l 1
 215.7 648 232.1 645 266.1 645 c 0
 301.1 645 318.7 648 318.7 648 c 1
 319.1 645 l 1
 299.8 592 282.5 520 266.6 445 c 2
 229.2 269 l 2
 217.7 215 172.7 41 340.7 41 c 0
 509.7 41 546.1 165 569.9 277 c 2
 605.6 445 l 2
EndSplineSet
Position2: "'cpsp' Versalabstaende 1" dx=2 dy=0 dh=5 dv=0
EndChar

StartChar: V
Encoding: 86 86 271
Width: 601
GlyphClass: 2
Flags: MW
AnchorPoint: "cedilla" 303.6 3 basechar 0
AnchorPoint: "below" 280 -108 basechar 0
AnchorPoint: "above" 502.1 805 basechar 0
AnchorPoint: "top_punkt" 482.5 722 basechar 0
LayerCount: 2
Fore
SplineSet
352.1 132.3 m 1
 459.1 298.3 574 519.4 635.7 648 c 1
 647.1 645 674.1 645 685.1 645 c 0
 696.1 645 708.1 645 720.7 648 c 1
 572.7 427 459.1 212 315.9 -10 c 1
 287.9 -10 l 1
 242.5 209 182.2 547 153.7 648 c 1
 170.1 645 196.1 645 213.1 645 c 0
 230.1 645 251.1 645 268.7 648 c 1
 271.2 613.4 283.4 436.1 350.1 132.3 c 1
 352.1 132.3 l 1
EndSplineSet
Position2: "'cpsp' Versalabstaende 1" dx=2 dy=0 dh=5 dv=0
EndChar

StartChar: W
Encoding: 87 87 272
Width: 903
GlyphClass: 2
Flags: MW
AnchorPoint: "cedilla" 295 0 basechar 0
AnchorPoint: "below" 426.3 -107 basechar 0
AnchorPoint: "above" 601.1 805 basechar 0
AnchorPoint: "top_punkt" 582.5 722 basechar 0
LayerCount: 2
Fore
SplineSet
664.1 137 m 1
 771.4 303 873.3 519 934.7 648 c 1
 946.1 645 973.1 645 984.1 645 c 0
 995.1 645 1010.1 645 1022.7 648 c 1
 874.7 427 771.1 212 627.9 -10 c 1
 599.9 -10 l 1
 578.9 91 557 217.4 536.6 334.1 c 1
 317.9 -10 l 1
 289.9 -10 l 1
 244.5 209 184.2 547 155.7 648 c 1
 172.1 645 198.1 645 215.1 645 c 0
 232.1 645 251.1 645 268.7 648 c 1
 271.3 613 282.2 434 351.1 123 c 1
 353.1 123 l 1
 408 208.3 466.8 309.2 524.1 405 c 1
 505.2 511.9 488.3 603.2 475.7 648 c 1
 492.1 645 518.1 645 535.1 645 c 0
 552.1 645 576.1 645 593.7 648 c 1
 596.3 613 595.7 441 662.1 137 c 1
 664.1 137 l 1
EndSplineSet
Position2: "'cpsp' Versalabstaende 1" dx=2 dy=0 dh=5 dv=0
EndChar

StartChar: X
Encoding: 88 88 273
Width: 571
GlyphClass: 2
Flags: MW
AnchorPoint: "cedilla" 97 0 basechar 0
AnchorPoint: "below" 284.3 -107 basechar 0
AnchorPoint: "above" 503.1 805 basechar 0
AnchorPoint: "top_punkt" 484.5 722 basechar 0
LayerCount: 2
Fore
SplineSet
553.4 -3 m 1
 536 0 514 0 496 0 c 0
 478 0 456 0 437.4 -3 c 1
 405.6 100.1 378.2 182.6 339.6 282.7 c 1
 263 194.9 182.6 98.1 106.4 -3 c 1
 96 0 77 0 65 0 c 0
 54 0 34 0 22.4 -3 c 1
 157.7 149.6 251.7 254.2 320.8 330.7 c 1
 287 415.3 244.6 514.7 185.7 648 c 1
 202.1 645 224.1 645 241.1 645 c 0
 258.1 645 280.1 645 298.7 648 c 1
 314.4 589.8 341.2 519.1 387.5 404.5 c 1
 487 514.7 519.2 551.7 591.7 648 c 1
 602.1 645 622.1 645 633.1 645 c 0
 644.1 645 664.1 645 675.7 648 c 1
 621.4 589.2 521.4 486.4 406.3 358.1 c 1
 443.5 266.7 491.5 150.3 553.4 -3 c 1
EndSplineSet
Position2: "'cpsp' Versalabstaende 1" dx=2 dy=0 dh=5 dv=0
EndChar

StartChar: Y
Encoding: 89 89 274
Width: 591
GlyphClass: 2
Flags: MW
AnchorPoint: "cedilla" 295.2 1 basechar 0
AnchorPoint: "below" 271.8 -109 basechar 0
AnchorPoint: "above" 466.1 805 basechar 0
AnchorPoint: "top_punkt" 446.5 722 basechar 0
LayerCount: 2
Fore
SplineSet
395 285.6 m 1
 374.8 186.5 347.5 44.9 341.4 -3 c 1
 326 0 305 0 290 0 c 0
 275 0 255 0 238.4 -3 c 1
 255.9 52.5 283.5 177.5 304.4 275.1 c 1
 280.2 340.2 180.9 588 153.7 648 c 1
 170.1 645 193.1 645 210.1 645 c 0
 227.1 645 250.1 645 267.7 648 c 1
 299 542.6 337.4 448.7 377.5 340.2 c 1
 454.6 431.1 544.9 543.2 617.7 648 c 1
 629.1 645 646.1 645 659.1 645 c 0
 671.1 645 688.1 645 701.7 648 c 1
 541.8 463.5 453 365.5 395 285.6 c 1
EndSplineSet
Position2: "'cpsp' Versalabstaende 1" dx=2 dy=0 dh=5 dv=0
EndChar

StartChar: Z
Encoding: 90 90 275
Width: 604
GlyphClass: 2
Flags: MW
AnchorPoint: "cedilla" 287.9 4 basechar 0
AnchorPoint: "below" 264.3 -107 basechar 0
AnchorPoint: "above" 490.7 803 basechar 0
AnchorPoint: "top_punkt" 472 720 basechar 0
LayerCount: 2
Fore
SplineSet
198.5 54 m 1
 329.5 54 580.8 65 580.8 65 c 1
 582.2 62 l 1
 579.5 54 575.3 39 573.2 29 c 0
 571.1 19 571 14 569 0 c 1
 566.4 -3 l 1
 550.8 -1 531.8 0 496 0 c 2
 133 0 l 2
 103 0 27.4 -3 27.4 -3 c 1
 25.2 1 l 1
 39.2 15 51.4 30 59.1 38 c 2
 543.1 579 l 2
 549.5 586.1 547.6 591 542.6 591 c 0
 419.6 591 323.4 584.3 183.3 580 c 1
 181.9 583 l 1
 184.6 591 188.8 606 190.9 616 c 0
 193 626 193.1 631 195.1 645 c 1
 197.7 648 l 1
 213.3 646 236.1 645 258.1 645 c 2
 582.1 645 l 2
 613.1 645 692.4 648.8 709.4 651 c 0
 713.9 651 714.9 649 714.1 645 c 0
 711.8 634 698.1 619.4 672.6 591 c 2
 207.3 72 l 2
 200.1 64 199.6 59 198.5 54 c 1
EndSplineSet
Position2: "'cpsp' Versalabstaende 1" dx=2 dy=0 dh=5 dv=0
EndChar

StartChar: bracketleft
Encoding: 91 91 276
Width: 361
GlyphClass: 2
Flags: MW
LayerCount: 2
Fore
SplineSet
69.2 -192 m 1
 259.4 703 l 1
 474.4 703 l 1
 468.1 673 l 1
 329 663 315.7 648 297.2 561 c 2
 167.4 -50 l 2
 148.9 -137 154.7 -152 290.4 -163 c 1
 284.2 -192 l 1
 69.2 -192 l 1
EndSplineSet
EndChar

StartChar: backslash
Encoding: 92 92 277
Width: 292
GlyphClass: 2
Flags: MW
LayerCount: 2
Fore
SplineSet
208.4 698 m 1
 279.8 -48 l 1
 230.8 -48 l 1
 159.4 698 l 1
 208.4 698 l 1
EndSplineSet
EndChar

StartChar: bracketright
Encoding: 93 93 278
Width: 361
GlyphClass: 2
Flags: MW
LayerCount: 2
Fore
SplineSet
400.4 703 m 1
 210.2 -192 l 1
 -4.8 -192 l 1
 1.6 -162 l 1
 140.7 -152 153.9 -137 172.4 -50 c 2
 302.2 561 l 2
 320.7 648 315 663 179.3 674 c 1
 185.4 703 l 1
 400.4 703 l 1
EndSplineSet
Colour: ff00ff
EndChar

StartChar: underscore
Encoding: 95 95 280
Width: 486
GlyphClass: 2
Flags: MW
LayerCount: 2
Fore
SplineSet
458.6 -110 m 1
 449.3 -154 l 1
 -27.7 -154 l 1
 -18.4 -110 l 1
 458.6 -110 l 1
EndSplineSet
EndChar

StartChar: a
Encoding: 97 97 281
Width: 474
GlyphClass: 2
Flags: MW
AnchorPoint: "below" 154.9 -96.1 basechar 0
AnchorPoint: "cedilla" 148.1 -2.7 basechar 0
AnchorPoint: "ogonek" 383.3 14.2 basechar 0
AnchorPoint: "above" 312.1 575.8 basechar 0
LayerCount: 2
Fore
SplineSet
353 219 m 1
 378 283 388 385 388 385 c 1
 368 393 351.3 395 326 395 c 0
 235 395 142 239 142 133 c 0
 142 77 155 48 189 48 c 0
 221 48 304 129 353 219 c 1
408 138 m 2
 401.6 110.9 400 90.3 400 74 c 0
 400 52 412 42 429 42 c 0
 439 42 458.5 44 477 49 c 1
 479 46 l 1
 479 20 l 1
 457.5 9 424 -10 384 -10 c 0
 354 -10 322 4 322 43 c 0
 322 52.2 322.6 64.3 329 90 c 2
 342 142 l 1
 340 144 l 1
 280 55 233 -10 162 -10 c 0
 78 -10 60 61 60 117 c 0
 60 274 227 436 323 436 c 0
 363 436 376 436 403 433 c 0
 421 430.3 462.7 436 479 436 c 1
 408 138 l 2
EndSplineSet
EndChar

StartChar: b
Encoding: 98 98 282
Width: 491
GlyphClass: 2
Flags: MW
AnchorPoint: "above" 410 646 basechar 0
AnchorPoint: "cedilla" 132 9 basechar 0
AnchorPoint: "below" 213 -108 basechar 0
AnchorPoint: "top_punkt" 395.5 553 basechar 0
LayerCount: 2
Fore
SplineSet
174.2 81 m 1
 188.9 56 213.2 34 244.2 34 c 0
 343.2 34 419.1 138.9 419.1 272.9 c 0
 419.1 341.9 382.8 385 332.8 385 c 0
 321.8 385 277.4 383 229.9 343 c 1
 174.2 81 l 1
263.3 500 m 2
 238.6 384 l 1
 280.5 421 316.3 439 364.3 439 c 0
 439.6 439 507.6 382.7 507.6 288.4 c 0
 507.6 105.4 343.7 -10 240.9 -10 c 0
 197.9 -10 165.4 10 141.7 35 c 1
 129.5 16.5 108 -2 93.4 -11 c 1
 80 -11 69.5 -6 63.5 0 c 1
 75 20.5 83.8 32 92.1 71 c 2
 179.5 482 l 2
 195.7 558 210 633.3 211.4 676 c 1
 214.1 679 l 1
 255.2 682 279.2 688 306.4 698 c 1
 312.7 698 314.7 695 313.2 688 c 0
 292.5 626.7 279 574 263.3 500 c 2
EndSplineSet
EndChar

StartChar: c
Encoding: 99 99 283
Width: 395
GlyphClass: 2
Flags: MW
AnchorPoint: "ogonek" 345 37 basechar 0
AnchorPoint: "cedilla" 248 3 basechar 0
AnchorPoint: "below" 224 -100 basechar 0
AnchorPoint: "top_punkt" 232 489 basechar 0
AnchorPoint: "above" 229 573 basechar 0
LayerCount: 2
Fore
SplineSet
314 399 m 0
 278.5 399 243 375.1 215.3 332 c 0
 190.2 292.9 165.7 225.4 165.7 159.2 c 0
 165.7 82.3 203.2 40 256 40 c 0
 289 40 321 48 362 82 c 1
 365 82 l 1
 378 61 l 1
 331 10 285 -10 231 -10 c 0
 139.5 -10 76.9 52.7 76.9 155.1 c 0
 76.9 243.8 113.6 312.2 158.9 359.5 c 0
 207.5 410.3 269.9 439 324 439 c 0
 369 439 413 427 437 411 c 1
 439 408 l 1
 400 326 l 1
 389 325 l 1
 375 371 349 399 314 399 c 0
EndSplineSet
EndChar

StartChar: d
Encoding: 100 100 284
Width: 494
GlyphClass: 2
Flags: MW
AnchorPoint: "above" 376.1 645 basechar 0
AnchorPoint: "top_punkt" 356.9 550 basechar 0
AnchorPoint: "ogonek" 337.3 20 basechar 0
AnchorPoint: "below" 219.3 -107 basechar 0
LayerCount: 2
Fore
SplineSet
365.7 115.3 m 1
 412.2 335 l 1
 396.3 373 376.7 396 329.7 396 c 0
 299.2 396 256.6 386.1 221.4 341 c 0
 194.8 307 162.9 225.4 162.9 152.3 c 0
 162.9 76.6 199.9 44 251 44 c 0
 283 44 319.3 68.8 365.7 115.3 c 1
354.6 64 m 1
 308.7 17.5 261.9 -10 213.9 -10 c 0
 133.6 -10 73.4 55.2 73.4 150.5 c 0
 73.4 250.4 123.5 328 182.9 377.2 c 0
 229.8 416 287.9 439 350.3 439 c 0
 370.3 439 409.4 430 429.6 417 c 1
 443.5 482 l 2
 459.7 558 474 633.3 475.4 676 c 1
 478.1 679 l 1
 519.2 682 540.2 688 567.4 698 c 1
 573.7 698 575.7 695 574.2 688 c 0
 554.6 626 543 574 527.3 500 c 2
 461.8 192 l 2
 444.2 109.4 437.2 57.8 437.2 24.8 c 0
 437.2 15 437.9 6.9 439 0 c 1
 436.4 -3 l 1
 423.8 -1 405.1 0 392.5 0 c 0
 378 0 373.1 -1.3 359.4 -3 c 0
 355.4 -3 352.6 -2 353 0 c 2
 353 0 354.3 38.3 357.6 64 c 1
 354.6 64 l 1
EndSplineSet
EndChar

StartChar: e
Encoding: 101 101 285
Width: 427
GlyphClass: 2
Flags: MW
AnchorPoint: "below" 158 -108 basechar 0
AnchorPoint: "ogonek" 344.3 41 basechar 0
AnchorPoint: "above" 332.2 645 basechar 0
LayerCount: 2
Fore
SplineSet
369 363.6 m 0
 369 390.4 353.6 403 319.5 403 c 0
 272.1 403 208 377 173.4 242 c 1
 290 247 369 278.9 369 363.6 c 0
168.3 207.5 m 1
 167.6 200.1 165.5 175.1 165.5 165.9 c 0
 165.5 77.1 204.5 38 249 38 c 0
 296.9 38 366 84 394.4 134 c 1
 400.5 133 l 1
 403 120 405 93 410.4 82.2 c 1
 371 27 296.2 -10 212.1 -10 c 0
 128 -10 77 60.9 77 142.8 c 0
 77 269.2 165.9 439 342.5 439 c 0
 416.5 439 444 405.4 444 362.4 c 0
 444 324 426 218 168.3 207.5 c 1
EndSplineSet
EndChar

StartChar: f
Encoding: 102 102 286
Width: 318
GlyphClass: 2
Flags: MW
AnchorPoint: "cedilla" 135.1 10 basechar 0
AnchorPoint: "below" 108.4 -111 basechar 0
LayerCount: 2
Fore
SplineSet
146.8 236 m 2
 178.8 385 l 1
 108.8 385 l 2
 104.8 385 104 386 105.1 391 c 2
 108.9 409 l 2
 110.6 417 118.2 429 136.2 429 c 2
 188.2 429 l 1
 198.7 469 l 2
 218.7 545 239.8 573 286.2 622 c 0
 332.6 671 393.4 698 456.4 698 c 0
 475.4 698 498.6 689 505.5 684 c 1
 505.8 681 l 1
 490.8 662 475.1 631 462.4 604 c 1
 451.2 603 l 1
 444.5 623 421.6 638 392.6 638 c 0
 335.3 638 301.4 590.2 289.7 535 c 0
 285.9 517 280.6 482.3 273.3 445 c 2
 270.2 429 l 1
 382.2 429 l 2
 387.2 429 389.8 427 388.9 423 c 2
 383.6 398 l 2
 381.7 389 366.8 385 357.8 385 c 2
 260.8 385 l 1
 190.3 67 l 2
 170.1 -23.8 126 -110 87.6 -155 c 0
 45.8 -204 -6.8 -231 -63.5 -231 c 0
 -80.6 -231 -103.1 -222 -109.3 -217 c 1
 -109.6 -214 l 1
 -96.1 -195 -80.2 -164 -68.7 -137 c 1
 -58.7 -136 l 1
 -52.6 -156 -34.2 -174 -8.1 -174 c 0
 34 -174 59.1 -128 80.3 -68 c 0
 99 -15 122 120.6 146.8 236 c 2
EndSplineSet
EndChar

StartChar: g
Encoding: 103 103 287
Width: 458
GlyphClass: 2
Flags: MW
AnchorPoint: "below" 206 -85 basechar 0
AnchorPoint: "above" 363 645 basechar 0
AnchorPoint: "top_punkt" 343 590 basechar 0
LayerCount: 2
Fore
SplineSet
149 -5 m 1
 131 -18 114 -28 103 -42 c 0
 85 -64 74 -91 74 -121 c 0
 74 -176 146 -195 177 -195 c 0
 224.3 -195 309 -192 351 -166 c 0
 367 -156.1 375 -143 375 -121 c 0
 375 -105 367 -76 342 -59 c 0
 303 -33 237 -17 168 -6 c 0
 162 -5 155 -6 149 -5 c 1
276 138 m 0
 247 138 206.5 147 192 161 c 1
 172 146 144 120 144 99 c 0
 144 76 169 63 207 54 c 0
 278 38 359 24 399 -4 c 0
 434 -28 441 -71 441 -95 c 0
 441 -147 411 -182 375 -202 c 0
 319 -233 205 -238 154 -238 c 0
 77 -238 1 -206.5 1 -150 c 0
 1 -107 13 -76 40 -45 c 0
 58 -24 83 -9 110 6 c 1
 92 17 79 43 79 70 c 0
 79 117 121 155 165 177 c 1
 140 199 121 240 121 284 c 0
 121 381 206 439 296 439 c 0
 326 439 362 431 380 431 c 0
 415 431 445 445 445 480 c 0
 445 489 442 497 434 506 c 1
 435 510 l 1
 452.4 514.5 470.4 522.2 483 533 c 1
 487 532 l 1
 499 514 503 495 503 474 c 0
 503 438 476 407 432 407 c 0
 424 407 414.8 407.3 411 408 c 1
 408 406 l 1
 432 382 453 342 453 304 c 0
 453 195 365 138 276 138 c 0
375 298 m 0
 375 359 343 400 289 400 c 0
 229 400 199 345 199 288 c 0
 199 233 227 177 285 177 c 0
 327 177 375 218 375 298 c 0
EndSplineSet
EndChar

StartChar: h
Encoding: 104 104 288
Width: 514
GlyphClass: 2
Flags: MW
AnchorPoint: "ogonek" 407.1 10 basechar 0
AnchorPoint: "top_punkt" 410.9 550 basechar 0
AnchorPoint: "above" 430.1 645 basechar 0
AnchorPoint: "below" 229.4 -111 basechar 0
LayerCount: 2
Fore
SplineSet
390.3 180 m 2
 412.6 285 l 2
 429.8 366 414.2 382 358.2 382 c 0
 329.2 382 280.7 356 222.7 309 c 1
 195.3 180 l 2
 179.1 103.8 170.6 57 167 0 c 1
 164.4 -3 l 1
 164.4 -3 151.3 0 117 0 c 0
 82 0 67.4 -3 67.4 -3 c 1
 67 0 l 1
 86.9 53.5 99.5 105.5 115.3 180 c 2
 179.1 481 l 2
 195.3 557 209.9 633.3 211.3 676 c 1
 213.9 679 l 1
 255 682 276 688 303.2 698 c 1
 309.5 698 311.6 695 310.1 688 c 0
 291.4 625.5 279.1 575 263.4 501 c 2
 233.5 360 l 1
 314.7 427 376.3 439 415.3 439 c 0
 487.3 439 514.3 387 492.4 284 c 2
 470.3 180 l 2
 454.1 103.8 445.6 57 442 0 c 1
 439.4 -3 l 1
 439.4 -3 426.3 0 392 0 c 0
 357 0 342.4 -3 342.4 -3 c 1
 342 0 l 1
 361.9 53.5 374.5 105.5 390.3 180 c 2
EndSplineSet
EndChar

StartChar: k
Encoding: 107 107 291
Width: 462
GlyphClass: 2
Flags: MW
AnchorPoint: "cedilla" 124 9 basechar 0
AnchorPoint: "top_punkt" 383 551 basechar 0
AnchorPoint: "above" 402 646 basechar 0
AnchorPoint: "below" 262 -107 basechar 0
LayerCount: 2
Fore
SplineSet
208.1 240.3 m 1
 220.1 241.7 237.1 245.8 250 255 c 0
 293 285 374 366 427 429 c 1
 452 429 504 429 522 432 c 1
 523 429 l 1
 451 374 355 279 310 238 c 1
 375 123 402 79 455 0 c 1
 453 -3 l 1
 445 -1 414 0 398 0 c 0
 382 0 351 -1 336 -3 c 1
 290 96 283 131 236 199 c 1
 229.7 206.2 210.5 209.3 201.6 209.9 c 1
 195.3 180 l 2
 179.2 104.1 170.6 57 167 0 c 1
 164.4 -3 l 1
 164.4 -3 151.3 0 117 0 c 0
 82 0 67.4 -3 67.4 -3 c 1
 67 0 l 1
 86.9 53.5 99.5 105.5 115.3 180 c 2
 179.1 481 l 2
 195.3 557 209.9 633.3 211.3 676 c 1
 213.9 679 l 1
 255 682 276 688 303.2 698 c 1
 309.5 698 311.6 695 310.1 688 c 0
 291.4 625.5 279 574.4 263.4 501 c 2
 208.1 240.3 l 1
EndSplineSet
Colour: ff80cc
EndChar

StartChar: uni02E1
Encoding: 737 737 292
Width: 161
GlyphClass: 2
Flags: MW
LayerCount: 2
Fore
SplineSet
193.4 651 m 2
 202.3 693 197.8 700 184.8 700 c 2
 164 701 l 2
 162 701 160.2 702 160.6 704 c 2
 163.5 722 l 1
 189.9 724 237.6 732 255.1 739 c 1
 261.1 739 262.7 737 261.6 732 c 2
 261.6 732 254 706 245.1 664 c 2
 192.2 415 l 2
 187.8 394.5 194.7 390.2 211.5 388 c 2
 219.3 387 l 2
 221.2 386.8 224.1 386 223.2 382 c 2
 219.4 364 l 1
 219.4 364 181.2 365 156.6 365 c 0
 132.8 365 95.4 364 95.4 364 c 1
 99.2 382 l 2
 99.6 384 100.2 386.5 104.3 387 c 2
 112.5 388 l 2
 137.5 391 138.7 394 143.2 415 c 2
 193.4 651 l 2
EndSplineSet
Colour: ff00ff
EndChar

StartChar: m
Encoding: 109 109 293
Width: 752
GlyphClass: 2
Flags: MW
AnchorPoint: "cedilla" 108.5 8 basechar 0
AnchorPoint: "top_punkt" 447.6 489.5 basechar 0
AnchorPoint: "above" 464.7 574 basechar 0
AnchorPoint: "below" 352.8 -93.5 basechar 0
LayerCount: 2
Fore
SplineSet
458 180 m 0
 442 104 433 57 429 0 c 1
 427 -3 l 1
 427 -3 409 0 379 0 c 0
 348 0 330 -3 330 -3 c 1
 330 0 l 1
 350 54 361 105 377 180 c 2
 398 278 l 2
 415 359 401 379 355 379 c 0
 323 379 279 357 220 297 c 1
 195 180 l 2
 179 104 170 57 166 0 c 1
 163 -3 l 1
 163 -3 147 0 116 0 c 0
 85 0 67 -3 67 -3 c 1
 66 0 l 1
 85 54 98 105 114 180 c 2
 125 235 l 2
 141 310 146.5 367 139 413 c 1
 141 416 l 1
 171.5 419 199 427 223 437 c 1
 229 437 231.3 437 231 427 c 2
 231 427 233.5 395 229 352 c 1
 231 349 l 1
 304 424 360 439 394 439 c 0
 450.3 439 481.5 412.9 487.9 362 c 1
 556.3 420.4 600.9 439 654.3 439 c 0
 762.3 439 757.4 369 738.5 280 c 2
 717.3 180 l 2
 701.1 103.8 692.6 57 689 0 c 1
 686.4 -3 l 1
 686.4 -3 673.3 0 639 0 c 0
 604 0 589.4 -3 589.4 -3 c 1
 589 0 l 1
 608.9 53.5 621.5 105.5 637.3 180 c 2
 661.1 292 l 2
 675.3 359 660 381 606 381 c 0
 568.5 381 542.4 365.2 487.8 316.9 c 1
 486.6 305.7 484.7 293.7 482 281 c 0
 475 249 465 212 458 180 c 0
EndSplineSet
EndChar

StartChar: n
Encoding: 110 110 294
Width: 504
GlyphClass: 2
Flags: MW
AnchorPoint: "ogonek" 431 44 basechar 0
AnchorPoint: "cedilla" 133 9 basechar 0
AnchorPoint: "top_punkt" 265 550 basechar 0
AnchorPoint: "below" 265 -111 basechar 0
AnchorPoint: "above" 264 646 basechar 0
LayerCount: 2
Fore
SplineSet
471 180 m 0
 455 104 446 57 442 0 c 1
 440 -3 l 1
 440 -3 422 0 392 0 c 0
 361 0 343 -3 343 -3 c 1
 343 0 l 1
 363 54 374 105 390 180 c 2
 411 278 l 2
 428 359 414 379 368 379 c 0
 336 379 279 357 220 297 c 1
 195 180 l 2
 179 104 170 57 166 0 c 1
 163 -3 l 1
 163 -3 147 0 116 0 c 0
 85 0 67 -3 67 -3 c 1
 66 0 l 1
 85 54 98 105 114 180 c 2
 125 235 l 2
 141 310 146.5 367 139 413 c 1
 141 416 l 1
 171.5 419 199 427 223 437 c 1
 229 437 231.3 437 231 427 c 2
 231 427 233.5 395 229 352 c 1
 231 349 l 1
 304 424 373 439 407 439 c 0
 488 439 517 385 495 281 c 0
 488 249 478 212 471 180 c 0
EndSplineSet
EndChar

StartChar: o
Encoding: 111 111 295
Width: 490
GlyphClass: 2
Flags: MW
AnchorPoint: "cedilla" 254.5 -3 basechar 0
AnchorPoint: "ogonek" 411.6 44 basechar 0
AnchorPoint: "below" 240.1 -107 basechar 0
AnchorPoint: "top_punkt" 378.6 550 basechar 0
AnchorPoint: "above" 388.9 645 basechar 0
LayerCount: 2
Fore
SplineSet
146 346.3 m 0
 191.7 399 260.5 439 340.3 439 c 0
 463.4 439 506 359.6 506 274.2 c 0
 506 184 458.8 86.8 385 33 c 0
 345.5 4.2 297.5 -10 242.9 -10 c 0
 130 -10 74.3 65.6 74.3 155.7 c 0
 74.3 236.8 107 301.4 146 346.3 c 0
326.6 398 m 0
 251 398 193 315 174.5 228 c 0
 170.1 207.4 167.2 183.8 167.2 160.2 c 0
 167.2 95.5 184.4 31 260.6 31 c 0
 288.7 31 327.2 43.5 358.6 83 c 0
 389.1 121.4 416.6 176 416.6 282.5 c 0
 416.6 357.3 388.3 398 326.6 398 c 0
EndSplineSet
EndChar

StartChar: p
Encoding: 112 112 296
Width: 506
GlyphClass: 2
Flags: MW
AnchorPoint: "top_punkt" 389.1 551 basechar 0
AnchorPoint: "above" 408.3 646 basechar 0
LayerCount: 2
Fore
SplineSet
219 301 m 1
 171.4 77 l 1
 197.7 36 229.2 34 245.2 34 c 0
 309.7 34 350.8 67.5 377.1 112 c 0
 402.6 155.3 419.6 212.5 419.6 272.9 c 0
 419.6 345.5 386.5 386 338.4 386 c 0
 304.4 386 252.3 354 219 301 c 1
125 235 m 2
 136 286.5 141.5 329.6 141.5 366.4 c 0
 141.5 383.2 140.3 398.6 138 413 c 1
 140 416 l 1
 170.5 419 198 427 222 437 c 1
 228 437 230.2 437 230 427 c 2
 230 427 230.5 418.4 230.5 404.7 c 0
 230.5 392.7 230.2 376.8 228.7 359.3 c 1
 232.5 360 l 1
 293.4 430 341.3 439 373.3 439 c 0
 456.5 439 512.6 366.9 512.6 279.4 c 0
 512.6 178.2 456.3 94.6 397 46.5 c 0
 353 10.9 299.7 -10 241.9 -10 c 0
 205.9 -10 180.6 -2 157.6 12 c 1
 148.2 -32 l 2
 132.2 -107.2 119.3 -175 115.7 -232 c 1
 113 -235 l 1
 113 -235 100 -232 65.7 -232 c 0
 30.7 -232 16 -235 16 -235 c 1
 15.7 -232 l 1
 35.6 -178.5 52.4 -106.5 68.2 -32 c 2
 125 235 l 2
EndSplineSet
EndChar

StartChar: q
Encoding: 113 113 297
Width: 488
GlyphClass: 2
Flags: MW
AnchorPoint: "top_punkt" 356.9 550 basechar 0
AnchorPoint: "above" 376.1 645 basechar 0
LayerCount: 2
Fore
SplineSet
410.3 326 m 1
 392.9 371 367 397 325 397 c 0
 278.5 397 243 374.4 217 335 c 0
 191.4 296.1 167.3 223.6 167.3 158.4 c 0
 167.3 63.5 225.3 38 273.4 38 c 0
 292.4 38 324.7 48 355 68 c 1
 410.3 326 l 1
334.2 -32 m 2
 345.9 23 l 1
 328.1 10 294.9 -10 237.9 -10 c 0
 118.3 -10 74.8 74.8 74.8 156.8 c 0
 74.8 247 116.9 316.8 167 365.5 c 0
 213.9 411.1 274.2 439 338.3 439 c 0
 387.3 439 427 424 453.8 395 c 1
 474.9 423 l 2
 484.1 435.2 495 442 502 442 c 0
 509.1 442 511.4 437.4 511.4 430.4 c 0
 511.4 426.5 510.7 422 509.6 417 c 2
 414.2 -32 l 2
 398.2 -107.2 385.3 -175 381.7 -232 c 1
 379 -235 l 1
 379 -235 366 -232 331.7 -232 c 0
 296.7 -232 282 -235 282 -235 c 1
 281.7 -232 l 1
 301.6 -178.5 318.5 -106 334.2 -32 c 2
EndSplineSet
EndChar

StartChar: r
Encoding: 114 114 298
Width: 347
GlyphClass: 2
Flags: MW
AnchorPoint: "cedilla" 135.5 7 basechar 0
AnchorPoint: "top_punkt" 309.1 551 basechar 0
AnchorPoint: "above" 328.3 646 basechar 0
AnchorPoint: "below" 112 -108 basechar 0
LayerCount: 2
Fore
SplineSet
234.250681795 354 m 1
 236.2 354 l 1
 270.5 393 332.3 439 379.3 439 c 0
 397.3 439 402.9 437 418.8 432 c 1
 422 428 l 1
 386.2 349 l 1
 377.8 347 l 1
 362.8 361 341.8 361 322.8 361 c 0
 307.8 361 280.6 356 256.8 338 c 0
 241.1 325 229.2 305.4 222.6 285.7 c 2
 200 180 l 2
 183.8 104 175 57 171 0 c 1
 168 -3 l 1
 168 -3 152 0 121 0 c 0
 90 0 72 -3 72 -3 c 1
 71 0 l 1
 90 54 103 105 119 180 c 2
 130 235 l 2
 146 310 151.5 367 144 413 c 1
 146 416 l 1
 176.5 419 204 427 228 437 c 0
 234 437 236.3 437 236 427 c 2
 236 427 238.480271604 395.946999514 234.250681795 354 c 1
EndSplineSet
EndChar

StartChar: uni02E2
Encoding: 738 738 299
Width: 253
GlyphClass: 2
Flags: MW
LayerCount: 2
Fore
SplineSet
125.4 458 m 1
 147.4 458 l 1
 145.4 444 145.6 417 158.2 401 c 0
 163.9 395 180.4 383 203.4 383 c 0
 227.4 383 253.8 394 259.5 421 c 0
 264 442 260.2 462 214.7 483 c 0
 172.7 502 145.1 518 154.7 563 c 0
 163.6 605 215.4 637 264.4 637 c 0
 295.4 637 332.3 627 341.8 620 c 1
 334.8 545 l 1
 311.6 544 l 1
 309.9 602 278.1 612 259.1 612 c 0
 234.1 612 210.3 599 204.6 572 c 0
 199.5 548 207.6 539 238.6 525 c 0
 285.1 504 327.1 485 316.5 435 c 0
 303.5 374 234.1 358 200.1 358 c 0
 170.1 358 151.1 372 131.1 372 c 0
 128.1 372 117.8 371 111.6 370 c 1
 116.7 394 121.6 426 125.4 458 c 1
EndSplineSet
Colour: ff00ff
EndChar

StartChar: t
Encoding: 116 116 300
Width: 302
GlyphClass: 2
Flags: MW
AnchorPoint: "cedilla" 164.4 -3 basechar 0
AnchorPoint: "ogonek" 240.2 15 basechar 0
AnchorPoint: "below" 140.3 -107 basechar 0
LayerCount: 2
Fore
SplineSet
179.2 429 m 1
 191.5 487 195 514 204.9 553 c 1
 207.5 556 l 1
 248.6 559 257.7 568 284.9 578 c 1
 291.2 578 293.3 575.3 291.7 568 c 0
 274.9 510 273.1 503.8 257.2 429 c 1
 365.2 429 l 2
 370.2 429 372.8 427 371.9 423 c 2
 366.6 398 l 2
 364.7 389 349.8 385 339.8 385 c 2
 247.8 385 l 1
 217.4 242 l 2
 204.7 182.1 194.2 142 187.8 112 c 0
 179.1 71 184.5 45 207.6 45 c 0
 224 45 250.1 44.4 280 59.7 c 1
 286.5 32 l 1
 250.5 5 198.9 -10 156.9 -10 c 0
 110.9 -10 93 31.5 101.5 79 c 0
 106.9 109.2 123 171.1 136.1 231 c 2
 169.8 385 l 1
 105.8 385 l 2
 102.8 385 102.1 386 102.7 389 c 2
 110.3 425 l 2
 110.9 428 112.2 429 114.2 429 c 2
 179.2 429 l 1
EndSplineSet
EndChar

StartChar: u
Encoding: 117 117 301
Width: 514
GlyphClass: 2
Flags: MW
AnchorPoint: "cedilla" 212 0 basechar 0
AnchorPoint: "ogonek" 287.5 7 basechar 0
AnchorPoint: "below" 214.4 -111 basechar 0
AnchorPoint: "top_punkt" 370.9 550 basechar 0
AnchorPoint: "above" 391.3 646 basechar 0
LayerCount: 2
Fore
SplineSet
360.6 64 m 1
 291.8 4 242.9 -10 201.9 -10 c 0
 109 -10 96.6 59.1 110.8 126 c 2
 136.9 249 l 2
 153.1 325 162.1 372 165.2 429 c 1
 167.8 432 l 1
 167.8 432 181.2 429 215.2 429 c 0
 250.2 429 264.8 432 264.8 432 c 1
 265.2 429 l 1
 244.9 376 232.8 324 216.9 249 c 2
 195.9 150 l 2
 177 61 196 45 244.6 45 c 0
 289.4 45 339.7 88.2 372.3 119 c 1
 399.9 249 l 2
 416.1 325 425.1 372 428.2 429 c 1
 430.8 432 l 1
 430.8 432 444.2 429 478.2 429 c 0
 513.2 429 527.8 432 527.8 432 c 1
 528.2 429 l 1
 507.9 376 495.8 324 479.9 249 c 2
 467.8 192 l 2
 451.9 117 445.1 43 444 0 c 1
 441.4 -3 l 1
 428.8 -1 410.1 0 397.5 0 c 0
 383 0 376.1 -1.3 362.4 -3 c 0
 356.4 -3 353.6 -2 354 0 c 2
 362.6 64 l 1
 360.6 64 l 1
EndSplineSet
EndChar

StartChar: v
Encoding: 118 118 302
Width: 414
GlyphClass: 2
Flags: MW
AnchorPoint: "below" 237 -113 basechar 0
AnchorPoint: "above" 259 646 basechar 0
AnchorPoint: "top_punkt" 260 551 basechar 0
LayerCount: 2
Fore
SplineSet
176 -3 m 1
 157 143 139 285 110 432 c 1
 124 429 153 429 167 429 c 0
 179 429 200 429 212 432 c 1
 219.8 319.9 224.7 210.7 244.4 98.7 c 1
 304.4 195.7 361.8 322.3 420 432 c 1
 427 429 441 429 450 429 c 0
 459 429 480 429 489 432 c 1
 400 285 314 143 236 -3 c 1
 229 0 220 0 211 0 c 0
 202 0 186 0 176 -3 c 1
EndSplineSet
EndChar

StartChar: w
Encoding: 119 119 303
Width: 664
GlyphClass: 2
Flags: MW
AnchorPoint: "top_punkt" 344 552 basechar 0
AnchorPoint: "above" 343 646 basechar 0
AnchorPoint: "below" 350 -111 basechar 0
LayerCount: 2
Fore
SplineSet
178 -4 m 1
 159 142 139 284 110 431 c 1
 124 428 152 428 166 428 c 0
 178 428 199 428 211 431 c 1
 219 316 226 204 247 89 c 1
 252 89 l 1
 291.4 151.4 332.9 228 373.6 304.4 c 1
 369.3 349 365.4 391.9 362 432 c 1
 376 429 402 429 416 429 c 0
 429 429 450 429 462 432 c 1
 460 326 464 200 478 90 c 1
 485 90 l 1
 542 186 611 314 669 432 c 1
 676 429 690 429 699 429 c 0
 708 429 729 429 738 432 c 1
 660 307 547 115 478 -3 c 1
 471 0 455 0 446 0 c 0
 437 0 416 0 406 -3 c 1
 397 74.4 388.3 155.2 380.5 233.2 c 1
 334.8 154.8 290.8 72.8 250 -4 c 1
 243 -1 228 -1 219 -1 c 0
 210 -1 188 -1 178 -4 c 1
EndSplineSet
EndChar

StartChar: uni02E3
Encoding: 739 739 304
Width: 307
GlyphClass: 2
Flags: MW
LayerCount: 2
Fore
SplineSet
94.8 380 m 2
 96.3 387 100.5 388 107.5 388 c 0
 126.5 388 134.1 391 159 414 c 2
 159 414 234.3 486 237.9 489 c 1
 188.4 590 l 2
 182 602 172.7 610 160.7 610 c 0
 148.7 610 147 612 148.1 617 c 2
 150.9 630 l 1
 152.3 632 l 1
 172.1 631 188.1 631 212.1 631 c 0
 232.1 631 253.1 631 277.3 632 c 1
 277.7 629 l 1
 275.1 617 l 2
 274 612 268.7 610 259.7 610 c 0
 252.7 610 248.9 606 248 602 c 0
 246.9 597 249.4 590 250.9 583 c 1
 277.2 528 l 1
 329.1 584 338.3 594 338.3 594 c 2
 341.9 597 343.6 600 344 602 c 0
 345.1 607 340.7 610 327.7 610 c 0
 321.7 610 317.8 611 319.1 617 c 2
 321.9 630 l 1
 323.3 632 l 1
 341.1 631 356.9 630 373.9 630 c 0
 393.9 630 408.1 631 429.3 632 c 1
 429.7 629 l 1
 427.4 618 l 2
 426.1 612 425.7 610 413.7 610 c 0
 392.7 610 386.6 605 361.1 579 c 2
 288.7 502 l 1
 333.4 416 l 2
 340.4 402 349.5 388 371.5 388 c 0
 383.5 388 383.7 384 382.8 380 c 2
 380 367 l 1
 378.4 364 l 1
 359.8 366 341.8 366 322.8 366 c 0
 299.8 366 265.6 365 251.4 364 c 1
 250.8 366 l 1
 252.9 376 l 2
 254.2 382 257.5 388 266.5 388 c 0
 273.5 388 280.6 389 281.7 394 c 0
 282.3 397 281 400 279.1 405 c 2
 279.1 405 252.5 454 249.2 462 c 1
 228.7 441 193.3 406 193.3 406 c 2
 188 400 185.1 396 184.5 393 c 0
 183.4 388 189.5 388 200.5 388 c 0
 208.5 388 208.9 385 207.8 380 c 2
 205.2 368 l 1
 203.6 365 l 1
 183.8 366 167.8 366 151.8 366 c 0
 128.8 366 110.6 365 92.4 364 c 1
 92 367 l 1
 94.8 380 l 2
EndSplineSet
Colour: ff00ff
EndChar

StartChar: y
Encoding: 121 121 305
Width: 486
GlyphClass: 2
Flags: MW
AnchorPoint: "above" 411.9 644 basechar 0
AnchorPoint: "top_punkt" 400.9 550 basechar 0
LayerCount: 2
Fore
SplineSet
109.8 432 m 1
 123.2 429 148.2 429 161.2 429 c 0
 175.2 429 197.2 429 210.8 432 c 1
 223.9 317.8 247.4 206.5 271.3 87.6 c 1
 273.3 87.6 l 1
 343.9 191.2 417.7 319 477.8 432 c 1
 487.2 429 506.2 429 516.2 429 c 0
 526.2 429 549.2 429 559.8 432 c 1
 512.6 365 192.2 -112 127.6 -237 c 1
 118.2 -234 89.7 -232 79.7 -232 c 0
 69.7 -232 54.2 -234 43.6 -237 c 1
 104.8 -161.7 153.9 -93.8 201.8 -19.1 c 1
 186.6 76 130.7 343.2 109.8 432 c 1
EndSplineSet
EndChar

StartChar: z
Encoding: 122 122 306
Width: 416
GlyphClass: 2
Flags: MW
AnchorPoint: "above" 357.3 646 basechar 0
AnchorPoint: "top_punkt" 338.1 551 basechar 0
AnchorPoint: "cedilla" 208.9 4 basechar 0
AnchorPoint: "below" 183.4 -111 basechar 0
LayerCount: 2
Fore
SplineSet
146.5 50 m 1
 268.3 50.7 399 61 399 61 c 1
 400.3 58 l 1
 397.6 50 393.6 36 391.7 27 c 0
 389.8 18 389.8 13 388 0 c 1
 385.4 -3 l 1
 370.8 -1 350 0 330 0 c 2
 104 0 l 2
 75.5 0 22.4 -3 22.4 -3 c 1
 20.3 1.5 l 1
 30.2 10.7 38.2 20.1 48.8 32 c 2
 357.5 378.7 l 1
 242.6 377.1 127.2 368 127.2 368 c 1
 125.9 371 l 1
 128.6 379 132.5 393 134.4 402 c 0
 136.3 411 136.4 416 138.2 429 c 1
 140.8 432 l 1
 155.4 430 176.2 429 196.2 429 c 2
 400.2 429 l 2
 429.2 429 477.2 435.3 482.2 435.3 c 0
 486.2 435.3 487 433 486.2 429 c 1
 478.7 422 469.9 412.3 447.3 387 c 2
 146.5 50 l 1
EndSplineSet
EndChar

StartChar: braceleft
Encoding: 123 123 307
Width: 278
GlyphClass: 2
Flags: MW
LayerCount: 2
Fore
SplineSet
298.5 562 m 2
 261 386 l 2
 241.7 295 222 268 168.5 247 c 1
 221.2 222 217.3 180 199.2 95 c 2
 165.4 -64 l 2
 150.1 -136 164.6 -190 208.6 -190 c 1
 203.9 -212 l 1
 102.3 -210 68 -179 95.6 -49 c 2
 131.7 121 l 2
 144.7 182 136 226 84.8 239 c 1
 88 254 l 1
 147.4 270 174 320 184.6 370 c 2
 223.8 554 l 2
 248.2 669 297.7 704 399.3 707 c 1
 394.6 685 l 1
 354.3 674 317.8 653 298.5 562 c 2
EndSplineSet
EndChar

StartChar: bar
Encoding: 124 124 308
Width: 210
GlyphClass: 2
Flags: MW
LayerCount: 2
Fore
SplineSet
80.7 -232 m 1
 31.7 -232 l 1
 229.4 698 l 1
 278.4 698 l 1
 80.7 -232 l 1
EndSplineSet
EndChar

StartChar: braceright
Encoding: 125 125 309
Width: 278
GlyphClass: 2
Flags: MW
LayerCount: 2
Fore
SplineSet
84.5 -68 m 2
 122 108 l 2
 141.3 199 161 226 214.5 247 c 1
 161.8 272 165.7 314 183.8 399 c 2
 217.6 558 l 2
 232.9 630 218.4 684 174.4 684 c 1
 179.1 706 l 1
 280.7 704 315 673 287.4 543 c 2
 251.3 373 l 2
 238.3 312 247 268 298.2 255 c 1
 295 240 l 1
 235.6 224 209 174 198.4 124 c 2
 159.2 -60 l 2
 134.8 -175 85.3 -210 -16.3 -213 c 1
 -11.6 -191 l 1
 28.7 -180 65.2 -159 84.5 -68 c 2
EndSplineSet
Colour: ff00ff
EndChar

StartChar: asciitilde
Encoding: 126 126 310
Width: 449
GlyphClass: 2
Flags: MW
LayerCount: 2
Fore
SplineSet
70.4 209 m 1
 97.2 274 164.6 337 225.6 337 c 0
 248.6 337 270.2 321 292.8 305 c 0
 314.4 289 336.8 272 358.8 272 c 0
 386.8 272 439.5 289 472.1 339 c 1
 487.8 333 l 1
 434.1 226 366.3 213 342.3 213 c 0
 316.3 213 294.7 229 274.3 246 c 0
 252.9 263 232.1 278 207.1 278 c 0
 172.1 278 115.2 250 82.8 206 c 1
 70.4 209 l 1
EndSplineSet
EndChar

StartChar: exclamdown
Encoding: 161 161 312
Width: 228
GlyphClass: 2
Flags: MW
LayerCount: 2
Fore
SplineSet
66.3 -229 m 0
 39.3 -229 15.2 -206 25.8 -156 c 0
 39.6 -91 64.6 -49 92.9 37 c 0
 128.9 145 142.6 205 147.6 219 c 0
 150.9 230 155.8 239 165.8 239 c 0
 176.8 239 177.3 232 177 226 c 0
 174.5 205 160.5 115 151.9 37 c 0
 142.2 -51 150.7 -86 135.8 -156 c 0
 124.3 -210 88.3 -229 66.3 -229 c 0
EndSplineSet
Refer: 256 46 N 1 0 0 1 77 337 2
Colour: ff00ff
EndChar

StartChar: cent
Encoding: 162 162 313
Width: 440
GlyphClass: 2
Flags: MW
LayerCount: 2
Fore
SplineSet
347.9 578 m 1
 381.9 578 l 1
 362.5 486.9 l 1
 365.2 487 367.8 487.1 370.4 487.1 c 0
 415.4 487.1 460.1 472.7 484.9 458.3 c 1
 486.1 455.6 l 1
 449.8 381.8 l 1
 437.9 380.9 l 1
 422.8 421.9 395.5 446.6 360.9 446.6 c 0
 358.6 446.6 356.3 446.5 353.9 446.4 c 1
 287.2 132.8 l 1
 292.6 132 298.2 131.6 303.9 131.6 c 0
 342.6 131.6 378.4 147.8 414.9 188.3 c 1
 418.5 188.3 l 1
 433.5 173.9 l 1
 391.5 113.4 329.9 84 276.6 83 c 1
 256.4 -12 l 1
 222.4 -12 l 1
 243.1 85.1 l 1
 149.6 98.4 101.3 174 123.7 279.2 c 0
 147 388.7 240.2 463.2 327.5 482.3 c 1
 347.9 578 l 1
255.4 143.2 m 1
 318.3 438.9 l 1
 269.5 421.6 220.7 375.3 204.5 299 c 0
 187.8 220.3 212.8 165.8 255.4 143.2 c 1
EndSplineSet
Colour: ff80cc
EndChar

StartChar: sterling
Encoding: 163 163 314
Width: 440
GlyphClass: 2
Flags: MW
LayerCount: 2
Fore
SplineSet
290.5 388 m 2
 276.2 321 l 1
 394.2 321 l 2
 399.2 321 400.9 319 400 315 c 2
 395.5 294 l 2
 393.8 286 379.9 282 369.9 282 c 2
 267.9 282 l 1
 242.9 169 195.7 116 157.3 86 c 1
 158.3 86 160.3 86 162.3 86 c 0
 270.3 86 256.9 42 319.9 42 c 0
 347.9 42 394.4 49 426.6 83 c 1
 441.5 73 l 1
 408.1 24 353.9 -10 291.9 -10 c 0
 206.9 -10 217.8 46 134.8 46 c 0
 101.8 46 92 33 89.9 23 c 0
 85.2 1 65.9 -10 44.9 -10 c 0
 26.9 -10 17.2 1 20.4 16 c 0
 24.2 34 49.4 49 78.4 63 c 1
 143.1 104 170.2 180 188.5 266 c 2
 191.9 282 l 1
 131.9 282 l 2
 126.9 282 126.1 283 127.2 288 c 2
 130 301 l 2
 131.7 309 140.2 321 157.2 321 c 2
 200.2 321 l 1
 204.3 340 l 2
 221.3 420 244.7 455 302.9 503 c 0
 363.5 553 428.2 570 484.2 570 c 0
 501.2 570 516.4 566 522.5 562 c 1
 522.8 559 l 1
 509.2 542 493.6 511 482.5 487 c 1
 472.3 486 l 1
 465.9 503 452.9 517 427.9 517 c 0
 376.9 517 305 456 290.5 388 c 2
EndSplineSet
EndChar

StartChar: currency
Encoding: 164 164 315
Width: 440
GlyphClass: 2
Flags: MW
LayerCount: 2
Fore
SplineSet
163.4 289 m 0
 147.9 216 180.9 155 251.9 155 c 0
 321.9 155 381.1 217 396.2 288 c 0
 412.1 363 372.5 421 310.5 421 c 0
 240.5 421 178.5 360 163.4 289 c 0
243 113 m 0
 203 113 169.6 125 142.7 149 c 1
 88.4 96 l 1
 55.9 136 l 1
 119 179 l 1
 99.6 210 94.5 247 103.2 288 c 0
 112.3 331 133.2 368 165.6 398 c 1
 122.3 439 l 1
 167.8 479 l 1
 203 428 l 1
 241.1 452 278.4 463 317.4 463 c 0
 358.4 463 391.8 451 418.5 426 c 1
 476.2 481 l 1
 506.5 440 l 1
 442.2 396 l 1
 460.8 366 466.1 330 457.2 288 c 0
 448.7 248 428.1 212 397.5 181 c 1
 440.1 137 l 1
 396 99 l 1
 360.9 150 l 1
 322.6 125 284 113 243 113 c 0
EndSplineSet
EndChar

StartChar: yen
Encoding: 165 165 316
Width: 440
GlyphClass: 2
Flags: MW
LayerCount: 2
Fore
SplineSet
95.7 229 m 2
 90.7 229 90.9 230 92 235 c 2
 94.9 249 l 2
 96.6 257 104.2 269 121.2 269 c 2
 221.2 269 l 1
 195.3 347.8 146.6 520.9 126.2 575 c 1
 140.6 572 161.6 572 176.6 572 c 0
 191.6 572 211.6 572 227.2 575 c 1
 244.3 476.7 259.9 398.3 294.6 301.9 c 1
 362.2 381.9 412.5 469.7 478.2 575 c 1
 487.6 572 502.6 572 514.6 572 c 0
 525.6 572 540.6 572 552.2 575 c 1
 435.3 425.8 371.7 337.6 321.5 269 c 1
 450.2 269 l 2
 454.2 269 456.8 267 455.9 263 c 2
 451.4 242 l 2
 449.5 233 435.7 229 425.7 229 c 2
 305.2 229 l 1
 301.2 208.8 296.9 187.4 292.7 166 c 1
 428.3 166 l 2
 432.3 166 434.9 164 434 160 c 2
 429.8 140 l 2
 427.9 131 414 127 404 127 c 2
 285.2 127 l 1
 274.7 71.7 265.6 21.1 262.4 -3 c 1
 249 0 230 0 217 0 c 0
 204 0 186 0 171.4 -3 c 1
 180.3 25.3 192.2 74.1 204.2 127 c 1
 74 127 l 2
 69 127 69.2 128 70.3 133 c 2
 73 146 l 2
 74.7 154 82.3 166 99.3 166 c 2
 212.9 166 l 1
 217.6 187.3 222.2 208.7 226.6 229 c 1
 95.7 229 l 2
EndSplineSet
EndChar

StartChar: brokenbar
Encoding: 166 166 317
Width: 205
GlyphClass: 2
Flags: MW
LayerCount: 2
Fore
SplineSet
272.3 674 m 1
 195.3 312 l 1
 147.3 312 l 1
 224.3 674 l 1
 272.3 674 l 1
163.2 161 m 1
 86.3 -201 l 1
 38.3 -201 l 1
 115.2 161 l 1
 163.2 161 l 1
EndSplineSet
EndChar

StartChar: section
Encoding: 167 167 318
Width: 483
GlyphClass: 2
Flags: MW
LayerCount: 2
Fore
SplineSet
229.8 387 m 1
 205.4 367.2 178.3 335.7 171.8 305 c 0
 151.8 211 252.1 165 319.8 126 c 0
 334.2 117.6 346.4 108.5 356.5 99 c 1
 380.9 118.8 408 150.3 414.5 181 c 0
 434.5 275 334.2 321 266.5 360 c 0
 252.1 368.4 239.9 377.5 229.8 387 c 1
211.7 407.3 m 1
 187 440.9 182.8 478.9 190.7 516 c 0
 204.7 582 283.9 658 383.9 658 c 0
 452.9 658 487.4 618 509.5 595 c 1
 511.4 590 l 1
 478.9 517 l 1
 464.5 515 l 1
 446.1 565 421.4 618 366.4 618 c 0
 319.4 618 274.1 584 263.9 536 c 0
 253.9 489 276.4 458 322.9 437 c 0
 396.9 404 505.7 342 479.6 219 c 0
 466.7 158.4 422.8 109.7 374.6 78.7 c 1
 399.3 45.1 403.5 7.1 395.6 -30 c 0
 381.6 -96 302.4 -172 202.4 -172 c 0
 133.4 -172 98.9 -132 76.8 -109 c 1
 74.9 -104 l 1
 107.4 -31 l 1
 121.8 -29 l 1
 140.2 -79 164.9 -132 219.9 -132 c 0
 266.9 -132 312.2 -98 322.4 -50 c 0
 332.4 -3 309.9 28 263.4 49 c 0
 189.4 82 80.7 144 106.8 267 c 0
 119.7 327.6 163.5 376.3 211.7 407.3 c 1
EndSplineSet
EndChar

StartChar: dieresis
Encoding: 168 168 319
Width: 375
GlyphClass: 2
Flags: MW
LayerCount: 2
Fore
SplineSet
176.2 575 m 0
 181.5 600 207 621 232 621 c 0
 257 621 273.5 600 268.2 575 c 0
 262.9 550 237.4 529 212.4 529 c 0
 187.4 529 170.9 550 176.2 575 c 0
336.2 575 m 0
 341.5 600 367 621 392 621 c 0
 417 621 433.5 600 428.2 575 c 0
 422.9 550 397.4 529 372.4 529 c 0
 347.4 529 330.9 550 336.2 575 c 0
EndSplineSet
EndChar

StartChar: copyright
Encoding: 169 169 320
Width: 633
GlyphClass: 2
Flags: MW
LayerCount: 2
Fore
SplineSet
484.9 216 m 1
 458.3 185 408.3 152 353.3 152 c 0
 264.3 152 212.2 222 229 301 c 0
 246.9 385 332.1 457 420.1 457 c 0
 490.1 457 487 442 516 442 c 1
 513.3 364 l 1
 492.5 360 l 1
 485.3 406 468.2 434 411.2 434 c 0
 371.2 434 313.9 409 293.1 311 c 0
 277.6 238 300.5 181 368.5 181 c 0
 419.5 181 454.7 215 469.1 231 c 1
 484.9 216 l 1
EndSplineSet
Refer: 2253 -1 N 1 0 0 1 0 0 2
Colour: ff80cc
EndChar

StartChar: ordfeminine
Encoding: 170 170 321
Width: 340
GlyphClass: 2
Flags: MW
LayerCount: 2
Fore
SplineSet
307.389648438 501.969726562 m 1
 323.139648438 542.290039062 329.440429688 606.549804688 329.440429688 606.549804688 c 1
 316.83984375 611.58984375 306.319335938 612.849609375 290.379882812 612.849609375 c 0
 233.049804688 612.849609375 174.459960938 514.5703125 174.459960938 447.790039062 c 0
 174.459960938 412.509765625 182.650390625 394.240234375 204.0703125 394.240234375 c 0
 224.23046875 394.240234375 276.51953125 445.26953125 307.389648438 501.969726562 c 1
342.040039062 450.940429688 m 2
 338.0078125 433.8671875 337 420.888671875 337 410.620117188 c 0
 337 396.759765625 344.559570312 390.459960938 355.26953125 390.459960938 c 0
 361.5703125 390.459960938 373.85546875 391.719726562 385.509765625 394.870117188 c 1
 386.76953125 392.98046875 l 1
 386.76953125 376.599609375 l 1
 373.224609375 369.669921875 352.120117188 357.700195312 326.919921875 357.700195312 c 0
 308.01953125 357.700195312 287.860351562 366.51953125 287.860351562 391.08984375 c 0
 287.860351562 396.885742188 288.23828125 404.508789062 292.26953125 420.700195312 c 2
 300.459960938 453.459960938 l 1
 299.200195312 454.719726562 l 1
 261.400390625 398.650390625 231.790039062 357.700195312 187.059570312 357.700195312 c 0
 134.139648438 357.700195312 122.799804688 402.4296875 122.799804688 437.709960938 c 0
 122.799804688 536.620117188 228.009765625 638.6796875 288.490234375 638.6796875 c 0
 313.690429688 638.6796875 321.879882812 638.6796875 338.889648438 636.790039062 c 0
 341.061560155 636.464242954 343.78105003 636.332541954 346.830849917 636.332541954 c 0
 359.705837503 636.332541954 378.467535739 638.6796875 386.76953125 638.6796875 c 1
 342.040039062 450.940429688 l 2
EndSplineSet
EndChar

StartChar: guillemotleft
Encoding: 171 171 322
Width: 536
GlyphClass: 2
Flags: MW
LayerCount: 2
Fore
SplineSet
173 215 m 1
 206 174 233 126 268 47 c 1
 234 23 l 1
 187 99 158 142 107 191 c 2
 107 191 96 202 90 207 c 1
 93 223 l 1
 101 228 117 239 117 239 c 1
 188 288 237 331 316 407 c 1
 339 383 l 1
 270 304 224 256 173 215 c 1
336 215 m 1
 369 174 396 126 431 47 c 1
 398 23 l 1
 351 99 322 142 271 191 c 2
 271 191 260 202 254 207 c 1
 257 223 l 1
 265 228 281 239 281 239 c 1
 352 288 401 331 480 407 c 1
 502 383 l 1
 433 304 387 256 336 215 c 1
EndSplineSet
EndChar

StartChar: logicalnot
Encoding: 172 172 323
Width: 560
GlyphClass: 2
Flags: MW
LayerCount: 2
Fore
SplineSet
511.3 133 m 1
 558.9 357 l 1
 99.9 357 l 1
 109.2 401 l 1
 622.2 401 l 1
 565.3 133 l 1
 511.3 133 l 1
EndSplineSet
EndChar

StartChar: uni00AD
Encoding: 173 173 324
Width: 333
GlyphClass: 2
Flags: MW
LayerCount: 2
Fore
SplineSet
324.2 236 m 2
 98.2 236 l 2
 89.2 236 84.9 244 86.8 253 c 0
 90.2 269 107.6 290 119.6 290 c 2
 348.6 290 l 2
 358.6 290 360.7 281 358.8 272 c 0
 356.5 261 337.2 236 324.2 236 c 2
EndSplineSet
Colour: ff00ff
EndChar

StartChar: registered
Encoding: 174 174 325
Width: 633
GlyphClass: 2
Flags: MW
LayerCount: 2
Fore
SplineSet
509.6 370 m 0
 501.3 331 469 306 435.9 296 c 1
 466.5 214 l 2
 473.5 195.2 488.4 190 505 193 c 1
 505.4 176 l 1
 492.3 171 479.9 169 467.9 169 c 0
 447.9 169 425.2 175 414.4 204 c 2
 383.4 284 l 1
 380 287 352.2 288 347.2 288 c 1
 331.9 216 l 2
 329.1 203 331.7 196.1 339.4 195 c 2
 353 193 l 2
 360.8 192 363.8 192 362.7 187 c 2
 359.3 171 l 1
 356.9 169 l 1
 356.9 169 316.3 171 298.3 171 c 0
 278.3 171 236.9 169 236.9 169 c 1
 235.3 171 l 1
 239 188 l 2
 239.9 192 242.8 192 250 193 c 2
 267.4 195 l 2
 275.6 196 282.1 203 284.9 216 c 2
 323.2 396 l 2
 326.8 413 317.5 421 305.5 421 c 2
 294.5 421 l 2
 287.5 421 286.9 423 287.5 426 c 2
 291.2 443 l 1
 293.6 445 l 1
 429.6 445 l 2
 504.6 445 516 400 509.6 370 c 0
454.6 370 m 0
 461.8 404 449.5 421 415.5 421 c 0
 390.5 421 374 414 370.2 396 c 2
 352.3 312 l 1
 384.3 312 l 2
 414.3 312 443.8 319 454.6 370 c 0
EndSplineSet
Refer: 2253 -1 N 1 0 0 1 0 0 2
Colour: ff80cc
EndChar

StartChar: macron
Encoding: 175 175 326
Width: 397
GlyphClass: 2
Flags: MW
LayerCount: 2
Fore
SplineSet
427.4 529 m 2
 183.4 529 l 2
 174.4 529 173.1 537 174.6 544 c 0
 177.2 556 190.8 573 202.8 573 c 2
 446.8 573 l 2
 456.8 573 459.1 565 457.8 559 c 0
 455.3 547 440.4 529 427.4 529 c 2
EndSplineSet
EndChar

StartChar: degree
Encoding: 176 176 327
Width: 267
GlyphClass: 2
Flags: MW
LayerCount: 2
Fore
SplineSet
311.4 524 m 0
 318.4 557 305.9 597 260.9 597 c 0
 217.9 597 186.1 560 178.4 524 c 0
 171 489 188.5 454 230.5 454 c 0
 271.5 454 304.2 490 311.4 524 c 0
145.6 525 m 0
 157.5 581 211.8 625 266.8 625 c 0
 321.8 625 356.5 581 344.6 525 c 0
 332.9 470 279.5 426 224.5 426 c 0
 169.5 426 133.9 470 145.6 525 c 0
EndSplineSet
EndChar

StartChar: plusminus
Encoding: 177 177 328
Width: 527
GlyphClass: 2
Flags: MW
LayerCount: 2
Fore
SplineSet
475.5 68 m 1
 465 19 l 1
 70 19 l 1
 80.5 68 l 1
 475.5 68 l 1
EndSplineSet
Refer: 8 43 N 1 0 0 1 18.1 85 2
Colour: ff00ff
EndChar

StartChar: uni00B2
Encoding: 178 178 329
Width: 307
GlyphClass: 2
Flags: MW
LayerCount: 2
Fore
SplineSet
262.6 398 m 2
 309.6 398 323 400 350.4 402 c 1
 348.1 396 345.5 388 344.2 382 c 0
 342.9 376 342.2 368 341.9 362 c 1
 307.3 364 296.4 364 261.4 364 c 2
 122.4 364 l 1
 132.6 412 184.5 454 240.4 491 c 0
 293.1 527 319.9 550 331.4 604 c 0
 341.4 651 309.1 664 291.1 664 c 0
 248.1 664 233.8 648 231 635 c 0
 229.1 626 232.6 619 230.9 611 c 0
 227.5 595 207.8 587 197.8 587 c 0
 185.8 587 174.1 598 176.9 611 c 0
 182.4 637 221.2 688 300.2 688 c 0
 350.2 688 404.2 669 390.6 605 c 0
 380.8 559 340.8 526 276.3 486 c 0
 227.9 456 198.2 429 191.6 398 c 1
 262.6 398 l 2
EndSplineSet
EndChar

StartChar: uni00B3
Encoding: 179 179 330
Width: 307
GlyphClass: 2
Flags: MW
LayerCount: 2
Fore
SplineSet
320.6 624 m 0
 327.2 655 308.1 664 289.1 664 c 0
 269.1 664 233 654 226.7 629 c 0
 223.1 617 217.5 600 194.5 600 c 0
 175.5 600 174.8 615 175.4 618 c 0
 179 635 219.2 688 306.2 688 c 0
 358.2 688 386.6 666 378.7 629 c 0
 372.5 600 345.6 577 313.2 561 c 1
 345.6 558 386.8 531 374.5 473 c 0
 359.8 404 284.1 358 204.1 358 c 0
 167.1 358 118.5 374 123 395 c 0
 125.1 405 140.2 415 151.2 415 c 0
 165.2 415 169.7 408 174.2 401 c 0
 180.1 391 188.4 383 220.4 383 c 0
 239.4 383 299.1 396 313.8 465 c 0
 325.9 522 273.4 529 249.4 529 c 0
 242.4 529 237.2 528 229 527 c 1
 232.1 551 l 1
 277.4 557 311.9 583 320.6 624 c 0
EndSplineSet
EndChar

StartChar: acute
Encoding: 180 180 331
Width: 341
GlyphClass: 2
Flags: MW
LayerCount: 2
Fore
SplineSet
324.4 703 m 1
 327.6 704 333.9 705 338.9 705 c 0
 345.3 705 370.7 704 389 682 c 1
 389.6 671 l 1
 251.5 562 l 2
 233.3 547 224.4 543 217.4 543 c 0
 210.4 543 204.7 549 206.2 556 c 0
 208.6 567.2 212.7 571.2 223.6 584 c 2
 324.4 703 l 1
EndSplineSet
Colour: ff00ff
EndChar

StartChar: mu
Encoding: 181 181 332
Width: 486
GlyphClass: 2
Flags: MW
LayerCount: 2
Fore
SplineSet
51.3 -234 m 0
 35.3 -234 2.4 -210 11.1 -169 c 0
 21.9 -118 47.9 -71 61.3 -8 c 0
 68.3 25 70.2 76 82.5 134 c 2
 122.4 322 l 2
 128.4 350 135.2 429 135.2 429 c 1
 158.2 429 190.7 436 219.3 439 c 1
 219.3 439 208.7 375 201.9 343 c 2
 160.2 147 l 2
 146.4 82 152.4 35 205.4 35 c 0
 259.4 35 316 66 345 99 c 1
 415.2 429 l 1
 439.2 429 466.7 436 492.3 439 c 1
 425.4 124 l 2
 412 61 406.9 37 432.9 37 c 0
 445.9 37 459.1 52 475.8 79 c 1
 497.5 68 l 1
 467.9 18 441.9 -10 389.9 -10 c 0
 351.9 -10 328.5 21 336.8 60 c 1
 287.4 16 237.9 -10 176.9 -10 c 0
 154.9 -10 133 0 124.8 13 c 1
 118.8 13 112 9 110.9 4 c 0
 97.1 -61 114.1 -131 105 -174 c 0
 96.3 -215 74.3 -234 51.3 -234 c 0
EndSplineSet
EndChar

StartChar: paragraph
Encoding: 182 182 333
Width: 602
GlyphClass: 2
Flags: MW
LayerCount: 2
Fore
SplineSet
489 574 m 2
 332.8 -161 l 2
 327.1 -188 341.7 -199 364.7 -199 c 0
 387.7 -199 407.2 -192 413.8 -161 c 2
 570 574 l 2
 576.6 605 560.1 612 537.1 612 c 0
 514.1 612 494.7 601 489 574 c 2
545.1 645 m 0
 580.1 645 644.7 648 644.7 648 c 1
 645.1 645 l 1
 625.8 592 608.5 520 592.6 445 c 2
 491.2 -32 l 2
 475.3 -107 462.8 -175 458.7 -232 c 1
 456 -235 l 1
 456 -235 391.7 -232 357.7 -232 c 0
 323.7 -232 259 -235 259 -235 c 1
 257.7 -232 l 1
 277.8 -175 294.3 -107 310.2 -32 c 2
 377.6 285 l 1
 368.2 283 359.9 282 344.9 282 c 0
 198.9 282 130.7 347 159.2 481 c 0
 176 560 252.5 647 384.5 647 c 0
 459.5 647 518.1 645 545.1 645 c 0
EndSplineSet
EndChar

StartChar: cedilla
Encoding: 184 184 335
Width: 541
GlyphClass: 2
Flags: MW
LayerCount: 2
Fore
SplineSet
281.6 -96 m 0
 262.6 -96 252.4 -97 235.3 -102 c 1
 230.6 -96 l 1
 291 0 l 1
 325 0 l 1
 285.8 -67 l 1
 294.2 -65 303.4 -64 312.4 -64 c 0
 352.4 -64 378.3 -88 370.2 -126 c 0
 361.1 -169 308.5 -200 247.5 -200 c 0
 215.5 -200 199.8 -194 177.1 -183 c 1
 179.6 -171 184.1 -164 192.6 -157 c 1
 217.5 -167 227.7 -171 247.7 -171 c 0
 277.7 -171 301.7 -157 307.2 -131 c 0
 311.7 -110 304.6 -96 281.6 -96 c 0
EndSplineSet
Colour: ff00ff
EndChar

StartChar: uni00B9
Encoding: 185 185 336
Width: 307
GlyphClass: 2
Flags: MW
LayerCount: 2
Fore
SplineSet
251.6 492 m 2
 269.6 577 l 2
 276.4 609 278.6 619 266.6 619 c 0
 253.6 619 208.8 606 193.3 599 c 1
 189.5 628 l 1
 240.1 645 291.5 661 341.2 688 c 1
 347.3 688 l 2
 350.3 688 349.6 685 349 682 c 2
 349 682 338.8 648 332.4 618 c 2
 305.6 492 l 2
 294.1 438 288.1 405 285.4 364 c 1
 283.9 362 l 1
 283.9 362 275.4 364 250.4 364 c 0
 225.4 364 215.9 362 215.9 362 c 1
 215.4 364 l 1
 230.5 402 240.3 439 251.6 492 c 2
EndSplineSet
EndChar

StartChar: ordmasculine
Encoding: 186 186 337
Width: 349
GlyphClass: 2
Flags: MW
LayerCount: 2
Fore
SplineSet
130.200195312 484 m 0
 148.299804688 569 211.299804688 621 297.299804688 621 c 0
 395.299804688 621 417.700195312 557 403.5 490 c 0
 389 422 330.400390625 358 236.400390625 358 c 0
 162.400390625 358 114.900390625 412 130.200195312 484 c 0
286 596 m 0
 236 596 201.799804688 548 190.299804688 494 c 0
 179.900390625 445 193.400390625 386 253.400390625 386 c 0
 280.400390625 386 327.799804688 402 343.099609375 474 c 0
 360.099609375 554 336 596 286 596 c 0
EndSplineSet
EndChar

StartChar: guillemotright
Encoding: 187 187 338
Width: 536
GlyphClass: 2
Flags: MW
LayerCount: 2
Fore
SplineSet
390 215 m 1
 357 256 330 304 295 383 c 1
 329 407 l 1
 376 331 405 288 456 239 c 2
 456 239 467 228 473 223 c 1
 470 207 l 1
 462 202 446 191 446 191 c 1
 375 142 326 99 247 23 c 1
 224 47 l 1
 293 126 339 174 390 215 c 1
227 215 m 1
 194 256 167 304 132 383 c 1
 165 407 l 1
 212 331 241 288 292 239 c 2
 292 239 303 228 309 223 c 1
 306 207 l 1
 298 202 282 191 282 191 c 1
 211 142 162 99 83 23 c 1
 61 47 l 1
 130 126 176 174 227 215 c 1
EndSplineSet
Colour: ff00ff
EndChar

StartChar: onequarter
Encoding: 188 188 339
Width: 660
GlyphClass: 2
Flags: MW
LayerCount: 2
Fore
SplineSet
684.7 601 m 1
 724 593 l 1
 126.8 -62 l 1
 86.5 -54 l 1
 684.7 601 l 1
502.8 -81 m 1
 515 -50.3 523.9 -20.3 532.8 18 c 1
 388.8 18 l 1
 387.4 30 l 1
 446.2 95 534.6 191 587.7 248 c 1
 616.6 238 l 1
 556.9 169 476.3 86 447.1 52 c 1
 540.1 52 l 1
 556.4 129 l 2
 557.7 135 564.4 143 567 146 c 0
 575.9 155 590.5 167 597.5 167 c 0
 603.5 167 618.3 166 616.4 157 c 2
 594.1 52 l 1
 643.1 52 l 1
 629.8 18 l 1
 587.3 18 l 1
 579.9 -20 575 -47.9 572.8 -81 c 1
 571.4 -83 l 1
 571.4 -83 562.8 -81 537.8 -81 c 0
 512.8 -81 503.4 -83 503.4 -83 c 1
 502.8 -81 l 1
238.2 443 m 2
 256.2 528 l 2
 263 560 265.2 570 253.2 570 c 0
 240.2 570 195.4 557 179.9 550 c 1
 176.1 579 l 1
 226.7 596 278.1 612 327.8 639 c 1
 333.8 639 l 2
 336.8 639 336.1 636 335.5 633 c 2
 335.5 633 325.3 599 318.9 569 c 2
 292.2 443 l 2
 280.7 389 274.7 356 272 315 c 1
 270.5 313 l 1
 270.5 313 262 315 237 315 c 0
 212 315 202.5 313 202.5 313 c 1
 202 315 l 1
 217.1 353 226.9 390 238.2 443 c 2
EndSplineSet
LCarets2: 2 215 424
Colour: ff80cc
EndChar

StartChar: onehalf
Encoding: 189 189 340
Width: 660
GlyphClass: 2
Flags: MW
LayerCount: 2
Fore
SplineSet
659.7 601 m 1
 700 593 l 1
 101.8 -62 l 1
 62.5 -54 l 1
 659.7 601 l 1
240.2 443 m 2
 258.2 528 l 2
 265 560 267.2 570 255.2 570 c 0
 242.2 570 197.4 557 181.9 550 c 1
 178.1 579 l 1
 228.7 596 280.1 612 329.8 639 c 1
 335.8 639 l 2
 338.8 639 338.1 636 337.5 633 c 2
 337.5 633 327.3 599 320.9 569 c 2
 294.2 443 l 2
 282.7 389 276.7 356 274 315 c 1
 272.5 313 l 1
 272.5 313 264 315 239 315 c 0
 214 315 204.5 313 204.5 313 c 1
 204 315 l 1
 219.1 353 228.9 390 240.2 443 c 2
EndSplineSet
Refer: 1087 8322 N 1 0 0 1 365 33 2
LCarets2: 2 208 414
Colour: ff80cc
EndChar

StartChar: threequarters
Encoding: 190 190 341
Width: 660
GlyphClass: 2
Flags: MW
LayerCount: 2
Fore
SplineSet
689.7 601 m 1
 729 593 l 1
 131.8 -62 l 1
 91.5 -54 l 1
 689.7 601 l 1
307.8 573 m 0
 314.4 604 295.3 613 276.3 613 c 0
 256.3 613 220.1 603 213.8 578 c 0
 210.3 566 204.7 549 181.7 549 c 0
 162.7 549 161.9 564 162.5 567 c 0
 166.1 584 206.4 637 293.4 637 c 0
 345.4 637 373.8 615 365.9 578 c 0
 359.7 549 332.8 526 300.4 510 c 1
 332.8 507 374 480 361.7 422 c 0
 347 353 271.3 307 191.3 307 c 0
 154.3 307 105.6 323 110.1 344 c 0
 112.2 354 127.4 364 138.4 364 c 0
 152.4 364 156.9 357 161.4 350 c 0
 167.3 340 175.6 332 207.6 332 c 0
 226.6 332 286.3 345 301 414 c 0
 313.1 471 260.6 478 236.6 478 c 0
 229.6 478 224.4 477 216.2 476 c 1
 219.3 500 l 1
 264.6 506 299.1 532 307.8 573 c 0
507.2 -79 m 1
 519.4 -48.3 528.4 -18.3 537.3 20 c 1
 393.3 20 l 1
 391.8 32 l 1
 450.6 97 539 193 592.1 250 c 1
 621 240 l 1
 561.3 171 480.7 88 451.5 54 c 1
 544.5 54 l 1
 560.8 131 l 2
 562.1 137 568.9 145 571.5 148 c 0
 580.4 157 594.9 169 601.9 169 c 0
 607.9 169 622.7 168 620.8 159 c 2
 598.5 54 l 1
 647.5 54 l 1
 634.3 20 l 1
 591.8 20 l 1
 584.4 -18 579.4 -45.9 577.2 -79 c 1
 575.8 -81 l 1
 575.8 -81 567.2 -79 542.2 -79 c 0
 517.2 -79 507.8 -81 507.8 -81 c 1
 507.2 -79 l 1
EndSplineSet
LCarets2: 2 260 447
Colour: ff80cc
EndChar

StartChar: questiondown
Encoding: 191 191 342
Width: 405
GlyphClass: 2
Flags: MW
LayerCount: 2
Fore
SplineSet
170.6 -190 m 0
 226.6 -190 278 -141 313.6 -96 c 1
 326.4 -97 l 1
 328.1 -164 l 1
 324.3 -168 l 1
 295.4 -188.5 225.6 -230 153.1 -230 c 0
 51.1 -230 0.900002 -170 20.2 -79 c 0
 37 0 105.4 44 159.6 78 c 0
 186.2 95 209.6 111 222.2 128 c 0
 240.5 153 250.6 177 255.7 201 c 2
 265.1 245 l 2
 266.6 252 272.2 255 280.2 255 c 0
 288.2 255 292.6 252 291.1 245 c 2
 281.3 199 l 2
 272.2 156 257.6 97 180.1 38 c 0
 132.2 1 106.1 -28 96.1 -75 c 0
 82.3 -140 113.6 -190 170.6 -190 c 0
EndSplineSet
Refer: 256 46 N 1 0 0 1 188 337 2
Colour: ff00ff
EndChar

StartChar: Aacute
Encoding: 193 193 344
Width: 633
GlyphClass: 2
Flags: MW
LayerCount: 2
Fore
SplineSet
563.3 820 m 1
 589.1 806.7 606.1 789.3 614.2 768 c 1
 457.9 710 l 2
 435 701 422.4 698 413.4 698 c 0
 404.4 698 399.9 705 401.6 713 c 0
 403.1 720 406.1 725 421 734 c 2
 563.3 820 l 1
EndSplineSet
Refer: 24 65 N 1 0 0 1 0 0 2
Position2: "'cpsp' Versalabstaende 1" dx=2 dy=0 dh=5 dv=0
Colour: ff00ff
EndChar

StartChar: Acircumflex
Encoding: 194 194 345
Width: 633
GlyphClass: 2
Flags: MW
LayerCount: 2
Fore
SplineSet
522.1 805 m 1
 544.4 769 572.8 738 603.1 711 c 1
 582.7 690 l 1
 547.5 708 517.5 727 489.8 752 c 1
 447.1 725 411.3 707 369.7 690 c 1
 360.1 711 l 1
 403.1 739 440.9 771 479.1 805 c 1
 522.1 805 l 1
EndSplineSet
Refer: 24 65 N 1 0 0 1 0 0 2
Position2: "'cpsp' Versalabstaende 1" dx=2 dy=0 dh=5 dv=0
Colour: ff00ff
EndChar

StartChar: Atilde
Encoding: 195 195 346
Width: 633
GlyphClass: 2
Flags: MW
LayerCount: 2
Fore
SplineSet
552.1 744 m 0
 574.1 744 590.3 754 613.2 796 c 1
 635.9 790 l 1
 611.1 730 575.8 700 529.8 700 c 0
 507.8 700 489.3 712 471.3 726 c 0
 455.6 737 439 748 422 748 c 0
 396 748 379.8 733 362.8 700 c 1
 339.9 705 l 1
 366.4 764 395.8 794 438.8 794 c 0
 468.8 794 487.8 780 504.8 766 c 0
 518.3 754 533.1 744 552.1 744 c 0
EndSplineSet
Refer: 24 65 N 1 0 0 1 0 0 2
Position2: "'cpsp' Versalabstaende 1" dx=2 dy=0 dh=5 dv=0
Colour: ff00ff
EndChar

StartChar: Adieresis.alt
Encoding: 1114112 -1 347
Width: 633
GlyphClass: 2
Flags: MW
LayerCount: 2
Fore
SplineSet
310.7 709 m 0
 316 734 341.3 754 366.3 754 c 0
 391.3 754 407 734 401.7 709 c 0
 396.4 684 372.1 664 347.1 664 c 0
 322.1 664 305.4 684 310.7 709 c 0
550.7 709 m 0
 556 734 581.3 754 606.3 754 c 0
 631.3 754 647 734 641.7 709 c 0
 636.4 684 612.1 664 587.1 664 c 0
 562.1 664 545.4 684 550.7 709 c 0
EndSplineSet
Refer: 24 65 N 1 0 0 1 0 0 2
Position2: "'cpsp' Versalabstaende 1" dx=2 dy=0 dh=5 dv=0
Colour: ff80cc
EndChar

StartChar: Aring
Encoding: 197 197 348
Width: 633
GlyphClass: 2
Flags: MW
LayerCount: 2
Fore
SplineSet
487.7 770 m 0
 456.7 770 432.2 744 425.8 714 c 0
 419.8 686 432.9 658 463.9 658 c 0
 494.9 658 519.8 686 525.8 714 c 0
 532.4 745 517.7 770 487.7 770 c 0
388.8 714 m 0
 398.6 760 447.4 797 493.4 797 c 0
 539.4 797 572.8 761 562.8 714 c 0
 555.1 677.7 522.9 645.9 485.6 635 c 1
 530.4 415.8 586.8 94.5 614.4 -3 c 1
 598 0 572 0 555 0 c 0
 538 0 522 0 504.4 -3 c 1
 503 19.2 497 97.2 475.8 228.3 c 1
 438.3 229.2 396.9 230 358.9 230 c 0
 324.4 230 267.7 229.2 229.5 228.3 c 1
 175.2 140.8 126.8 58.3 97.4 -3 c 1
 86 0 64 0 53 0 c 0
 42 0 30 0 17.4 -3 c 1
 160 209.9 299.2 420.1 437.2 633.7 c 1
 402.6 643 380.6 675.3 388.8 714 c 0
467.9 275.5 m 1
 455.9 345.2 439.9 427.4 418.9 521.8 c 1
 416.9 521.8 l 1
 368.9 447.2 312.6 360.5 259.3 275.9 c 1
 291 275.5 334.3 274 363.2 274 c 0
 392.9 274 434.9 274.7 467.9 275.5 c 1
EndSplineSet
Position2: "'cpsp' Versalabstaende 1" dx=2 dy=0 dh=5 dv=0
EndChar

StartChar: AE
Encoding: 198 198 349
Width: 802
GlyphClass: 2
Flags: MW
AnchorPoint: "top_punkt" 470.8 700 basechar 0
AnchorPoint: "above" 620 820 basechar 0
AnchorPoint: "cedilla" 59.7 8 basechar 0
AnchorPoint: "below" 247 -108 basechar 0
LayerCount: 2
Fore
SplineSet
281.2 278.5 m 1
 207.1 171.8 140.2 69.1 97.4 -3 c 1
 86 0 64 0 53 0 c 0
 42 0 30 0 17.4 -3 c 1
 166.5 200 308.2 410 503.3 645.7 c 1
 503.4 645.3 l 1
 505.7 648 l 1
 505.7 648 522.1 645 556.1 645 c 2
 769.1 645 l 2
 790.1 645 813.3 646 829.7 648 c 1
 831.1 645 l 1
 827.1 631 824.2 622 822.5 614 c 0
 820.6 605 819.7 596 819 588 c 1
 816.1 584 l 1
 816.1 584 741 594.3 635.3 594.3 c 0
 559.8 594.3 543.7 585.3 540.4 545.5 c 1
 539.6 475.1 540.1 402.4 541.4 333 c 1
 653.6 333.2 709.3 338.1 767.9 343 c 1
 770.3 340 l 1
 766.4 331 763.2 321 761.3 312 c 0
 759.4 303 758.3 293 758.4 284 c 1
 754.7 281 l 1
 694.7 287.2 597 290.3 542.3 290.9 c 1
 544.4 199.9 547.9 116.9 551.4 55.8 c 1
 651.9 59.2 766 66 766 66 c 1
 767.2 62 l 1
 764.5 54 760.3 39 758.2 29 c 0
 756.1 19 756 14 754 0 c 1
 751.4 -3 l 1
 735.8 -1 713 0 692 0 c 2
 555 0 l 1
 553.5 0 l 1
 500 0 l 2
 483 0 467 0 449.4 -3 c 1
 457 32.7 461.5 117.3 465.3 279.4 c 1
 443.2 279.8 420.8 280 399.5 280 c 0
 368.2 280 318.6 279.3 281.2 278.5 c 1
466.3 324.7 m 1
 467.5 384.7 468.7 453.9 469.9 533.5 c 1
 467.9 533.5 l 1
 418 469.5 365.1 397.6 314.3 325.7 c 1
 343.8 325.1 379.1 324 403.9 324 c 0
 421.8 324 444.1 324.3 466.3 324.7 c 1
EndSplineSet
Position2: "'cpsp' Versalabstaende 1" dx=2 dy=0 dh=5 dv=0
EndChar

StartChar: Ccedilla
Encoding: 199 199 350
Width: 650
GlyphClass: 2
Flags: MW
LayerCount: 2
Fore
SplineSet
494.9 658 m 0
 616.9 658 693.3 613 693.3 613 c 1
 694.7 610 l 1
 672.5 560.7 665.5 550 651.1 499 c 1
 638.9 498 l 1
 615.3 580 560.9 611 470.9 611 c 0
 388.9 611 254.1 537 211 334 c 0
 180 188 213.7 41 368.7 41 c 0
 461.7 41 514.2 62 601.8 140 c 1
 623.6 121 l 1
 542.9 38.3 458.8 -3.8 369.5 -9.4 c 1
 335.8 -67 l 1
 344.2 -65 353.4 -64 362.4 -64 c 0
 402.4 -64 428.3 -88 420.2 -126 c 0
 411.1 -169 358.5 -200 297.5 -200 c 0
 265.5 -200 249.8 -194 227.1 -183 c 1
 229.6 -171 234.1 -164 242.6 -157 c 1
 267.5 -167 277.7 -171 297.7 -171 c 0
 327.7 -171 351.7 -157 357.2 -131 c 0
 361.7 -110 354.6 -96 331.6 -96 c 0
 312.6 -96 302.4 -97 285.3 -102 c 1
 280.6 -96 l 1
 334.9 -9.8 l 1
 131.1 -2.6 70.5 161.6 104 319 c 0
 145.9 516 325.9 658 494.9 658 c 0
EndSplineSet
Position2: "'cpsp' Versalabstaende 1" dx=2 dy=0 dh=5 dv=0
Colour: ff00ff
EndChar

StartChar: Eacute
Encoding: 201 201 352
Width: 522
GlyphClass: 2
Flags: MW
AnchorPoint: "above" 426.7 662 basechar 0
LayerCount: 2
Fore
SplineSet
524.3 820 m 1
 550.1 806.7 567.1 789.3 575.2 768 c 1
 418.9 710 l 2
 396 701 383.4 698 374.4 698 c 0
 365.4 698 360.9 705 362.6 713 c 0
 364.1 720 367.1 725 382 734 c 2
 524.3 820 l 1
EndSplineSet
Refer: 28 69 N 1 0 0 1 0 0 2
Position2: "'cpsp' Versalabstaende 1" dx=2 dy=0 dh=5 dv=0
Colour: ff00ff
EndChar

StartChar: Ecircumflex
Encoding: 202 202 353
Width: 522
GlyphClass: 2
Flags: MW
LayerCount: 2
Fore
SplineSet
488.1 805 m 1
 510.4 769 538.8 738 569.1 711 c 1
 548.7 690 l 1
 513.5 708 483.5 727 455.8 752 c 1
 413.1 725 377.3 707 335.7 690 c 1
 326.1 711 l 1
 369.1 739 406.9 771 445.1 805 c 1
 488.1 805 l 1
EndSplineSet
Refer: 28 69 N 1 0 0 1 0 0 2
Position2: "'cpsp' Versalabstaende 1" dx=2 dy=0 dh=5 dv=0
Colour: ff00ff
EndChar

StartChar: Igrave
Encoding: 204 204 355
Width: 293
GlyphClass: 2
Flags: MW
LayerCount: 2
Fore
SplineSet
200.6 445 m 2
 216.5 520 229 588 233.1 645 c 1
 235.7 648 l 1
 235.7 648 252.1 645 286.1 645 c 0
 321.1 645 338.7 648 338.7 648 c 1
 339.1 645 l 1
 319.8 592 302.5 520 286.6 445 c 2
 234.5 200 l 2
 218.6 125 206.1 57 202 0 c 1
 199.4 -3 l 1
 199.4 -3 183 0 149 0 c 0
 114 0 96.4 -3 96.4 -3 c 1
 96 0 l 1
 115.5 54 132.6 125 148.5 200 c 2
 200.6 445 l 2
EndSplineSet
Refer: 1680 856 N 1 0 0 1 342.8 126 2
Position2: "'cpsp' Versalabstaende 1" dx=2 dy=0 dh=5 dv=0
Colour: ff00ff
EndChar

StartChar: Iacute
Encoding: 205 205 356
Width: 293
GlyphClass: 2
Flags: MW
LayerCount: 2
Fore
SplineSet
384.1 819 m 1
 409.9 805.7 426.9 788.3 435 767 c 1
 278.7 709 l 2
 255.8 700 243.2 697 234.2 697 c 0
 225.2 697 220.6 704 222.3 712 c 0
 223.8 719 226.9 724 241.8 733 c 2
 384.1 819 l 1
200.6 445 m 2
 216.5 520 229 588 233.1 645 c 1
 235.7 648 l 1
 235.7 648 252.1 645 286.1 645 c 0
 321.1 645 338.7 648 338.7 648 c 1
 339.1 645 l 1
 319.8 592 302.5 520 286.6 445 c 2
 234.5 200 l 2
 218.6 125 206.1 57 202 0 c 1
 199.4 -3 l 1
 199.4 -3 183 0 149 0 c 0
 114 0 96.4 -3 96.4 -3 c 1
 96 0 l 1
 115.5 54 132.6 125 148.5 200 c 2
 200.6 445 l 2
EndSplineSet
Position2: "'cpsp' Versalabstaende 1" dx=2 dy=0 dh=5 dv=0
Colour: ff00ff
EndChar

StartChar: Icircumflex
Encoding: 206 206 357
Width: 293
GlyphClass: 2
Flags: MW
LayerCount: 2
Fore
SplineSet
338.1 805 m 1
 360.4 769 388.9 738 419.2 711 c 1
 398.7 690 l 1
 363.5 708 333.5 727 305.8 752 c 1
 263.1 725 227.3 707 185.7 690 c 1
 176.1 711 l 1
 219.1 739 256.9 771 295.1 805 c 1
 338.1 805 l 1
200.6 445 m 2
 216.5 520 229 588 233.1 645 c 1
 235.7 648 l 1
 235.7 648 252.1 645 286.1 645 c 0
 321.1 645 338.7 648 338.7 648 c 1
 339.1 645 l 1
 319.8 592 302.5 520 286.6 445 c 2
 234.5 200 l 2
 218.6 125 206.1 57 202 0 c 1
 199.4 -3 l 1
 199.4 -3 183 0 149 0 c 0
 114 0 96.4 -3 96.4 -3 c 1
 96 0 l 1
 115.5 54 132.6 125 148.5 200 c 2
 200.6 445 l 2
EndSplineSet
Position2: "'cpsp' Versalabstaende 1" dx=2 dy=0 dh=5 dv=0
Colour: ff00ff
EndChar

StartChar: Idieresis
Encoding: 207 207 358
Width: 293
GlyphClass: 2
Flags: MW
LayerCount: 2
Fore
SplineSet
200.6 445 m 2
 216.5 520 229 588 233.1 645 c 1
 235.7 648 l 1
 235.7 648 252.1 645 286.1 645 c 0
 321.1 645 338.7 648 338.7 648 c 1
 339.1 645 l 1
 319.8 592 302.5 520 286.6 445 c 2
 234.5 200 l 2
 218.6 125 206.1 57 202 0 c 1
 199.4 -3 l 1
 199.4 -3 183 0 149 0 c 0
 114 0 96.4 -3 96.4 -3 c 1
 96 0 l 1
 115.5 54 132.6 125 148.5 200 c 2
 200.6 445 l 2
EndSplineSet
Refer: 1848 866 N 1 0 0 1 385 0 2
Position2: "'cpsp' Versalabstaende 1" dx=2 dy=0 dh=5 dv=0
Colour: ff00ff
EndChar

StartChar: Eth
Encoding: 208 208 359
Width: 682
GlyphClass: 2
Flags: MW
LayerCount: 2
Fore
SplineSet
204.4 82 m 2
 197.6 50 200.9 42 298.9 42 c 0
 439.9 42 553.5 82 596.4 284 c 0
 629.1 438 609.4 604 393.4 604 c 0
 344.4 604 314.3 599 306.9 564 c 2
 256.3 326 l 1
 370 326 l 1
 362 287 l 1
 248 287 l 1
 204.4 82 l 2
281.1 645 m 0
 343.4 645 378.4 648 440.7 648 c 0
 632.7 648 744 494 704.5 308 c 0
 652.2 62 461.6 -2 320.6 -2 c 0
 217.6 -2 212.9 0 144 0 c 0
 109 0 91.4 -3 91.4 -3 c 1
 91 0 l 1
 110.5 54 127.6 125 143.5 200 c 2
 162 287 l 1
 91 287 l 1
 99 326 l 1
 170.3 326 l 1
 195.6 445 l 2
 211.5 520 224 588 228.1 645 c 1
 230.7 648 l 1
 230.7 648 247.1 645 281.1 645 c 0
EndSplineSet
Position2: "'cpsp' Versalabstaende 1" dx=2 dy=0 dh=5 dv=0
Colour: ff80cc
EndChar

StartChar: Ograve
Encoding: 210 210 361
Width: 691
GlyphClass: 2
Flags: MW
AnchorPoint: "below" 337 -113 basechar 0
AnchorPoint: "cedilla" 361 0 basechar 0
LayerCount: 2
Fore
SplineSet
460.5 614 m 0
 412.8 614 362.7 595 319 550 c 0
 266.4 496 203.5 365 203.5 230.7 c 0
 203.5 101.4 273.2 34 371.2 34 c 0
 435.2 34 491.2 64.6 534.7 123 c 0
 582.2 186.7 626.9 318.1 626.9 434.5 c 0
 626.9 556.6 569.5 614 460.5 614 c 0
579.1 78.3 m 0
 515.4 22 434 -10 341.9 -10 c 0
 195.6 -10 98.6 78.9 98.6 226.7 c 0
 98.6 378.5 173.4 499.4 262.1 573.8 c 0
 325 626.6 401.5 658 482.9 658 c 0
 635 658 728.6 564.4 728.6 416 c 0
 728.6 268.8 651.1 142 579.1 78.3 c 0
EndSplineSet
Refer: 1680 856 N 1 0 0 1 529 125 2
Position2: "'cpsp' Versalabstaende 1" dx=2 dy=0 dh=5 dv=0
Colour: ff00ff
EndChar

StartChar: Oacute
Encoding: 211 211 362
Width: 691
GlyphClass: 2
Flags: MW
AnchorPoint: "below" 337 -113 basechar 0
AnchorPoint: "cedilla" 361 0 basechar 0
LayerCount: 2
Fore
SplineSet
460.5 614 m 0
 412.8 614 362.7 595 319 550 c 0
 266.4 496 203.5 365 203.5 230.7 c 0
 203.5 101.4 273.2 34 371.2 34 c 0
 435.2 34 491.2 64.6 534.7 123 c 0
 582.2 186.7 626.9 318.1 626.9 434.5 c 0
 626.9 556.6 569.5 614 460.5 614 c 0
579.1 78.3 m 0
 515.4 22 434 -10 341.9 -10 c 0
 195.6 -10 98.6 78.9 98.6 226.7 c 0
 98.6 378.5 173.4 499.4 262.1 573.8 c 0
 325 626.6 401.5 658 482.9 658 c 0
 635 658 728.6 564.4 728.6 416 c 0
 728.6 268.8 651.1 142 579.1 78.3 c 0
521.3 818 m 1
 547.1 804.7 564 787.3 572.2 766 c 1
 415.9 708 l 2
 393 699 380.4 696 371.4 696 c 0
 362.4 696 357.9 703 359.6 711 c 0
 361.1 718 364.1 723 379 732 c 2
 521.3 818 l 1
EndSplineSet
Position2: "'cpsp' Versalabstaende 1" dx=2 dy=0 dh=5 dv=0
Colour: ff00ff
EndChar

